<?xml version="1.0" encoding="UTF-8" standalone="no"?>
<!DOCTYPE svg PUBLIC "-//W3C//DTD SVG 1.1//EN"
 "http://www.w3.org/Graphics/SVG/1.1/DTD/svg11.dtd">
<!-- Generated by graphviz version 2.42.3 (0)
 -->
<!-- Title: TREE Pages: 1 -->
<svg width="473pt" height="237pt"
 viewBox="0.00 0.00 472.66 236.97" xmlns="http://www.w3.org/2000/svg" xmlns:xlink="http://www.w3.org/1999/xlink">
<g id="graph0" class="graph" transform="scale(1 1) rotate(0) translate(4 232.97)">
<title>TREE</title>
<polygon fill="white" stroke="transparent" points="-4,4 -4,-232.97 468.66,-232.97 468.66,4 -4,4"/>
<!-- n1 -->
<g id="node1" class="node">
<title>n1</title>
<ellipse fill="none" stroke="#969696" stroke-width="7" cx="304.66" cy="-199.97" rx="57.97" ry="28.98"/>
<text text-anchor="middle" x="304.66" y="-192.47" font-family="Times" font-size="30.00">ADD</text>
</g>
<!-- n2 -->
<g id="node2" class="node">
<title>n2</title>
<ellipse fill="none" stroke="#969696" stroke-width="7" cx="75.66" cy="-105.99" rx="75.82" ry="28.98"/>
<text text-anchor="middle" x="75.66" y="-98.49" font-family="Times" font-size="30.00">TIMES</text>
</g>
<!-- n1&#45;&#45;n2 -->
<g id="edge1" class="edge">
<title>n1&#45;&#45;n2</title>
<path fill="none" stroke="#969696" stroke-width="7" d="M260.24,-181.13C222,-165.77 166.81,-143.6 126.75,-127.51"/>
</g>
<!-- n3 -->
<g id="node3" class="node">
<title>n3</title>
<ellipse fill="none" stroke="#252525" stroke-width="7" cx="244.66" cy="-105.99" rx="75.82" ry="28.98"/>
<text text-anchor="middle" x="244.66" y="-98.49" font-family="Times" font-size="30.00">TIMES</text>
</g>
<!-- n1&#45;&#45;n3 -->
<g id="edge2" class="edge">
<title>n1&#45;&#45;n3</title>
<path fill="none" stroke="black" d="M286.98,-171.87C279.24,-160 270.17,-146.1 262.42,-134.22"/>
</g>
<!-- l1 -->
<g id="node4" class="node">
<title>l1</title>
<polygon fill="none" stroke="#969696" stroke-width="7" points="392.66,-126.49 338.66,-126.49 338.66,-85.49 392.66,-85.49 392.66,-126.49"/>
<text text-anchor="middle" x="365.66" y="-98.49" font-family="Times" font-size="30.00">a</text>
</g>
<!-- n1&#45;&#45;l1 -->
<g id="edge3" class="edge">
<title>n1&#45;&#45;l1</title>
<path fill="none" stroke="#969696" stroke-width="7" d="M322.63,-171.87C332.26,-157.35 343.91,-139.79 352.65,-126.6"/>
</g>
<!-- l6 -->
<g id="node9" class="node">
<title>l6</title>
<polygon fill="none" stroke="black" points="464.66,-126.49 410.66,-126.49 410.66,-85.49 464.66,-85.49 464.66,-126.49"/>
<text text-anchor="middle" x="437.66" y="-98.49" font-family="Times" font-size="30.00">z</text>
</g>
<!-- n1&#45;&#45;l6 -->
<g id="edge8" class="edge">
<title>n1&#45;&#45;l6</title>
<path fill="none" stroke="black" d="M339.67,-176.81C358.31,-164.78 381.49,-149.44 401.66,-134.98 405.39,-132.31 409.28,-129.41 413.06,-126.52"/>
</g>
<!-- l2 -->
<g id="node5" class="node">
<title>l2</title>
<polygon fill="none" stroke="#969696" stroke-width="7" points="79.66,-41 25.66,-41 25.66,0 79.66,0 79.66,-41"/>
<text text-anchor="middle" x="52.66" y="-13" font-family="Times" font-size="30.00">b</text>
</g>
<!-- n2&#45;&#45;l2 -->
<g id="edge4" class="edge">
<title>n2&#45;&#45;l2</title>
<path fill="none" stroke="#969696" stroke-width="7" d="M67.87,-76.73C64.64,-64.99 60.97,-51.67 58.05,-41.05"/>
</g>
<!-- l3 -->
<g id="node6" class="node">
<title>l3</title>
<polygon fill="none" stroke="#969696" stroke-width="7" points="151.66,-41 97.66,-41 97.66,0 151.66,0 151.66,-41"/>
<text text-anchor="middle" x="124.66" y="-13" font-family="Times" font-size="30.00">c</text>
</g>
<!-- n2&#45;&#45;l3 -->
<g id="edge5" class="edge">
<title>n2&#45;&#45;l3</title>
<path fill="none" stroke="#969696" stroke-width="7" d="M91.7,-77.65C98.68,-65.76 106.7,-52.1 113.08,-41.22"/>
</g>
<!-- l4 -->
<g id="node7" class="node">
<title>l4</title>
<polygon fill="none" stroke="#252525" stroke-width="7" points="247.66,-41 193.66,-41 193.66,0 247.66,0 247.66,-41"/>
<text text-anchor="middle" x="220.66" y="-13" font-family="Times" font-size="30.00">x</text>
</g>
<!-- n3&#45;&#45;l4 -->
<g id="edge6" class="edge">
<title>n3&#45;&#45;l4</title>
<path fill="none" stroke="#252525" stroke-width="7" d="M236.54,-76.73C233.16,-64.99 229.33,-51.67 226.28,-41.05"/>
</g>
<!-- l5 -->
<g id="node8" class="node">
<title>l5</title>
<polygon fill="none" stroke="#252525" stroke-width="7" points="319.66,-41 265.66,-41 265.66,0 319.66,0 319.66,-41"/>
<text text-anchor="middle" x="292.66" y="-13" font-family="Times" font-size="30.00">y</text>
</g>
<!-- n3&#45;&#45;l5 -->
<g id="edge7" class="edge">
<title>n3&#45;&#45;l5</title>
<path fill="none" stroke="#252525" stroke-width="7" d="M260.64,-77.19C267.46,-65.33 275.25,-51.78 281.45,-41.01"/>
</g>
</g>
</svg>
