<?xml version="1.0" encoding="UTF-8" standalone="no"?>
<!DOCTYPE svg PUBLIC "-//W3C//DTD SVG 1.1//EN"
 "http://www.w3.org/Graphics/SVG/1.1/DTD/svg11.dtd">
<!-- Generated by graphviz version 2.42.3 (0)
 -->
<!-- Title: TREE Pages: 1 -->
<svg width="243pt" height="260pt"
 viewBox="0.00 0.00 242.59 260.00" xmlns="http://www.w3.org/2000/svg" xmlns:xlink="http://www.w3.org/1999/xlink">
<g id="graph0" class="graph" transform="scale(1 1) rotate(0) translate(4 256)">
<title>TREE</title>
<polygon fill="white" stroke="transparent" points="-4,4 -4,-256 238.59,-256 238.59,4 -4,4"/>
<!-- n1 -->
<g id="node1" class="node">
<title>n1</title>
<ellipse fill="none" stroke="black" cx="116.8" cy="-162" rx="31.7" ry="18"/>
<text text-anchor="middle" x="116.8" y="-158.3" font-family="Times,serif" font-size="14.00">ADD</text>
</g>
<!-- n3 -->
<g id="node3" class="node">
<title>n3</title>
<ellipse fill="none" stroke="black" cx="33.8" cy="-90" rx="33.6" ry="18"/>
<text text-anchor="middle" x="33.8" y="-86.3" font-family="Times,serif" font-size="14.00">POW</text>
</g>
<!-- n1&#45;&#45;n3 -->
<g id="edge3" class="edge">
<title>n1&#45;&#45;n3</title>
<path fill="none" stroke="black" d="M99.6,-146.5C85.45,-134.56 65.48,-117.72 51.26,-105.73"/>
</g>
<!-- n4 -->
<g id="node4" class="node">
<title>n4</title>
<ellipse fill="none" stroke="black" cx="119.8" cy="-90" rx="33.6" ry="18"/>
<text text-anchor="middle" x="119.8" y="-86.3" font-family="Times,serif" font-size="14.00">POW</text>
</g>
<!-- n1&#45;&#45;n4 -->
<g id="edge4" class="edge">
<title>n1&#45;&#45;n4</title>
<path fill="none" stroke="black" d="M117.54,-143.7C118,-132.85 118.6,-118.92 119.06,-108.1"/>
</g>
<!-- n2 -->
<g id="node2" class="node">
<title>n2</title>
<ellipse fill="none" stroke="black" cx="158.8" cy="-234" rx="27" ry="18"/>
<text text-anchor="middle" x="158.8" y="-230.3" font-family="Times,serif" font-size="14.00">EQ</text>
</g>
<!-- n2&#45;&#45;n1 -->
<g id="edge1" class="edge">
<title>n2&#45;&#45;n1</title>
<path fill="none" stroke="black" d="M149.27,-217.12C142.49,-205.82 133.41,-190.7 126.58,-179.31"/>
</g>
<!-- n5 -->
<g id="node5" class="node">
<title>n5</title>
<ellipse fill="none" stroke="black" cx="200.8" cy="-162" rx="33.6" ry="18"/>
<text text-anchor="middle" x="200.8" y="-158.3" font-family="Times,serif" font-size="14.00">POW</text>
</g>
<!-- n2&#45;&#45;n5 -->
<g id="edge2" class="edge">
<title>n2&#45;&#45;n5</title>
<path fill="none" stroke="black" d="M168.33,-217.12C175.1,-205.82 184.18,-190.7 191.01,-179.31"/>
</g>
<!-- l1 -->
<g id="node6" class="node">
<title>l1</title>
<polygon fill="none" stroke="black" points="60.8,-36 6.8,-36 6.8,0 60.8,0 60.8,-36"/>
<text text-anchor="middle" x="33.8" y="-14.3" font-family="Times,serif" font-size="14.00">a</text>
</g>
<!-- n3&#45;&#45;l1 -->
<g id="edge5" class="edge">
<title>n3&#45;&#45;l1</title>
<path fill="none" stroke="black" d="M33.8,-71.7C33.8,-60.85 33.8,-46.92 33.8,-36.1"/>
</g>
<!-- l2 -->
<g id="node7" class="node">
<title>l2</title>
<polygon fill="none" stroke="black" points="146.8,-36 92.8,-36 92.8,0 146.8,0 146.8,-36"/>
<text text-anchor="middle" x="119.8" y="-14.3" font-family="Times,serif" font-size="14.00">b</text>
</g>
<!-- n4&#45;&#45;l2 -->
<g id="edge6" class="edge">
<title>n4&#45;&#45;l2</title>
<path fill="none" stroke="black" d="M119.8,-71.7C119.8,-60.85 119.8,-46.92 119.8,-36.1"/>
</g>
<!-- l3 -->
<g id="node8" class="node">
<title>l3</title>
<polygon fill="none" stroke="black" points="227.8,-108 173.8,-108 173.8,-72 227.8,-72 227.8,-108"/>
<text text-anchor="middle" x="200.8" y="-86.3" font-family="Times,serif" font-size="14.00">c</text>
</g>
<!-- n5&#45;&#45;l3 -->
<g id="edge7" class="edge">
<title>n5&#45;&#45;l3</title>
<path fill="none" stroke="black" d="M200.8,-143.7C200.8,-132.85 200.8,-118.92 200.8,-108.1"/>
</g>
</g>
</svg>
