<?xml version="1.0" encoding="UTF-8" standalone="no"?>
<!DOCTYPE svg PUBLIC "-//W3C//DTD SVG 1.1//EN"
 "http://www.w3.org/Graphics/SVG/1.1/DTD/svg11.dtd">
<!-- Generated by graphviz version 2.42.3 (0)
 -->
<!-- Title: TREE Pages: 1 -->
<svg width="395pt" height="425pt"
 viewBox="0.00 0.00 395.32 424.93" xmlns="http://www.w3.org/2000/svg" xmlns:xlink="http://www.w3.org/1999/xlink">
<g id="graph0" class="graph" transform="scale(1 1) rotate(0) translate(4 420.93)">
<title>TREE</title>
<polygon fill="white" stroke="transparent" points="-4,4 -4,-420.93 391.32,-420.93 391.32,4 -4,4"/>
<!-- a1 -->
<g id="node1" class="node">
<title>a1</title>
<ellipse fill="none" stroke="black" cx="223.66" cy="-387.94" rx="57.97" ry="28.98"/>
<text text-anchor="middle" x="223.66" y="-380.44" font-family="Times" font-size="30.00">ADD</text>
</g>
<!-- gr -->
<g id="node3" class="node">
<title>gr</title>
<ellipse fill="none" stroke="black" cx="135.66" cy="-293.96" rx="82.96" ry="28.98"/>
<text text-anchor="middle" x="135.66" y="-286.46" font-family="Times" font-size="30.00">GROUP</text>
</g>
<!-- a1&#45;&#45;gr -->
<g id="edge1" class="edge">
<title>a1&#45;&#45;gr</title>
<path fill="none" stroke="black" d="M199.15,-361.32C187.35,-348.98 173.21,-334.2 161.27,-321.72"/>
</g>
<!-- t2 -->
<g id="node5" class="node">
<title>t2</title>
<ellipse fill="none" stroke="#252525" stroke-width="7" cx="311.66" cy="-293.96" rx="75.82" ry="28.98"/>
<text text-anchor="middle" x="311.66" y="-286.46" font-family="Times" font-size="30.00">TIMES</text>
</g>
<!-- a1&#45;&#45;t2 -->
<g id="edge4" class="edge">
<title>a1&#45;&#45;t2</title>
<path fill="none" stroke="black" d="M248.17,-361.32C260.07,-348.88 274.36,-333.95 286.36,-321.4"/>
</g>
<!-- a2 -->
<g id="node2" class="node">
<title>a2</title>
<ellipse fill="none" stroke="#969696" stroke-width="7" cx="135.66" cy="-199.97" rx="57.97" ry="28.98"/>
<text text-anchor="middle" x="135.66" y="-192.47" font-family="Times" font-size="30.00">ADD</text>
</g>
<!-- t1 -->
<g id="node4" class="node">
<title>t1</title>
<ellipse fill="none" stroke="#969696" stroke-width="7" cx="75.66" cy="-105.99" rx="75.82" ry="28.98"/>
<text text-anchor="middle" x="75.66" y="-98.49" font-family="Times" font-size="30.00">TIMES</text>
</g>
<!-- a2&#45;&#45;t1 -->
<g id="edge3" class="edge">
<title>a2&#45;&#45;t1</title>
<path fill="none" stroke="#969696" stroke-width="7" d="M117.98,-171.87C110.24,-160 101.17,-146.1 93.42,-134.22"/>
</g>
<!-- a -->
<g id="node6" class="node">
<title>a</title>
<polygon fill="none" stroke="#969696" stroke-width="7" points="223.66,-126.49 169.66,-126.49 169.66,-85.49 223.66,-85.49 223.66,-126.49"/>
<text text-anchor="middle" x="196.66" y="-98.49" font-family="Times" font-size="30.00">a</text>
</g>
<!-- a2&#45;&#45;a -->
<g id="edge5" class="edge">
<title>a2&#45;&#45;a</title>
<path fill="none" stroke="#969696" stroke-width="7" d="M153.63,-171.87C163.26,-157.35 174.91,-139.79 183.65,-126.6"/>
</g>
<!-- gr&#45;&#45;a2 -->
<g id="edge2" class="edge">
<title>gr&#45;&#45;a2</title>
<path fill="none" stroke="black" d="M135.66,-264.86C135.66,-253.55 135.66,-240.54 135.66,-229.22"/>
</g>
<!-- b -->
<g id="node7" class="node">
<title>b</title>
<polygon fill="none" stroke="#969696" stroke-width="7" points="66.66,-41 12.66,-41 12.66,0 66.66,0 66.66,-41"/>
<text text-anchor="middle" x="39.66" y="-13" font-family="Times" font-size="30.00">b</text>
</g>
<!-- t1&#45;&#45;b -->
<g id="edge6" class="edge">
<title>t1&#45;&#45;b</title>
<path fill="none" stroke="#969696" stroke-width="7" d="M63.67,-77.19C58.56,-65.33 52.71,-51.78 48.07,-41.01"/>
</g>
<!-- c -->
<g id="node8" class="node">
<title>c</title>
<polygon fill="none" stroke="#969696" stroke-width="7" points="138.66,-41 84.66,-41 84.66,0 138.66,0 138.66,-41"/>
<text text-anchor="middle" x="111.66" y="-13" font-family="Times" font-size="30.00">c</text>
</g>
<!-- t1&#45;&#45;c -->
<g id="edge7" class="edge">
<title>t1&#45;&#45;c</title>
<path fill="none" stroke="#969696" stroke-width="7" d="M87.65,-77.19C92.76,-65.33 98.61,-51.78 103.25,-41.01"/>
</g>
<!-- x -->
<g id="node9" class="node">
<title>x</title>
<polygon fill="none" stroke="#252525" stroke-width="7" points="302.66,-220.47 248.66,-220.47 248.66,-179.47 302.66,-179.47 302.66,-220.47"/>
<text text-anchor="middle" x="275.66" y="-192.47" font-family="Times" font-size="30.00">x</text>
</g>
<!-- t2&#45;&#45;x -->
<g id="edge8" class="edge">
<title>t2&#45;&#45;x</title>
<path fill="none" stroke="#252525" stroke-width="7" d="M300.66,-264.86C295.08,-250.59 288.43,-233.61 283.4,-220.74"/>
</g>
<!-- y -->
<g id="node10" class="node">
<title>y</title>
<polygon fill="none" stroke="#252525" stroke-width="7" points="374.66,-220.47 320.66,-220.47 320.66,-179.47 374.66,-179.47 374.66,-220.47"/>
<text text-anchor="middle" x="347.66" y="-192.47" font-family="Times" font-size="30.00">y</text>
</g>
<!-- t2&#45;&#45;y -->
<g id="edge9" class="edge">
<title>t2&#45;&#45;y</title>
<path fill="none" stroke="#252525" stroke-width="7" d="M322.66,-264.86C328.24,-250.59 334.89,-233.61 339.93,-220.74"/>
</g>
</g>
</svg>
