<?xml version="1.0" encoding="UTF-8" standalone="no"?>
<!DOCTYPE svg PUBLIC "-//W3C//DTD SVG 1.1//EN"
 "http://www.w3.org/Graphics/SVG/1.1/DTD/svg11.dtd">
<!-- Generated by graphviz version 2.42.3 (0)
 -->
<!-- Title: TREE Pages: 1 -->
<svg width="162pt" height="260pt"
 viewBox="0.00 0.00 161.59 260.00" xmlns="http://www.w3.org/2000/svg" xmlns:xlink="http://www.w3.org/1999/xlink">
<g id="graph0" class="graph" transform="scale(1 1) rotate(0) translate(4 256)">
<title>TREE</title>
<polygon fill="white" stroke="transparent" points="-4,4 -4,-256 157.59,-256 157.59,4 -4,4"/>
<!-- n1 -->
<g id="node1" class="node">
<title>n1</title>
<ellipse fill="none" stroke="black" cx="76.8" cy="-162" rx="31.7" ry="18"/>
<text text-anchor="middle" x="76.8" y="-158.3" font-family="Times,serif" font-size="14.00">ADD</text>
</g>
<!-- n3 -->
<g id="node2" class="node">
<title>n3</title>
<ellipse fill="none" stroke="black" cx="33.8" cy="-90" rx="33.6" ry="18"/>
<text text-anchor="middle" x="33.8" y="-86.3" font-family="Times,serif" font-size="14.00">POW</text>
</g>
<!-- n1&#45;&#45;n3 -->
<g id="edge2" class="edge">
<title>n1&#45;&#45;n3</title>
<path fill="none" stroke="black" d="M66.82,-144.76C59.98,-133.62 50.91,-118.87 44.01,-107.63"/>
</g>
<!-- n4 -->
<g id="node3" class="node">
<title>n4</title>
<ellipse fill="none" stroke="black" cx="119.8" cy="-90" rx="33.6" ry="18"/>
<text text-anchor="middle" x="119.8" y="-86.3" font-family="Times,serif" font-size="14.00">POW</text>
</g>
<!-- n1&#45;&#45;n4 -->
<g id="edge3" class="edge">
<title>n1&#45;&#45;n4</title>
<path fill="none" stroke="black" d="M86.77,-144.76C93.62,-133.62 102.68,-118.87 109.58,-107.63"/>
</g>
<!-- l1 -->
<g id="node4" class="node">
<title>l1</title>
<polygon fill="none" stroke="black" points="60.8,-36 6.8,-36 6.8,0 60.8,0 60.8,-36"/>
<text text-anchor="middle" x="33.8" y="-14.3" font-family="Times,serif" font-size="14.00">a</text>
</g>
<!-- n3&#45;&#45;l1 -->
<g id="edge4" class="edge">
<title>n3&#45;&#45;l1</title>
<path fill="none" stroke="black" d="M33.8,-71.7C33.8,-60.85 33.8,-46.92 33.8,-36.1"/>
</g>
<!-- l2 -->
<g id="node5" class="node">
<title>l2</title>
<polygon fill="none" stroke="black" points="146.8,-36 92.8,-36 92.8,0 146.8,0 146.8,-36"/>
<text text-anchor="middle" x="119.8" y="-14.3" font-family="Times,serif" font-size="14.00">b</text>
</g>
<!-- n4&#45;&#45;l2 -->
<g id="edge5" class="edge">
<title>n4&#45;&#45;l2</title>
<path fill="none" stroke="black" d="M119.8,-71.7C119.8,-60.85 119.8,-46.92 119.8,-36.1"/>
</g>
<!-- n2 -->
<g id="node6" class="node">
<title>n2</title>
<polygon fill="none" stroke="black" points="103.8,-252 49.8,-252 49.8,-216 103.8,-216 103.8,-252"/>
<text text-anchor="middle" x="76.8" y="-230.3" font-family="Times,serif" font-size="14.00">n2</text>
</g>
<!-- n2&#45;&#45;n1 -->
<g id="edge1" class="edge">
<title>n2&#45;&#45;n1</title>
<path fill="none" stroke="black" d="M76.8,-215.7C76.8,-204.85 76.8,-190.92 76.8,-180.1"/>
</g>
</g>
</svg>
