<?xml version="1.0" encoding="UTF-8" standalone="no"?>
<!DOCTYPE svg PUBLIC "-//W3C//DTD SVG 1.1//EN"
 "http://www.w3.org/Graphics/SVG/1.1/DTD/svg11.dtd">
<!-- Generated by graphviz version 2.40.1 (20161225.0304)
 -->
<!-- Title: %3 Pages: 1 -->
<svg width="617pt" height="152pt"
 viewBox="0.00 0.00 617.00 152.00" xmlns="http://www.w3.org/2000/svg" xmlns:xlink="http://www.w3.org/1999/xlink">
<g id="graph0" class="graph" transform="scale(1 1) rotate(0) translate(4 148)">
<title>%3</title>
<polygon fill="#ffffff" stroke="transparent" points="-4,4 -4,-148 613,-148 613,4 -4,4"/>
<!-- sum -->
<g id="node1" class="node">
<title>sum</title>
<ellipse fill="none" stroke="#000000" cx="27" cy="-72" rx="27" ry="18"/>
<text text-anchor="middle" x="27" y="-68.3" font-family="Times,serif" font-size="14.00" fill="#000000">∑</text>
</g>
<!-- r -->
<g id="node2" class="node">
<title>r</title>
<ellipse fill="none" stroke="#000000" cx="127" cy="-126" rx="27" ry="18"/>
<text text-anchor="middle" x="127" y="-122.3" font-family="Times,serif" font-size="14.00" fill="#000000">r</text>
</g>
<!-- sum&#45;&#45;r -->
<g id="edge1" class="edge">
<title>sum&#45;&#45;r</title>
<path fill="none" stroke="#000000" d="M48.2074,-83.452C65.1778,-92.616 88.8609,-105.4049 105.8231,-114.5645"/>
<text text-anchor="middle" x="77" y="-103.8" font-family="Times,serif" font-size="14.00" fill="#000000">o</text>
</g>
<!-- lb -->
<g id="node5" class="node">
<title>lb</title>
<ellipse fill="none" stroke="#000000" cx="127" cy="-72" rx="27" ry="18"/>
<text text-anchor="middle" x="127" y="-68.3" font-family="Times,serif" font-size="14.00" fill="#000000">(</text>
</g>
<!-- sum&#45;&#45;lb -->
<g id="edge4" class="edge">
<title>sum&#45;&#45;lb</title>
<path fill="none" stroke="#000000" d="M54.0614,-72C68.2907,-72 85.6844,-72 99.9169,-72"/>
</g>
<!-- seck -->
<g id="node10" class="node">
<title>seck</title>
<ellipse fill="none" stroke="#000000" cx="127" cy="-18" rx="27" ry="18"/>
<text text-anchor="middle" x="127" y="-14.3" font-family="Times,serif" font-size="14.00" fill="#000000">k</text>
</g>
<!-- sum&#45;&#45;seck -->
<g id="edge10" class="edge">
<title>sum&#45;&#45;seck</title>
<path fill="none" stroke="#000000" d="M48.2074,-60.548C65.1778,-51.384 88.8609,-38.5951 105.8231,-29.4355"/>
<text text-anchor="middle" x="77" y="-50.8" font-family="Times,serif" font-size="14.00" fill="#000000">u</text>
</g>
<!-- minus -->
<g id="node3" class="node">
<title>minus</title>
<ellipse fill="none" stroke="#000000" cx="218" cy="-126" rx="27" ry="18"/>
<text text-anchor="middle" x="218" y="-122.3" font-family="Times,serif" font-size="14.00" fill="#000000">&#45;</text>
</g>
<!-- r&#45;&#45;minus -->
<g id="edge2" class="edge">
<title>r&#45;&#45;minus</title>
<path fill="none" stroke="#000000" d="M154.303,-126C165.8206,-126 179.2007,-126 190.7163,-126"/>
</g>
<!-- 1 -->
<g id="node4" class="node">
<title>1</title>
<ellipse fill="none" stroke="#000000" cx="309" cy="-126" rx="27" ry="18"/>
<text text-anchor="middle" x="309" y="-122.3" font-family="Times,serif" font-size="14.00" fill="#000000">1</text>
</g>
<!-- minus&#45;&#45;1 -->
<g id="edge3" class="edge">
<title>minus&#45;&#45;1</title>
<path fill="none" stroke="#000000" d="M245.303,-126C256.8206,-126 270.2007,-126 281.7163,-126"/>
</g>
<!-- first2 -->
<g id="node7" class="node">
<title>first2</title>
<ellipse fill="none" stroke="#000000" cx="218" cy="-72" rx="27" ry="18"/>
<text text-anchor="middle" x="218" y="-68.3" font-family="Times,serif" font-size="14.00" fill="#000000">2</text>
</g>
<!-- lb&#45;&#45;first2 -->
<g id="edge5" class="edge">
<title>lb&#45;&#45;first2</title>
<path fill="none" stroke="#000000" d="M154.303,-72C165.8206,-72 179.2007,-72 190.7163,-72"/>
</g>
<!-- rb -->
<g id="node6" class="node">
<title>rb</title>
<ellipse fill="none" stroke="#000000" cx="582" cy="-72" rx="27" ry="18"/>
<text text-anchor="middle" x="582" y="-68.3" font-family="Times,serif" font-size="14.00" fill="#000000">)</text>
</g>
<!-- firstk -->
<g id="node9" class="node">
<title>firstk</title>
<ellipse fill="none" stroke="#000000" cx="309" cy="-72" rx="27" ry="18"/>
<text text-anchor="middle" x="309" y="-68.3" font-family="Times,serif" font-size="14.00" fill="#000000">k</text>
</g>
<!-- first2&#45;&#45;firstk -->
<g id="edge6" class="edge">
<title>first2&#45;&#45;firstk</title>
<path fill="none" stroke="#000000" d="M245.303,-72C256.8206,-72 270.2007,-72 281.7163,-72"/>
</g>
<!-- sec2 -->
<g id="node8" class="node">
<title>sec2</title>
<ellipse fill="#00cd00" stroke="#000000" cx="491" cy="-72" rx="27" ry="18"/>
<text text-anchor="middle" x="491" y="-68.3" font-family="Times,serif" font-size="14.00" fill="#000000">2</text>
</g>
<!-- sec2&#45;&#45;rb -->
<g id="edge9" class="edge">
<title>sec2&#45;&#45;rb</title>
<path fill="none" stroke="#000000" d="M518.303,-72C529.8206,-72 543.2007,-72 554.7163,-72"/>
</g>
<!-- add -->
<g id="node11" class="node">
<title>add</title>
<ellipse fill="none" stroke="#000000" cx="400" cy="-72" rx="27" ry="18"/>
<text text-anchor="middle" x="400" y="-68.3" font-family="Times,serif" font-size="14.00" fill="#000000">+</text>
</g>
<!-- firstk&#45;&#45;add -->
<g id="edge7" class="edge">
<title>firstk&#45;&#45;add</title>
<path fill="none" stroke="#000000" d="M336.303,-72C347.8206,-72 361.2007,-72 372.7163,-72"/>
</g>
<!-- eq -->
<g id="node12" class="node">
<title>eq</title>
<ellipse fill="none" stroke="#000000" cx="218" cy="-18" rx="27" ry="18"/>
<text text-anchor="middle" x="218" y="-14.3" font-family="Times,serif" font-size="14.00" fill="#000000">=</text>
</g>
<!-- seck&#45;&#45;eq -->
<g id="edge11" class="edge">
<title>seck&#45;&#45;eq</title>
<path fill="none" stroke="#000000" d="M154.303,-18C165.8206,-18 179.2007,-18 190.7163,-18"/>
</g>
<!-- add&#45;&#45;sec2 -->
<g id="edge8" class="edge">
<title>add&#45;&#45;sec2</title>
<path fill="none" stroke="#000000" d="M427.303,-72C438.8206,-72 452.2007,-72 463.7163,-72"/>
</g>
<!-- 0 -->
<g id="node13" class="node">
<title>0</title>
<ellipse fill="none" stroke="#000000" cx="309" cy="-18" rx="27" ry="18"/>
<text text-anchor="middle" x="309" y="-14.3" font-family="Times,serif" font-size="14.00" fill="#000000">0</text>
</g>
<!-- eq&#45;&#45;0 -->
<g id="edge12" class="edge">
<title>eq&#45;&#45;0</title>
<path fill="none" stroke="#000000" d="M245.303,-18C256.8206,-18 270.2007,-18 281.7163,-18"/>
</g>
</g>
</svg>
