<?xml version="1.0" encoding="UTF-8"?>
<svg width="860" height="354" xmlns="http://www.w3.org/2000/svg" xmlns:svg="http://www.w3.org/2000/svg">
 <title>hello</title>
 <defs>
  <marker orient="auto" refY="0" refX="0" id="Arrow1Lstart">
   <path id="path1428" d="m0,0l5,-5l-17.5,5l17.5,5l-5,-5z" transform="scale(0.800000011920929) translate(12.5,0) " fill="#ff6464" stroke-width="1pt" stroke="#ff6464" fill-rule="evenodd"/>
  </marker>
  <pattern height="100" width="100" y="0" x="0" patternUnits="userSpaceOnUse" id="gridpattern">
   <image height="100" width="100" y="0" x="0"/>
  </pattern>
 </defs>
 <metadata id="metadata5">image/svg+xml</metadata>
 <g id="layer1">
  <g transform="matrix(0.35252285,0,0,0.35252285,464.13204,18.220306) " class="graph" id="graph0">
   <title>G</title>
   <polygon id="polygon4520" points="397.2864074707031,99.7088508605957 397.2864074707031,165.691650390625 -4,165.691650390625 -4,99.7088508605957 " stroke="transparent" fill="#ffffff"/>
   <!-- leaf -->
   <g class="node" id="node1">
    <title>leaf</title>
    <polygon id="polygon4524" points="0,153.20025062561035 54,153.20025062561035 54,112.20024871826172 0,112.20024871826172 " stroke-width="4" stroke="#000000" fill="none"/>
    <text id="text4526" font-size="30px" y="140.20025" x="27" fill="#000000" text-anchor="middle" font-family="Times">b</text>
   </g>
   <!-- TIMES -->
   <g class="node" id="node2">
    <title>TIMES</title>
    <ellipse id="ellipse4531" ry="28.9828" rx="75.8212" cy="132.70025" cx="165.6604" stroke-width="4" stroke="#000000" fill="none"/>
    <text id="text4533" font-size="30px" y="140.20025" x="165.6604" fill="#000000" text-anchor="middle" font-family="Times">TIMES</text>
   </g>
   <!-- leaf&#45;&#45;TIMES -->
   <g class="edge" id="edge1">
    <title>leaf--TIMES</title>
    <path id="path4538" d="m54.0643,132.70025c10.4822,0 23.0489,0 35.9098,0" stroke-width="4" stroke="#000000" fill="none"/>
   </g>
   <!-- ADD -->
   <g class="node" id="node3">
    <title>ADD</title>
    <ellipse id="ellipse4543" ry="28.9828" rx="57.9655" cy="132.70025" cx="335.30359" stroke-width="4" stroke="#000000" fill="none"/>
    <text id="text4545" font-size="30px" y="140.20025" x="335.30359" fill="#000000" text-anchor="middle" font-family="Times">ADD</text>
   </g>
   <!-- TIMES&#45;&#45;ADD -->
   <g class="edge" id="edge2">
    <title>TIMES--ADD</title>
    <path id="path4550" d="m241.5507,132.70025c11.9979,0 24.2368,0 35.7421,0" stroke-width="4" stroke="#000000" fill="none"/>
   </g>
  </g>
  <ellipse id="path4583-3" cx="532.49573" cy="170.51352" rx="96.62671" ry="163.55861" stroke-opacity="0.66154" stroke-dashoffset="0" stroke-miterlimit="4" stroke-width="1.97013" stroke="#8d8d8d" fill="none"/>
  <g transform="matrix(0.35252285,0,0,0.35252285,463.29428,63.284341) " class="graph" id="graph0-5">
   <title>G</title>
   <polygon id="polygon6073" points="397.2864074707031,99.7088508605957 397.2864074707031,165.691650390625 -4,165.691650390625 -4,99.7088508605957 " stroke="transparent" fill="#ffffff"/>
   <!-- leaf -->
   <g class="node" id="node1-6">
    <title>leaf</title>
    <polygon id="polygon6077" points="0,153.20025062561035 54,153.20025062561035 54,112.20024871826172 0,112.20024871826172 " stroke-width="4" stroke="#000000" fill="none"/>
    <text id="text6079" font-size="30px" y="140.20025" x="27" fill="#000000" text-anchor="middle" font-family="Times">c</text>
   </g>
   <!-- TIMES -->
   <g class="node" id="node2-1">
    <title>TIMES</title>
    <ellipse id="ellipse6084" ry="28.9828" rx="75.8212" cy="132.70025" cx="165.6604" stroke-width="4" stroke="#000000" fill="none"/>
    <text id="text6086" font-size="30px" y="140.20025" x="165.6604" fill="#000000" text-anchor="middle" font-family="Times">TIMES</text>
   </g>
   <!-- leaf&#45;&#45;TIMES -->
   <g class="edge" id="edge1-1">
    <title>leaf--TIMES</title>
    <path id="path6091" d="m54.0643,132.70025c10.4822,0 23.0489,0 35.9098,0" stroke-width="4" stroke="#000000" fill="none"/>
   </g>
   <!-- ADD -->
   <g class="node" id="node3-5">
    <title>ADD</title>
    <ellipse id="ellipse6096" ry="28.9828" rx="57.9655" cy="132.70025" cx="335.30359" stroke-width="4" stroke="#000000" fill="none"/>
    <text id="text6098" font-size="30px" y="140.20025" x="335.30359" fill="#000000" text-anchor="middle" font-family="Times">ADD</text>
   </g>
   <!-- TIMES&#45;&#45;ADD -->
   <g class="edge" id="edge2-9">
    <title>TIMES--ADD</title>
    <path id="path6103" d="m241.5507,132.70025c11.9979,0 24.2368,0 35.7421,0" stroke-width="4" stroke="#000000" fill="none"/>
   </g>
  </g>
  <g transform="matrix(0.35232499,0,0,0.35232499,463.82963,105.61188) " class="graph" id="graph0-7">
   <title>G</title>
   <polygon id="polygon6140" points="-4,99.79965591430664 245.32090759277344,99.79965591430664 245.32090759277344,165.78245544433594 -4,165.78245544433594 " stroke="transparent" fill="#ffffff"/>
   <!-- leaf -->
   <g class="node" id="node1-8">
    <title>leaf</title>
    <polygon id="polygon6144" points="0,112.29105377197266 0,153.2910556793213 54,153.2910556793213 54,112.29105377197266 " stroke-width="4" stroke="#000000" fill="none"/>
    <text id="text6146" font-size="30px" y="140.29106" x="27" fill="#000000" text-anchor="middle" font-family="Times">x</text>
   </g>
   <!-- TIMES -->
   <g class="node" id="node2-5">
    <title>TIMES</title>
    <ellipse id="ellipse6151" ry="28.9828" rx="75.8212" cy="132.79106" cx="165.6604" stroke-width="4" stroke="#000000" fill="none"/>
    <text id="text6153" font-size="30px" y="140.29106" x="165.6604" fill="#000000" text-anchor="middle" font-family="Times">TIMES</text>
   </g>
   <!-- leaf&#45;&#45;TIMES -->
   <g class="edge" id="edge1-7">
    <title>leaf--TIMES</title>
    <path id="path6158" d="m54.0643,132.79106c10.4822,0 23.0489,0 35.9098,0" stroke-width="4" stroke="#000000" fill="none"/>
   </g>
  </g>
  <g transform="matrix(0.35232499,0,0,0.35232499,463.82963,147.94521) " class="graph" id="graph0-8">
   <title>G</title>
   <polygon id="polygon6186" points="-4,99.79965591430664 245.32090759277344,99.79965591430664 245.32090759277344,165.78245544433594 -4,165.78245544433594 " stroke="transparent" fill="#ffffff"/>
   <!-- leaf -->
   <g class="node" id="node1-5">
    <title>leaf</title>
    <polygon id="polygon6190" points="0,112.29105377197266 0,153.2910556793213 54,153.2910556793213 54,112.29105377197266 " stroke-width="4" stroke="#000000" fill="none"/>
    <text id="text6192" font-size="30px" y="140.29106" x="27" fill="#000000" text-anchor="middle" font-family="Times">y</text>
   </g>
   <!-- TIMES -->
   <g class="node" id="node2-9">
    <title>TIMES</title>
    <ellipse id="ellipse6197" ry="28.9828" rx="75.8212" cy="132.79106" cx="165.6604" stroke-width="4" stroke="#000000" fill="none"/>
    <text id="text6199" font-size="30px" y="140.29106" x="165.6604" fill="#000000" text-anchor="middle" font-family="Times">TIMES</text>
   </g>
   <!-- leaf&#45;&#45;TIMES -->
   <g class="edge" id="edge1-75">
    <title>leaf--TIMES</title>
    <path id="path6204" d="m54.0643,132.79106c10.4822,0 23.0489,0 35.9098,0" stroke-width="4" stroke="#000000" fill="none"/>
   </g>
  </g>
  <g transform="matrix(0.35282725,0,0,0.35282725,463.8614,190.29311) " class="graph" id="graph0-89">
   <title>G</title>
   <polygon id="polygon6232" points="-3.9999999999997726,99.56935501098633 209.96549987792991,99.56935501098633 209.96549987792991,165.55215454101562 -3.9999999999997726,165.55215454101562 " stroke="transparent" fill="#ffffff"/>
   <!-- leaf -->
   <g class="node" id="node1-64">
    <title>leaf</title>
    <polygon id="polygon6236" points="2.2737367544323206e-13,112.06075286865234 2.2737367544323206e-13,153.06075477600098 54.00000000000023,153.06075477600098 54.00000000000023,112.06075286865234 " stroke-width="4" stroke="#000000" fill="none"/>
    <text id="text6238" font-size="30px" y="140.06075" x="27" fill="#000000" text-anchor="middle" font-family="Times">a</text>
   </g>
   <!-- ADD -->
   <g class="node" id="node2-3">
    <title>ADD</title>
    <ellipse id="ellipse6243" ry="28.9828" rx="57.9655" cy="132.56075" cx="147.9828" stroke-width="4" stroke="#000000" fill="none"/>
    <text id="text6245" font-size="30px" y="140.06075" x="147.9828" fill="#000000" text-anchor="middle" font-family="Times">ADD</text>
   </g>
   <!-- leaf&#45;&#45;ADD -->
   <g class="edge" id="edge1-3">
    <title>leaf--ADD</title>
    <path id="path6250" d="m54.1509,132.56075c10.5894,0 23.1613,0 35.6051,0" stroke-width="4" stroke="#000000" fill="none"/>
   </g>
  </g>
  <g transform="matrix(0.35282725,0,0,0.35282725,463.8614,232.62644) " class="graph" id="graph0-9">
   <title>G</title>
   <polygon id="polygon6278" points="-3.9999999999997726,99.56935501098633 209.96549987792991,99.56935501098633 209.96549987792991,165.55215454101562 -3.9999999999997726,165.55215454101562 " stroke="transparent" fill="#ffffff"/>
   <!-- leaf -->
   <g class="node" id="node1-7">
    <title>leaf</title>
    <polygon id="polygon6282" points="2.2737367544323206e-13,112.06075286865234 2.2737367544323206e-13,153.06075477600098 54.00000000000023,153.06075477600098 54.00000000000023,112.06075286865234 " stroke-width="4" stroke="#000000" fill="none"/>
    <text id="text6284" font-size="30px" y="140.06075" x="27" fill="#000000" text-anchor="middle" font-family="Times">z</text>
   </g>
   <!-- ADD -->
   <g class="node" id="node2-7">
    <title>ADD</title>
    <ellipse id="ellipse6289" ry="28.9828" rx="57.9655" cy="132.56075" cx="147.9828" stroke-width="4" stroke="#000000" fill="none"/>
    <text id="text6291" font-size="30px" y="140.06075" x="147.9828" fill="#000000" text-anchor="middle" font-family="Times">ADD</text>
   </g>
   <!-- leaf&#45;&#45;ADD -->
   <g class="edge" id="edge1-6">
    <title>leaf--ADD</title>
    <path id="path6296" d="m54.1509,132.56075c10.5894,0 23.1613,0 35.6051,0" stroke-width="4" stroke="#000000" fill="none"/>
   </g>
  </g>
  <g transform="matrix(0.35252285,0,0,0.35252285,694.66432,49.902976) " class="graph" id="graph0-0">
   <title>G</title>
   <polygon id="polygon6324" points="397.2864074707029,165.691650390625 -4.000000000000227,165.691650390625 -4.000000000000227,99.7088508605957 397.2864074707029,99.7088508605957 " stroke="transparent" fill="#ffffff"/>
   <!-- leaf -->
   <g class="node" id="node1-3">
    <title>leaf</title>
    <polygon id="polygon6328" points="53.99999999999977,153.20025062561035 53.99999999999977,112.20024871826172 -2.2737367544323206e-13,112.20024871826172 -2.2737367544323206e-13,153.20025062561035 " stroke-width="4" stroke="#000000" fill="none"/>
    <text id="text6330" font-size="30px" y="140.20025" x="27" fill="#000000" text-anchor="middle" font-family="Times">b</text>
   </g>
   <!-- TIMES -->
   <g class="node" id="node2-0">
    <title>TIMES</title>
    <ellipse id="ellipse6335" ry="28.9828" rx="75.8212" cy="132.70025" cx="165.6604" stroke-width="4" stroke="#000000" fill="none"/>
    <text id="text6337" font-size="30px" y="140.20025" x="165.6604" fill="#000000" text-anchor="middle" font-family="Times">TIMES</text>
   </g>
   <!-- leaf&#45;&#45;TIMES -->
   <g class="edge" id="edge1-9">
    <title>leaf--TIMES</title>
    <path id="path6342" d="m54.0643,132.70025c10.4822,0 23.0489,0 35.9098,0" stroke-width="4" stroke="#000000" fill="none"/>
   </g>
   <!-- ADD -->
   <g class="node" id="node3-2">
    <title>ADD</title>
    <ellipse id="ellipse6347" ry="28.9828" rx="57.9655" cy="132.70025" cx="335.30359" stroke-width="4" stroke="#000000" fill="none"/>
    <text id="text6349" font-size="30px" y="140.20025" x="335.30359" fill="#000000" text-anchor="middle" font-family="Times">ADD</text>
   </g>
   <!-- TIMES&#45;&#45;ADD -->
   <g class="edge" id="edge2-5">
    <title>TIMES--ADD</title>
    <path id="path6354" d="m241.5507,132.70025c11.9979,0 24.2368,0 35.7421,0" stroke-width="4" stroke="#000000" fill="none"/>
   </g>
  </g>
  <g transform="matrix(0.35252285,0,0,0.35252285,694.66432,92.23631) " class="graph" id="graph0-6">
   <title>G</title>
   <polygon id="polygon6389" points="397.2864074707029,165.691650390625 -4.000000000000227,165.691650390625 -4.000000000000227,99.7088508605957 397.2864074707029,99.7088508605957 " stroke="transparent" fill="#ffffff"/>
   <!-- leaf -->
   <g class="node" id="node1-9">
    <title>leaf</title>
    <polygon id="polygon6393" points="53.99999999999977,153.20025062561035 53.99999999999977,112.20024871826172 -2.2737367544323206e-13,112.20024871826172 -2.2737367544323206e-13,153.20025062561035 " stroke-width="4" stroke="#000000" fill="none"/>
    <text id="text6395" font-size="30px" y="140.20025" x="27" fill="#000000" text-anchor="middle" font-family="Times">c</text>
   </g>
   <!-- TIMES -->
   <g class="node" id="node2-2">
    <title>TIMES</title>
    <ellipse id="ellipse6400" ry="28.9828" rx="75.8212" cy="132.70025" cx="165.6604" stroke-width="4" stroke="#000000" fill="none"/>
    <text id="text6402" font-size="30px" y="140.20025" x="165.6604" fill="#000000" text-anchor="middle" font-family="Times">TIMES</text>
   </g>
   <!-- leaf&#45;&#45;TIMES -->
   <g class="edge" id="edge1-2">
    <title>leaf--TIMES</title>
    <path id="path6407" d="m54.0643,132.70025c10.4822,0 23.0489,0 35.9098,0" stroke-width="4" stroke="#000000" fill="none"/>
   </g>
   <!-- ADD -->
   <g class="node" id="node3-4">
    <title>ADD</title>
    <ellipse id="ellipse6412" ry="28.9828" rx="57.9655" cy="132.70025" cx="335.30359" stroke-width="4" stroke="#000000" fill="none"/>
    <text id="text6414" font-size="30px" y="140.20025" x="335.30359" fill="#000000" text-anchor="middle" font-family="Times">ADD</text>
   </g>
   <!-- TIMES&#45;&#45;ADD -->
   <g class="edge" id="edge2-7">
    <title>TIMES--ADD</title>
    <path id="path6419" d="m241.5507,132.70025c11.9979,0 24.2368,0 35.7421,0" stroke-width="4" stroke="#000000" fill="none"/>
   </g>
  </g>
  <g transform="matrix(0.35282725,0,0,0.35282725,694.74595,137.93508) " class="graph" id="graph0-93">
   <title>G</title>
   <polygon id="polygon6454" points="-3.9999999999997726,165.55215454101562 -3.9999999999997726,99.56935501098633 209.96549987792991,99.56935501098633 209.96549987792991,165.55215454101562 " stroke="transparent" fill="#ffffff"/>
   <!-- leaf -->
   <g class="node" id="node1-68">
    <title>leaf</title>
    <polygon id="polygon6458" points="54.00000000000023,112.06075286865234 2.2737367544323206e-13,112.06075286865234 2.2737367544323206e-13,153.06075477600098 54.00000000000023,153.06075477600098 " stroke-width="4" stroke="#000000" fill="none"/>
    <text id="text6460" font-size="30px" y="140.06075" x="27" fill="#000000" text-anchor="middle" font-family="Times">a</text>
   </g>
   <!-- ADD -->
   <g class="node" id="node2-02">
    <title>ADD</title>
    <ellipse id="ellipse6465" ry="28.9828" rx="57.9655" cy="132.56075" cx="147.9828" stroke-width="4" stroke="#000000" fill="none"/>
    <text id="text6467" font-size="30px" y="140.06075" x="147.9828" fill="#000000" text-anchor="middle" font-family="Times">ADD</text>
   </g>
   <!-- leaf&#45;&#45;ADD -->
   <g class="edge" id="edge1-10">
    <title>leaf--ADD</title>
    <path id="path6472" d="m54.1509,132.56075c10.5894,0 23.1613,0 35.6051,0" stroke-width="4" stroke="#000000" fill="none"/>
   </g>
  </g>
  <g transform="matrix(0.35232499,0,0,0.35232499,694.71419,180.25385) " class="graph" id="graph0-62">
   <title>G</title>
   <polygon id="polygon6500" points="245.32090759277366,99.79965591430664 245.32090759277366,165.78245544433594 -3.9999999999997726,165.78245544433594 -3.9999999999997726,99.79965591430664 " stroke="transparent" fill="#ffffff"/>
   <!-- leaf -->
   <g class="node" id="node1-58">
    <title>leaf</title>
    <polygon id="polygon6504" points="2.2737367544323206e-13,153.2910556793213 54.00000000000023,153.2910556793213 54.00000000000023,112.29105377197266 2.2737367544323206e-13,112.29105377197266 " stroke-width="4" stroke="#000000" fill="none"/>
    <text id="text6506" font-size="30px" y="140.29106" x="27" fill="#000000" text-anchor="middle" font-family="Times">x</text>
   </g>
   <!-- TIMES -->
   <g class="node" id="node2-6">
    <title>TIMES</title>
    <ellipse id="ellipse6511" ry="28.9828" rx="75.8212" cy="132.79106" cx="165.6604" stroke-width="4" stroke="#000000" fill="none"/>
    <text id="text6513" font-size="30px" y="140.29106" x="165.6604" fill="#000000" text-anchor="middle" font-family="Times">TIMES</text>
   </g>
   <!-- leaf&#45;&#45;TIMES -->
   <g class="edge" id="edge1-28">
    <title>leaf--TIMES</title>
    <path id="path6518" d="m54.0643,132.79106c10.4822,0 23.0489,0 35.9098,0" stroke-width="4" stroke="#000000" fill="none"/>
   </g>
  </g>
  <g transform="matrix(0.35232499,0,0,0.35232499,694.71419,222.58718) " class="graph" id="graph0-4">
   <title>G</title>
   <polygon id="polygon6546" points="245.32090759277366,99.79965591430664 245.32090759277366,165.78245544433594 -3.9999999999997726,165.78245544433594 -3.9999999999997726,99.79965591430664 " stroke="transparent" fill="#ffffff"/>
   <!-- leaf -->
   <g class="node" id="node1-0">
    <title>leaf</title>
    <polygon id="polygon6550" points="2.2737367544323206e-13,153.2910556793213 54.00000000000023,153.2910556793213 54.00000000000023,112.29105377197266 2.2737367544323206e-13,112.29105377197266 " stroke-width="4" stroke="#000000" fill="none"/>
    <text id="text6552" font-size="30px" y="140.29106" x="27" fill="#000000" text-anchor="middle" font-family="Times">y</text>
   </g>
   <!-- TIMES -->
   <g class="node" id="node2-62">
    <title>TIMES</title>
    <ellipse id="ellipse6557" ry="28.9828" rx="75.8212" cy="132.79106" cx="165.6604" stroke-width="4" stroke="#000000" fill="none"/>
    <text id="text6559" font-size="30px" y="140.29106" x="165.6604" fill="#000000" text-anchor="middle" font-family="Times">TIMES</text>
   </g>
   <!-- leaf&#45;&#45;TIMES -->
   <g class="edge" id="edge1-99">
    <title>leaf--TIMES</title>
    <path id="path6564" d="m54.0643,132.79106c10.4822,0 23.0489,0 35.9098,0" stroke-width="4" stroke="#000000" fill="none"/>
   </g>
  </g>
  <ellipse id="path4583-3-0" cx="761.32788" cy="166.72591" rx="91.14423" ry="162.7874" stroke-opacity="0.66275" stroke-dashoffset="0" stroke-miterlimit="4" stroke-width="1.90891" stroke="#8d8d8d" fill="none"/>
  <path d="m603.34682,73.91547l84.66667,65.85185" id="path6605" stroke-miterlimit="4" stroke-width="2.66667" stroke="#ff0000" fill="none"/>
  <path d="m603.34682,74.62149l84.66667,21.16667l0,0l-84.66667,10.58333l0,0" id="path6607" stroke-miterlimit="4" stroke-width="3" stroke="#ff0000" fill="none"/>
  <path d="m603.34682,109.01732l84.66667,31.75l0,0" id="path6609" stroke-miterlimit="4" stroke-width="3" stroke="#ff0000" fill="#ff0000"/>
  <path d="m550.43016,151.35065l137.58333,74.08332l0,0" id="path6611" stroke-miterlimit="4" stroke-width="3" stroke="#000000" fill="none"/>
  <path d="m688.01349,225.43397l-137.58333,-31.75l137.58333,74.08334l-137.58333,-116.41666" id="path6613" stroke-miterlimit="4" stroke-width="3" stroke="#000000" fill="none"/>
  <path d="m539.84682,236.0173l148.16667,-52.91666l0,0l-148.16667,95.25" id="path6615" stroke-miterlimit="4" stroke-width="3" stroke="#0000ff" fill="none"/>
  <text xml:space="preserve" x="492.98337" y="348.72964" id="text1035" stroke-width="0.26458" fill="#000000" font-family="sans-serif" font-size="14.11111px" font-weight="normal" font-style="normal">
   <tspan id="tspan1033" x="492.98337" y="348.72964" stroke-width="0.26458" font-size="22.57778px">Query</tspan>
  </text>
  <text xml:space="preserve" x="706.24286" y="350.26611" id="text1039" stroke-width="0.26458" fill="#000000" font-family="sans-serif" font-size="14.11111px" font-weight="normal" font-style="normal">
   <tspan id="tspan1037" x="706.24286" y="350.26611" stroke-width="0.26458" font-size="22.57778px">Candidate</tspan>
  </text>
  <g transform="matrix(0.37887964,0,0,0.37887964,2.6200948,180.41164) " class="graph" id="graph0-66">
   <title>TREE</title>
   <polygon id="polygon1023" points="468.6600036621094,154.4435577392578 -4,154.4435577392578 -4,-82.52644348144531 468.6600036621094,-82.52644348144531 " stroke="transparent" fill="#ffffff"/>
   <!-- n1 -->
   <g class="node" id="node1-4">
    <title>n1</title>
    <ellipse id="ellipse1027" ry="28.98" rx="57.97" cy="-49.52644" cx="304.66" stroke-width="7" stroke="#969696" fill="none"/>
    <text id="text1029" font-size="30px" y="-42.02644" x="304.66" text-anchor="middle" font-family="Times">ADD</text>
   </g>
   <!-- n2 -->
   <g class="node" id="node2-95">
    <title>n2</title>
    <ellipse id="ellipse1034" ry="28.98" rx="75.82" cy="44.45356" cx="75.66" stroke-width="7" stroke="#969696" fill="none"/>
    <text id="text1036" font-size="30px" y="51.95356" x="75.66" text-anchor="middle" font-family="Times">TIMES</text>
   </g>
   <!-- n1&#45;&#45;n2 -->
   <g class="edge" id="edge1-0">
    <title>n1--n2</title>
    <path id="path1041" d="m260.24,-30.68644c-38.24,15.36 -93.43,37.53 -133.49,53.62" stroke-width="7" stroke="#969696" fill="none"/>
   </g>
   <!-- n3 -->
   <g class="node" id="node3-48">
    <title>n3</title>
    <ellipse id="ellipse1046" ry="28.98" rx="75.82" cy="44.45356" cx="244.66" stroke-width="7" stroke="#252525" fill="none"/>
    <text id="text1048" font-size="30px" y="51.95356" x="244.66" text-anchor="middle" font-family="Times">TIMES</text>
   </g>
   <!-- n1&#45;&#45;n3 -->
   <g class="edge" id="edge2-71">
    <title>n1--n3</title>
    <path id="path1053" d="m286.98,-21.42644c-7.74,11.87 -16.81,25.77 -24.56,37.65" stroke="#000000" fill="none"/>
   </g>
   <!-- l1 -->
   <g class="node" id="node4">
    <title>l1</title>
    <polygon id="polygon1058" points="392.6600036621094,64.95355987548828 392.6600036621094,23.95355987548828 338.6600036621094,23.95355987548828 338.6600036621094,64.95355987548828 " stroke-width="7" stroke="#969696" fill="none"/>
    <text id="text1060" font-size="30px" y="51.95356" x="365.66" text-anchor="middle" font-family="Times">a</text>
   </g>
   <!-- n1&#45;&#45;l1 -->
   <g class="edge" id="edge3">
    <title>n1--l1</title>
    <path id="path1065" d="m322.63,-21.42644c9.63,14.52 21.28,32.08 30.02,45.27" stroke-width="7" stroke="#969696" fill="none"/>
   </g>
   <!-- l6 -->
   <g class="node" id="node9">
    <title>l6</title>
    <polygon id="polygon1070" points="464.6600036621094,64.95355987548828 464.6600036621094,23.95355987548828 410.6600036621094,23.95355987548828 410.6600036621094,64.95355987548828 " stroke="#000000" fill="none"/>
    <text id="text1072" font-size="30px" y="51.95356" x="437.66" text-anchor="middle" font-family="Times">z</text>
   </g>
   <!-- n1&#45;&#45;l6 -->
   <g class="edge" id="edge8">
    <title>n1--l6</title>
    <path id="path1077" d="m339.67,-26.36644c18.64,12.03 41.82,27.37 61.99,41.83c3.73,2.67 7.62,5.57 11.4,8.46" stroke="#000000" fill="none"/>
   </g>
   <!-- l2 -->
   <g class="node" id="node5">
    <title>l2</title>
    <polygon id="polygon1082" points="79.66000366210938,150.4435577392578 79.66000366210938,109.44355773925781 25.65999984741211,109.44355773925781 25.65999984741211,150.4435577392578 " stroke-width="7" stroke="#969696" fill="none"/>
    <text id="text1084" font-size="30px" y="137.44356" x="52.66" text-anchor="middle" font-family="Times">b</text>
   </g>
   <!-- n2&#45;&#45;l2 -->
   <g class="edge" id="edge4">
    <title>n2--l2</title>
    <path id="path1089" d="m67.87,73.71356c-3.23,11.74 -6.9,25.06 -9.82,35.68" stroke-width="7" stroke="#969696" fill="none"/>
   </g>
   <!-- l3 -->
   <g class="node" id="node6">
    <title>l3</title>
    <polygon id="polygon1094" points="151.66000366210938,150.4435577392578 151.66000366210938,109.44355773925781 97.66000366210938,109.44355773925781 97.66000366210938,150.4435577392578 " stroke-width="7" stroke="#969696" fill="none"/>
    <text id="text1096" font-size="30px" y="137.44356" x="124.66" text-anchor="middle" font-family="Times">c</text>
   </g>
   <!-- n2&#45;&#45;l3 -->
   <g class="edge" id="edge5">
    <title>n2--l3</title>
    <path id="path1101" d="m91.7,72.79356c6.98,11.89 15,25.55 21.38,36.43" stroke-width="7" stroke="#969696" fill="none"/>
   </g>
   <!-- l4 -->
   <g class="node" id="node7">
    <title>l4</title>
    <polygon id="polygon1106" points="247.66000366210938,150.4435577392578 247.66000366210938,109.44355773925781 193.66000366210938,109.44355773925781 193.66000366210938,150.4435577392578 " stroke-width="7" stroke="#252525" fill="none"/>
    <text id="text1108" font-size="30px" y="137.44356" x="220.66" text-anchor="middle" font-family="Times">x</text>
   </g>
   <!-- n3&#45;&#45;l4 -->
   <g class="edge" id="edge6">
    <title>n3--l4</title>
    <path id="path1113" d="m236.54,73.71356c-3.38,11.74 -7.21,25.06 -10.26,35.68" stroke-width="7" stroke="#252525" fill="none"/>
   </g>
   <!-- l5 -->
   <g class="node" id="node8">
    <title>l5</title>
    <polygon id="polygon1118" points="319.6600036621094,150.4435577392578 319.6600036621094,109.44355773925781 265.6600036621094,109.44355773925781 265.6600036621094,150.4435577392578 " stroke-width="7" stroke="#252525" fill="none"/>
    <text id="text1120" font-size="30px" y="137.44356" x="292.66" text-anchor="middle" font-family="Times">y</text>
   </g>
   <!-- n3&#45;&#45;l5 -->
   <g class="edge" id="edge7">
    <title>n3--l5</title>
    <path id="path1125" d="m260.64,73.25356c6.82,11.86 14.61,25.41 20.81,36.18" stroke-width="7" stroke="#252525" fill="none"/>
   </g>
  </g>
  <g transform="matrix(0.37727055,0,0,0.37727055,204.79541,198.37362) " class="graph" id="graph0-72">
   <title>TREE</title>
   <polygon id="polygon1202" points="-4,-269.84478759765625 391.32000732421875,-269.84478759765625 391.32000732421875,155.085205078125 -4,155.085205078125 " stroke="transparent" fill="#ffffff"/>
   <!-- a1 -->
   <g class="node" id="node1-72">
    <title>a1</title>
    <ellipse id="ellipse1206" ry="28.98" rx="57.97" cy="-236.85479" cx="223.66" stroke="#000000" fill="none"/>
    <text id="text1208" font-size="30px" y="-229.35479" x="223.66" text-anchor="middle" font-family="Times">ADD</text>
   </g>
   <!-- gr -->
   <g class="node" id="node3-26">
    <title>gr</title>
    <ellipse id="ellipse1213" ry="28.98" rx="82.96" cy="-142.87478" cx="135.66" stroke="#000000" fill="none"/>
    <text id="text1215" font-size="30px" y="-135.37478" x="135.66" text-anchor="middle" font-family="Times">GROUP</text>
   </g>
   <!-- a1&#45;&#45;gr -->
   <g class="edge" id="edge1-106">
    <title>a1--gr</title>
    <path id="path1220" d="m199.15,-210.23479c-11.8,12.34 -25.94,27.12 -37.88,39.6" stroke="#000000" fill="none"/>
   </g>
   <!-- t2 -->
   <g class="node" id="node5-1">
    <title>t2</title>
    <ellipse id="ellipse1225" ry="28.98" rx="75.82" cy="-142.87478" cx="311.66" stroke-width="7" stroke="#252525" fill="none"/>
    <text id="text1227" font-size="30px" y="-135.37478" x="311.66" text-anchor="middle" font-family="Times">TIMES</text>
   </g>
   <!-- a1&#45;&#45;t2 -->
   <g class="edge" id="edge4-5">
    <title>a1--t2</title>
    <path id="path1232" d="m248.17,-210.23479c11.9,12.44 26.19,27.37 38.19,39.92" stroke="#000000" fill="none"/>
   </g>
   <!-- a2 -->
   <g class="node" id="node2-94">
    <title>a2</title>
    <ellipse id="ellipse1237" ry="28.98" rx="57.97" cy="-48.88479" cx="135.66" stroke-width="7" stroke="#969696" fill="none"/>
    <text id="text1239" font-size="30px" y="-41.38479" x="135.66" text-anchor="middle" font-family="Times">ADD</text>
   </g>
   <!-- t1 -->
   <g class="node" id="node4-9">
    <title>t1</title>
    <ellipse id="ellipse1244" ry="28.98" rx="75.82" cy="45.09521" cx="75.66" stroke-width="7" stroke="#969696" fill="none"/>
    <text id="text1246" font-size="30px" y="52.59521" x="75.66" text-anchor="middle" font-family="Times">TIMES</text>
   </g>
   <!-- a2&#45;&#45;t1 -->
   <g class="edge" id="edge3-0">
    <title>a2--t1</title>
    <path id="path1251" d="m117.98,-20.78479c-7.74,11.87 -16.81,25.77 -24.56,37.65" stroke-width="7" stroke="#969696" fill="none"/>
   </g>
   <!-- a -->
   <g class="node" id="node6-9">
    <title>a</title>
    <polygon id="polygon1256" points="169.66000366210938,24.59520721435547 169.66000366210938,65.59520721435547 223.66000366210938,65.59520721435547 223.66000366210938,24.59520721435547 " stroke-width="7" stroke="#969696" fill="none"/>
    <text id="text1258" font-size="30px" y="52.59521" x="196.66" text-anchor="middle" font-family="Times">a</text>
   </g>
   <!-- a2&#45;&#45;a -->
   <g class="edge" id="edge5-1">
    <title>a2--a</title>
    <path id="path1263" d="m153.63,-20.78479c9.63,14.52 21.28,32.08 30.02,45.27" stroke-width="7" stroke="#969696" fill="none"/>
   </g>
   <!-- gr&#45;&#45;a2 -->
   <g class="edge" id="edge2-77">
    <title>gr--a2</title>
    <path id="path1268" d="m135.66,-113.77479c0,11.31 0,24.32 0,35.64" stroke="#000000" fill="none"/>
   </g>
   <!-- b -->
   <g class="node" id="node7-1">
    <title>b</title>
    <polygon id="polygon1273" points="12.65999984741211,110.085205078125 12.65999984741211,151.085205078125 66.66000366210938,151.085205078125 66.66000366210938,110.085205078125 " stroke-width="7" stroke="#969696" fill="none"/>
    <text id="text1275" font-size="30px" y="138.08521" x="39.66" text-anchor="middle" font-family="Times">b</text>
   </g>
   <!-- t1&#45;&#45;b -->
   <g class="edge" id="edge6-1">
    <title>t1--b</title>
    <path id="path1280" d="m63.67,73.89521c-5.11,11.86 -10.96,25.41 -15.6,36.18" stroke-width="7" stroke="#969696" fill="none"/>
   </g>
   <!-- c -->
   <g class="node" id="node8-5">
    <title>c</title>
    <polygon id="polygon1285" points="84.66000366210938,110.085205078125 84.66000366210938,151.085205078125 138.66000366210938,151.085205078125 138.66000366210938,110.085205078125 " stroke-width="7" stroke="#969696" fill="none"/>
    <text id="text1287" font-size="30px" y="138.08521" x="111.66" text-anchor="middle" font-family="Times">c</text>
   </g>
   <!-- t1&#45;&#45;c -->
   <g class="edge" id="edge7-9">
    <title>t1--c</title>
    <path id="path1292" d="m87.65,73.89521c5.11,11.86 10.96,25.41 15.6,36.18" stroke-width="7" stroke="#969696" fill="none"/>
   </g>
   <!-- x -->
   <g class="node" id="node9-7">
    <title>x</title>
    <polygon id="polygon1297" points="248.66000366210938,-69.38479614257812 248.66000366210938,-28.384796142578125 302.6600036621094,-28.384796142578125 302.6600036621094,-69.38479614257812 " stroke-width="7" stroke="#252525" fill="none"/>
    <text id="text1299" font-size="30px" y="-41.38479" x="275.66" text-anchor="middle" font-family="Times">x</text>
   </g>
   <!-- t2&#45;&#45;x -->
   <g class="edge" id="edge8-7">
    <title>t2--x</title>
    <path id="path1304" d="m300.66,-113.77479c-5.58,14.27 -12.23,31.25 -17.26,44.12" stroke-width="7" stroke="#252525" fill="none"/>
   </g>
   <!-- y -->
   <g class="node" id="node10">
    <title>y</title>
    <polygon id="polygon1309" points="320.6600036621094,-69.38479614257812 320.6600036621094,-28.384796142578125 374.6600036621094,-28.384796142578125 374.6600036621094,-69.38479614257812 " stroke-width="7" stroke="#252525" fill="none"/>
    <text id="text1311" font-size="30px" y="-41.38479" x="347.66" text-anchor="middle" font-family="Times">y</text>
   </g>
   <!-- t2&#45;&#45;y -->
   <g class="edge" id="edge9">
    <title>t2--y</title>
    <path id="path1316" d="m322.66,-113.77479c5.58,14.27 12.23,31.25 17.27,44.12" stroke-width="7" stroke="#252525" fill="none"/>
   </g>
  </g>
  <text xml:space="preserve" x="274.57877" y="300.43785" id="text1039-3" stroke-width="0.41815" fill="#000000" font-family="sans-serif" font-size="22.30119px" font-weight="normal" font-style="normal">
   <tspan id="tspan1037-6" x="274.57877" y="300.43785" stroke-width="0.41815" font-size="35.68191px">T
    <tspan id="tspan1173" stroke-width="0.41815" font-size="23.19324px">d</tspan></tspan>
  </text>
  <path d="m416.42745,204.34401l-51.90329,0" id="path1734" marker-start="url(#Arrow1Lstart)" stroke-miterlimit="4" stroke-width="1.63103" stroke="#ff6464" fill="#ff6464"/>
  <text xml:space="preserve" x="73.71802" y="300.99992" id="text1039-3-6" stroke-width="0.41815" fill="#000000" font-family="sans-serif" font-size="22.30119px" font-weight="normal" font-style="normal">
   <tspan id="tspan1037-6-6" x="73.71802" y="300.99992" stroke-width="0.41815" font-size="35.68191px">T
    <tspan id="tspan1196" font-size="64.99999762%">q</tspan></tspan>
  </text>
  <text xml:space="preserve" x="514.90082" y="308.71454" id="text1035-6" stroke-width="0.26458" fill="#000000" font-family="sans-serif" font-size="14.11111px" font-weight="normal" font-style="normal">
   <tspan id="tspan1033-6" x="514.90082" y="308.71454" stroke-width="0.26458" font-size="22.57778px">......</tspan>
  </text>
  <text xml:space="preserve" x="746.7132" y="306.54758" id="text1035-6-9" stroke-width="0.26458" fill="#000000" font-family="sans-serif" font-size="14.11111px" font-weight="normal" font-style="normal">
   <tspan id="tspan1033-6-5" x="746.7132" y="306.54758" stroke-width="0.26458" font-size="22.57778px">......</tspan>
  </text>
 </g>
</svg>