<?xml version="1.0" encoding="utf-8" standalone="no"?>
<!DOCTYPE svg PUBLIC "-//W3C//DTD SVG 1.1//EN"
  "http://www.w3.org/Graphics/SVG/1.1/DTD/svg11.dtd">
<!-- Created with matplotlib (https://matplotlib.org/) -->
<svg height="293.76pt" version="1.1" viewBox="0 0 504 293.76" width="504pt" xmlns="http://www.w3.org/2000/svg" xmlns:xlink="http://www.w3.org/1999/xlink">
 <defs>
  <style type="text/css">
*{stroke-linecap:butt;stroke-linejoin:round;}
  </style>
 </defs>
 <g id="figure_1">
  <g id="patch_1">
   <path d="M 0 293.76 
L 504 293.76 
L 504 0 
L 0 0 
z
" style="fill:#ffffff;"/>
  </g>
  <g id="axes_1">
   <g id="patch_2">
    <path d="M 44.66 255.716267 
L 243.818573 255.716267 
L 243.818573 9.792 
L 44.66 9.792 
z
" style="fill:#ffffff;"/>
   </g>
   <g id="patch_3">
    <path clip-path="url(#pbdd5c86121)" d="M 44.66 251.031995 
L 61.903167 251.031995 
L 61.903167 241.663451 
L 44.66 241.663451 
z
" style="fill:url(#h75a0346e5b);"/>
   </g>
   <g id="patch_4">
    <path clip-path="url(#pbdd5c86121)" d="M 44.66 239.321316 
L 46.227561 239.321316 
L 46.227561 229.952772 
L 44.66 229.952772 
z
" style="fill:url(#h75a0346e5b);"/>
   </g>
   <g id="patch_5">
    <path clip-path="url(#pbdd5c86121)" d="M 44.66 227.610636 
L 102.659742 227.610636 
L 102.659742 218.242093 
L 44.66 218.242093 
z
" style="fill:url(#h75a0346e5b);"/>
   </g>
   <g id="patch_6">
    <path clip-path="url(#pbdd5c86121)" d="M 44.66 215.899957 
L 88.551697 215.899957 
L 88.551697 206.531413 
L 44.66 206.531413 
z
" style="fill:url(#h75a0346e5b);"/>
   </g>
   <g id="patch_7">
    <path clip-path="url(#pbdd5c86121)" d="M 44.66 204.189277 
L 86.984136 204.189277 
L 86.984136 194.820734 
L 44.66 194.820734 
z
" style="fill:url(#h75a0346e5b);"/>
   </g>
   <g id="patch_8">
    <path clip-path="url(#pbdd5c86121)" d="M 44.66 192.478598 
L 96.3895 192.478598 
L 96.3895 183.110055 
L 44.66 183.110055 
z
" style="fill:url(#h75a0346e5b);"/>
   </g>
   <g id="patch_9">
    <path clip-path="url(#pbdd5c86121)" d="M 44.66 180.767919 
L 55.632924 180.767919 
L 55.632924 171.399375 
L 44.66 171.399375 
z
" style="fill:url(#h75a0346e5b);"/>
   </g>
   <g id="patch_10">
    <path clip-path="url(#pbdd5c86121)" d="M 44.66 169.057239 
L 124.60559 169.057239 
L 124.60559 159.688696 
L 44.66 159.688696 
z
" style="fill:url(#h75a0346e5b);"/>
   </g>
   <g id="patch_11">
    <path clip-path="url(#pbdd5c86121)" d="M 44.66 157.34656 
L 85.416575 157.34656 
L 85.416575 147.978017 
L 44.66 147.978017 
z
" style="fill:url(#h75a0346e5b);"/>
   </g>
   <g id="patch_12">
    <path clip-path="url(#pbdd5c86121)" d="M 44.66 145.635881 
L 148.118999 145.635881 
L 148.118999 136.267337 
L 44.66 136.267337 
z
" style="fill:url(#h75a0346e5b);"/>
   </g>
   <g id="patch_13">
    <path clip-path="url(#pbdd5c86121)" d="M 44.66 133.925201 
L 69.740969 133.925201 
L 69.740969 124.556658 
L 44.66 124.556658 
z
" style="fill:url(#h75a0346e5b);"/>
   </g>
   <g id="patch_14">
    <path clip-path="url(#pbdd5c86121)" d="M 44.66 122.214522 
L 54.065364 122.214522 
L 54.065364 112.845978 
L 44.66 112.845978 
z
" style="fill:url(#h75a0346e5b);"/>
   </g>
   <g id="patch_15">
    <path clip-path="url(#pbdd5c86121)" d="M 44.66 110.503843 
L 90.119257 110.503843 
L 90.119257 101.135299 
L 44.66 101.135299 
z
" style="fill:url(#h75a0346e5b);"/>
   </g>
   <g id="patch_16">
    <path clip-path="url(#pbdd5c86121)" d="M 44.66 98.793163 
L 91.686818 98.793163 
L 91.686818 89.42462 
L 44.66 89.42462 
z
" style="fill:url(#h75a0346e5b);"/>
   </g>
   <g id="patch_17">
    <path clip-path="url(#pbdd5c86121)" d="M 44.66 87.082484 
L 144.983878 87.082484 
L 144.983878 77.71394 
L 44.66 77.71394 
z
" style="fill:url(#h75a0346e5b);"/>
   </g>
   <g id="patch_18">
    <path clip-path="url(#pbdd5c86121)" d="M 44.66 75.371804 
L 181.037771 75.371804 
L 181.037771 66.003261 
L 44.66 66.003261 
z
" style="fill:url(#h75a0346e5b);"/>
   </g>
   <g id="patch_19">
    <path clip-path="url(#pbdd5c86121)" d="M 44.66 63.661125 
L 71.30853 63.661125 
L 71.30853 54.292582 
L 44.66 54.292582 
z
" style="fill:url(#h75a0346e5b);"/>
   </g>
   <g id="patch_20">
    <path clip-path="url(#pbdd5c86121)" d="M 44.66 51.950446 
L 176.33509 51.950446 
L 176.33509 42.581902 
L 44.66 42.581902 
z
" style="fill:url(#h75a0346e5b);"/>
   </g>
   <g id="patch_21">
    <path clip-path="url(#pbdd5c86121)" d="M 44.66 40.239766 
L 118.335348 40.239766 
L 118.335348 30.871223 
L 44.66 30.871223 
z
" style="fill:url(#h75a0346e5b);"/>
   </g>
   <g id="patch_22">
    <path clip-path="url(#pbdd5c86121)" d="M 44.66 28.529087 
L 234.334832 28.529087 
L 234.334832 19.160543 
L 44.66 19.160543 
z
" style="fill:url(#h75a0346e5b);"/>
   </g>
   <g id="matplotlib.axis_1">
    <g id="xtick_1">
     <g id="line2d_1">
      <defs>
       <path d="M 0 0 
L 0 3.5 
" id="m130e39ed4c" style="stroke:#000000;stroke-width:0.8;"/>
      </defs>
      <g>
       <use style="stroke:#000000;stroke-width:0.8;" x="44.66" xlink:href="#m130e39ed4c" y="255.716267"/>
      </g>
     </g>
     <g id="text_1">
      <!-- 0 -->
      <defs>
       <path d="M 31.78125 66.40625 
Q 24.171875 66.40625 20.328125 58.90625 
Q 16.5 51.421875 16.5 36.375 
Q 16.5 21.390625 20.328125 13.890625 
Q 24.171875 6.390625 31.78125 6.390625 
Q 39.453125 6.390625 43.28125 13.890625 
Q 47.125 21.390625 47.125 36.375 
Q 47.125 51.421875 43.28125 58.90625 
Q 39.453125 66.40625 31.78125 66.40625 
z
M 31.78125 74.21875 
Q 44.046875 74.21875 50.515625 64.515625 
Q 56.984375 54.828125 56.984375 36.375 
Q 56.984375 17.96875 50.515625 8.265625 
Q 44.046875 -1.421875 31.78125 -1.421875 
Q 19.53125 -1.421875 13.0625 8.265625 
Q 6.59375 17.96875 6.59375 36.375 
Q 6.59375 54.828125 13.0625 64.515625 
Q 19.53125 74.21875 31.78125 74.21875 
z
" id="DejaVuSans-48"/>
      </defs>
      <g transform="translate(41.47875 270.314704)scale(0.1 -0.1)">
       <use xlink:href="#DejaVuSans-48"/>
      </g>
     </g>
    </g>
    <g id="xtick_2">
     <g id="line2d_2">
      <g>
       <use style="stroke:#000000;stroke-width:0.8;" x="83.849015" xlink:href="#m130e39ed4c" y="255.716267"/>
      </g>
     </g>
     <g id="text_2">
      <!-- 25 -->
      <defs>
       <path d="M 19.1875 8.296875 
L 53.609375 8.296875 
L 53.609375 0 
L 7.328125 0 
L 7.328125 8.296875 
Q 12.9375 14.109375 22.625 23.890625 
Q 32.328125 33.6875 34.8125 36.53125 
Q 39.546875 41.84375 41.421875 45.53125 
Q 43.3125 49.21875 43.3125 52.78125 
Q 43.3125 58.59375 39.234375 62.25 
Q 35.15625 65.921875 28.609375 65.921875 
Q 23.96875 65.921875 18.8125 64.3125 
Q 13.671875 62.703125 7.8125 59.421875 
L 7.8125 69.390625 
Q 13.765625 71.78125 18.9375 73 
Q 24.125 74.21875 28.421875 74.21875 
Q 39.75 74.21875 46.484375 68.546875 
Q 53.21875 62.890625 53.21875 53.421875 
Q 53.21875 48.921875 51.53125 44.890625 
Q 49.859375 40.875 45.40625 35.40625 
Q 44.1875 33.984375 37.640625 27.21875 
Q 31.109375 20.453125 19.1875 8.296875 
z
" id="DejaVuSans-50"/>
       <path d="M 10.796875 72.90625 
L 49.515625 72.90625 
L 49.515625 64.59375 
L 19.828125 64.59375 
L 19.828125 46.734375 
Q 21.96875 47.46875 24.109375 47.828125 
Q 26.265625 48.1875 28.421875 48.1875 
Q 40.625 48.1875 47.75 41.5 
Q 54.890625 34.8125 54.890625 23.390625 
Q 54.890625 11.625 47.5625 5.09375 
Q 40.234375 -1.421875 26.90625 -1.421875 
Q 22.3125 -1.421875 17.546875 -0.640625 
Q 12.796875 0.140625 7.71875 1.703125 
L 7.71875 11.625 
Q 12.109375 9.234375 16.796875 8.0625 
Q 21.484375 6.890625 26.703125 6.890625 
Q 35.15625 6.890625 40.078125 11.328125 
Q 45.015625 15.765625 45.015625 23.390625 
Q 45.015625 31 40.078125 35.4375 
Q 35.15625 39.890625 26.703125 39.890625 
Q 22.75 39.890625 18.8125 39.015625 
Q 14.890625 38.140625 10.796875 36.28125 
z
" id="DejaVuSans-53"/>
      </defs>
      <g transform="translate(77.486515 270.314704)scale(0.1 -0.1)">
       <use xlink:href="#DejaVuSans-50"/>
       <use x="63.623047" xlink:href="#DejaVuSans-53"/>
      </g>
     </g>
    </g>
    <g id="xtick_3">
     <g id="line2d_3">
      <g>
       <use style="stroke:#000000;stroke-width:0.8;" x="123.03803" xlink:href="#m130e39ed4c" y="255.716267"/>
      </g>
     </g>
     <g id="text_3">
      <!-- 50 -->
      <g transform="translate(116.67553 270.314704)scale(0.1 -0.1)">
       <use xlink:href="#DejaVuSans-53"/>
       <use x="63.623047" xlink:href="#DejaVuSans-48"/>
      </g>
     </g>
    </g>
    <g id="xtick_4">
     <g id="line2d_4">
      <g>
       <use style="stroke:#000000;stroke-width:0.8;" x="162.227044" xlink:href="#m130e39ed4c" y="255.716267"/>
      </g>
     </g>
     <g id="text_4">
      <!-- 75 -->
      <defs>
       <path d="M 8.203125 72.90625 
L 55.078125 72.90625 
L 55.078125 68.703125 
L 28.609375 0 
L 18.3125 0 
L 43.21875 64.59375 
L 8.203125 64.59375 
z
" id="DejaVuSans-55"/>
      </defs>
      <g transform="translate(155.864544 270.314704)scale(0.1 -0.1)">
       <use xlink:href="#DejaVuSans-55"/>
       <use x="63.623047" xlink:href="#DejaVuSans-53"/>
      </g>
     </g>
    </g>
    <g id="xtick_5">
     <g id="line2d_5">
      <g>
       <use style="stroke:#000000;stroke-width:0.8;" x="201.416059" xlink:href="#m130e39ed4c" y="255.716267"/>
      </g>
     </g>
     <g id="text_5">
      <!-- 100 -->
      <defs>
       <path d="M 12.40625 8.296875 
L 28.515625 8.296875 
L 28.515625 63.921875 
L 10.984375 60.40625 
L 10.984375 69.390625 
L 28.421875 72.90625 
L 38.28125 72.90625 
L 38.28125 8.296875 
L 54.390625 8.296875 
L 54.390625 0 
L 12.40625 0 
z
" id="DejaVuSans-49"/>
      </defs>
      <g transform="translate(191.872309 270.314704)scale(0.1 -0.1)">
       <use xlink:href="#DejaVuSans-49"/>
       <use x="63.623047" xlink:href="#DejaVuSans-48"/>
       <use x="127.246094" xlink:href="#DejaVuSans-48"/>
      </g>
     </g>
    </g>
    <g id="xtick_6">
     <g id="line2d_6">
      <g>
       <use style="stroke:#000000;stroke-width:0.8;" x="240.605074" xlink:href="#m130e39ed4c" y="255.716267"/>
      </g>
     </g>
     <g id="text_6">
      <!-- 125 -->
      <g transform="translate(231.061324 270.314704)scale(0.1 -0.1)">
       <use xlink:href="#DejaVuSans-49"/>
       <use x="63.623047" xlink:href="#DejaVuSans-50"/>
       <use x="127.246094" xlink:href="#DejaVuSans-53"/>
      </g>
     </g>
    </g>
    <g id="text_7">
     <!-- query length -->
     <defs>
      <path d="M 14.796875 27.296875 
Q 14.796875 17.390625 18.875 11.75 
Q 22.953125 6.109375 30.078125 6.109375 
Q 37.203125 6.109375 41.296875 11.75 
Q 45.40625 17.390625 45.40625 27.296875 
Q 45.40625 37.203125 41.296875 42.84375 
Q 37.203125 48.484375 30.078125 48.484375 
Q 22.953125 48.484375 18.875 42.84375 
Q 14.796875 37.203125 14.796875 27.296875 
z
M 45.40625 8.203125 
Q 42.578125 3.328125 38.25 0.953125 
Q 33.9375 -1.421875 27.875 -1.421875 
Q 17.96875 -1.421875 11.734375 6.484375 
Q 5.515625 14.40625 5.515625 27.296875 
Q 5.515625 40.1875 11.734375 48.09375 
Q 17.96875 56 27.875 56 
Q 33.9375 56 38.25 53.625 
Q 42.578125 51.265625 45.40625 46.390625 
L 45.40625 54.6875 
L 54.390625 54.6875 
L 54.390625 -20.796875 
L 45.40625 -20.796875 
z
" id="DejaVuSans-113"/>
      <path d="M 8.5 21.578125 
L 8.5 54.6875 
L 17.484375 54.6875 
L 17.484375 21.921875 
Q 17.484375 14.15625 20.5 10.265625 
Q 23.53125 6.390625 29.59375 6.390625 
Q 36.859375 6.390625 41.078125 11.03125 
Q 45.3125 15.671875 45.3125 23.6875 
L 45.3125 54.6875 
L 54.296875 54.6875 
L 54.296875 0 
L 45.3125 0 
L 45.3125 8.40625 
Q 42.046875 3.421875 37.71875 1 
Q 33.40625 -1.421875 27.6875 -1.421875 
Q 18.265625 -1.421875 13.375 4.4375 
Q 8.5 10.296875 8.5 21.578125 
z
M 31.109375 56 
z
" id="DejaVuSans-117"/>
      <path d="M 56.203125 29.59375 
L 56.203125 25.203125 
L 14.890625 25.203125 
Q 15.484375 15.921875 20.484375 11.0625 
Q 25.484375 6.203125 34.421875 6.203125 
Q 39.59375 6.203125 44.453125 7.46875 
Q 49.3125 8.734375 54.109375 11.28125 
L 54.109375 2.78125 
Q 49.265625 0.734375 44.1875 -0.34375 
Q 39.109375 -1.421875 33.890625 -1.421875 
Q 20.796875 -1.421875 13.15625 6.1875 
Q 5.515625 13.8125 5.515625 26.8125 
Q 5.515625 40.234375 12.765625 48.109375 
Q 20.015625 56 32.328125 56 
Q 43.359375 56 49.78125 48.890625 
Q 56.203125 41.796875 56.203125 29.59375 
z
M 47.21875 32.234375 
Q 47.125 39.59375 43.09375 43.984375 
Q 39.0625 48.390625 32.421875 48.390625 
Q 24.90625 48.390625 20.390625 44.140625 
Q 15.875 39.890625 15.1875 32.171875 
z
" id="DejaVuSans-101"/>
      <path d="M 41.109375 46.296875 
Q 39.59375 47.171875 37.8125 47.578125 
Q 36.03125 48 33.890625 48 
Q 26.265625 48 22.1875 43.046875 
Q 18.109375 38.09375 18.109375 28.8125 
L 18.109375 0 
L 9.078125 0 
L 9.078125 54.6875 
L 18.109375 54.6875 
L 18.109375 46.1875 
Q 20.953125 51.171875 25.484375 53.578125 
Q 30.03125 56 36.53125 56 
Q 37.453125 56 38.578125 55.875 
Q 39.703125 55.765625 41.0625 55.515625 
z
" id="DejaVuSans-114"/>
      <path d="M 32.171875 -5.078125 
Q 28.375 -14.84375 24.75 -17.8125 
Q 21.140625 -20.796875 15.09375 -20.796875 
L 7.90625 -20.796875 
L 7.90625 -13.28125 
L 13.1875 -13.28125 
Q 16.890625 -13.28125 18.9375 -11.515625 
Q 21 -9.765625 23.484375 -3.21875 
L 25.09375 0.875 
L 2.984375 54.6875 
L 12.5 54.6875 
L 29.59375 11.921875 
L 46.6875 54.6875 
L 56.203125 54.6875 
z
" id="DejaVuSans-121"/>
      <path id="DejaVuSans-32"/>
      <path d="M 9.421875 75.984375 
L 18.40625 75.984375 
L 18.40625 0 
L 9.421875 0 
z
" id="DejaVuSans-108"/>
      <path d="M 54.890625 33.015625 
L 54.890625 0 
L 45.90625 0 
L 45.90625 32.71875 
Q 45.90625 40.484375 42.875 44.328125 
Q 39.84375 48.1875 33.796875 48.1875 
Q 26.515625 48.1875 22.3125 43.546875 
Q 18.109375 38.921875 18.109375 30.90625 
L 18.109375 0 
L 9.078125 0 
L 9.078125 54.6875 
L 18.109375 54.6875 
L 18.109375 46.1875 
Q 21.34375 51.125 25.703125 53.5625 
Q 30.078125 56 35.796875 56 
Q 45.21875 56 50.046875 50.171875 
Q 54.890625 44.34375 54.890625 33.015625 
z
" id="DejaVuSans-110"/>
      <path d="M 45.40625 27.984375 
Q 45.40625 37.75 41.375 43.109375 
Q 37.359375 48.484375 30.078125 48.484375 
Q 22.859375 48.484375 18.828125 43.109375 
Q 14.796875 37.75 14.796875 27.984375 
Q 14.796875 18.265625 18.828125 12.890625 
Q 22.859375 7.515625 30.078125 7.515625 
Q 37.359375 7.515625 41.375 12.890625 
Q 45.40625 18.265625 45.40625 27.984375 
z
M 54.390625 6.78125 
Q 54.390625 -7.171875 48.1875 -13.984375 
Q 42 -20.796875 29.203125 -20.796875 
Q 24.46875 -20.796875 20.265625 -20.09375 
Q 16.0625 -19.390625 12.109375 -17.921875 
L 12.109375 -9.1875 
Q 16.0625 -11.328125 19.921875 -12.34375 
Q 23.78125 -13.375 27.78125 -13.375 
Q 36.625 -13.375 41.015625 -8.765625 
Q 45.40625 -4.15625 45.40625 5.171875 
L 45.40625 9.625 
Q 42.625 4.78125 38.28125 2.390625 
Q 33.9375 0 27.875 0 
Q 17.828125 0 11.671875 7.65625 
Q 5.515625 15.328125 5.515625 27.984375 
Q 5.515625 40.671875 11.671875 48.328125 
Q 17.828125 56 27.875 56 
Q 33.9375 56 38.28125 53.609375 
Q 42.625 51.21875 45.40625 46.390625 
L 45.40625 54.6875 
L 54.390625 54.6875 
z
" id="DejaVuSans-103"/>
      <path d="M 18.3125 70.21875 
L 18.3125 54.6875 
L 36.8125 54.6875 
L 36.8125 47.703125 
L 18.3125 47.703125 
L 18.3125 18.015625 
Q 18.3125 11.328125 20.140625 9.421875 
Q 21.96875 7.515625 27.59375 7.515625 
L 36.8125 7.515625 
L 36.8125 0 
L 27.59375 0 
Q 17.1875 0 13.234375 3.875 
Q 9.28125 7.765625 9.28125 18.015625 
L 9.28125 47.703125 
L 2.6875 47.703125 
L 2.6875 54.6875 
L 9.28125 54.6875 
L 9.28125 70.21875 
z
" id="DejaVuSans-116"/>
      <path d="M 54.890625 33.015625 
L 54.890625 0 
L 45.90625 0 
L 45.90625 32.71875 
Q 45.90625 40.484375 42.875 44.328125 
Q 39.84375 48.1875 33.796875 48.1875 
Q 26.515625 48.1875 22.3125 43.546875 
Q 18.109375 38.921875 18.109375 30.90625 
L 18.109375 0 
L 9.078125 0 
L 9.078125 75.984375 
L 18.109375 75.984375 
L 18.109375 46.1875 
Q 21.34375 51.125 25.703125 53.5625 
Q 30.078125 56 35.796875 56 
Q 45.21875 56 50.046875 50.171875 
Q 54.890625 44.34375 54.890625 33.015625 
z
" id="DejaVuSans-104"/>
     </defs>
     <g transform="translate(112.278349 283.992829)scale(0.1 -0.1)">
      <use xlink:href="#DejaVuSans-113"/>
      <use x="63.476562" xlink:href="#DejaVuSans-117"/>
      <use x="126.855469" xlink:href="#DejaVuSans-101"/>
      <use x="188.378906" xlink:href="#DejaVuSans-114"/>
      <use x="229.492188" xlink:href="#DejaVuSans-121"/>
      <use x="288.671875" xlink:href="#DejaVuSans-32"/>
      <use x="320.458984" xlink:href="#DejaVuSans-108"/>
      <use x="348.242188" xlink:href="#DejaVuSans-101"/>
      <use x="409.765625" xlink:href="#DejaVuSans-110"/>
      <use x="473.144531" xlink:href="#DejaVuSans-103"/>
      <use x="536.621094" xlink:href="#DejaVuSans-116"/>
      <use x="575.830078" xlink:href="#DejaVuSans-104"/>
     </g>
    </g>
   </g>
   <g id="matplotlib.axis_2">
    <g id="ytick_1">
     <g id="line2d_7">
      <defs>
       <path d="M 0 0 
L -3.5 0 
" id="m46dd58bb9f" style="stroke:#000000;stroke-width:0.8;"/>
      </defs>
      <g>
       <use style="stroke:#000000;stroke-width:0.8;" x="44.66" xlink:href="#m46dd58bb9f" y="246.347723"/>
      </g>
     </g>
     <g id="text_8">
      <!-- 1 -->
      <g transform="translate(31.2975 250.146942)scale(0.1 -0.1)">
       <use xlink:href="#DejaVuSans-49"/>
      </g>
     </g>
    </g>
    <g id="ytick_2">
     <g id="line2d_8">
      <g>
       <use style="stroke:#000000;stroke-width:0.8;" x="44.66" xlink:href="#m46dd58bb9f" y="234.637044"/>
      </g>
     </g>
     <g id="text_9">
      <!-- 2 -->
      <g transform="translate(31.2975 238.436263)scale(0.1 -0.1)">
       <use xlink:href="#DejaVuSans-50"/>
      </g>
     </g>
    </g>
    <g id="ytick_3">
     <g id="line2d_9">
      <g>
       <use style="stroke:#000000;stroke-width:0.8;" x="44.66" xlink:href="#m46dd58bb9f" y="222.926364"/>
      </g>
     </g>
     <g id="text_10">
      <!-- 3 -->
      <defs>
       <path d="M 40.578125 39.3125 
Q 47.65625 37.796875 51.625 33 
Q 55.609375 28.21875 55.609375 21.1875 
Q 55.609375 10.40625 48.1875 4.484375 
Q 40.765625 -1.421875 27.09375 -1.421875 
Q 22.515625 -1.421875 17.65625 -0.515625 
Q 12.796875 0.390625 7.625 2.203125 
L 7.625 11.71875 
Q 11.71875 9.328125 16.59375 8.109375 
Q 21.484375 6.890625 26.8125 6.890625 
Q 36.078125 6.890625 40.9375 10.546875 
Q 45.796875 14.203125 45.796875 21.1875 
Q 45.796875 27.640625 41.28125 31.265625 
Q 36.765625 34.90625 28.71875 34.90625 
L 20.21875 34.90625 
L 20.21875 43.015625 
L 29.109375 43.015625 
Q 36.375 43.015625 40.234375 45.921875 
Q 44.09375 48.828125 44.09375 54.296875 
Q 44.09375 59.90625 40.109375 62.90625 
Q 36.140625 65.921875 28.71875 65.921875 
Q 24.65625 65.921875 20.015625 65.03125 
Q 15.375 64.15625 9.8125 62.3125 
L 9.8125 71.09375 
Q 15.4375 72.65625 20.34375 73.4375 
Q 25.25 74.21875 29.59375 74.21875 
Q 40.828125 74.21875 47.359375 69.109375 
Q 53.90625 64.015625 53.90625 55.328125 
Q 53.90625 49.265625 50.4375 45.09375 
Q 46.96875 40.921875 40.578125 39.3125 
z
" id="DejaVuSans-51"/>
      </defs>
      <g transform="translate(31.2975 226.725583)scale(0.1 -0.1)">
       <use xlink:href="#DejaVuSans-51"/>
      </g>
     </g>
    </g>
    <g id="ytick_4">
     <g id="line2d_10">
      <g>
       <use style="stroke:#000000;stroke-width:0.8;" x="44.66" xlink:href="#m46dd58bb9f" y="211.215685"/>
      </g>
     </g>
     <g id="text_11">
      <!-- 4 -->
      <defs>
       <path d="M 37.796875 64.3125 
L 12.890625 25.390625 
L 37.796875 25.390625 
z
M 35.203125 72.90625 
L 47.609375 72.90625 
L 47.609375 25.390625 
L 58.015625 25.390625 
L 58.015625 17.1875 
L 47.609375 17.1875 
L 47.609375 0 
L 37.796875 0 
L 37.796875 17.1875 
L 4.890625 17.1875 
L 4.890625 26.703125 
z
" id="DejaVuSans-52"/>
      </defs>
      <g transform="translate(31.2975 215.014904)scale(0.1 -0.1)">
       <use xlink:href="#DejaVuSans-52"/>
      </g>
     </g>
    </g>
    <g id="ytick_5">
     <g id="line2d_11">
      <g>
       <use style="stroke:#000000;stroke-width:0.8;" x="44.66" xlink:href="#m46dd58bb9f" y="199.505006"/>
      </g>
     </g>
     <g id="text_12">
      <!-- 5 -->
      <g transform="translate(31.2975 203.304224)scale(0.1 -0.1)">
       <use xlink:href="#DejaVuSans-53"/>
      </g>
     </g>
    </g>
    <g id="ytick_6">
     <g id="line2d_12">
      <g>
       <use style="stroke:#000000;stroke-width:0.8;" x="44.66" xlink:href="#m46dd58bb9f" y="187.794326"/>
      </g>
     </g>
     <g id="text_13">
      <!-- 6 -->
      <defs>
       <path d="M 33.015625 40.375 
Q 26.375 40.375 22.484375 35.828125 
Q 18.609375 31.296875 18.609375 23.390625 
Q 18.609375 15.53125 22.484375 10.953125 
Q 26.375 6.390625 33.015625 6.390625 
Q 39.65625 6.390625 43.53125 10.953125 
Q 47.40625 15.53125 47.40625 23.390625 
Q 47.40625 31.296875 43.53125 35.828125 
Q 39.65625 40.375 33.015625 40.375 
z
M 52.59375 71.296875 
L 52.59375 62.3125 
Q 48.875 64.0625 45.09375 64.984375 
Q 41.3125 65.921875 37.59375 65.921875 
Q 27.828125 65.921875 22.671875 59.328125 
Q 17.53125 52.734375 16.796875 39.40625 
Q 19.671875 43.65625 24.015625 45.921875 
Q 28.375 48.1875 33.59375 48.1875 
Q 44.578125 48.1875 50.953125 41.515625 
Q 57.328125 34.859375 57.328125 23.390625 
Q 57.328125 12.15625 50.6875 5.359375 
Q 44.046875 -1.421875 33.015625 -1.421875 
Q 20.359375 -1.421875 13.671875 8.265625 
Q 6.984375 17.96875 6.984375 36.375 
Q 6.984375 53.65625 15.1875 63.9375 
Q 23.390625 74.21875 37.203125 74.21875 
Q 40.921875 74.21875 44.703125 73.484375 
Q 48.484375 72.75 52.59375 71.296875 
z
" id="DejaVuSans-54"/>
      </defs>
      <g transform="translate(31.2975 191.593545)scale(0.1 -0.1)">
       <use xlink:href="#DejaVuSans-54"/>
      </g>
     </g>
    </g>
    <g id="ytick_7">
     <g id="line2d_13">
      <g>
       <use style="stroke:#000000;stroke-width:0.8;" x="44.66" xlink:href="#m46dd58bb9f" y="176.083647"/>
      </g>
     </g>
     <g id="text_14">
      <!-- 7 -->
      <g transform="translate(31.2975 179.882866)scale(0.1 -0.1)">
       <use xlink:href="#DejaVuSans-55"/>
      </g>
     </g>
    </g>
    <g id="ytick_8">
     <g id="line2d_14">
      <g>
       <use style="stroke:#000000;stroke-width:0.8;" x="44.66" xlink:href="#m46dd58bb9f" y="164.372968"/>
      </g>
     </g>
     <g id="text_15">
      <!-- 8 -->
      <defs>
       <path d="M 31.78125 34.625 
Q 24.75 34.625 20.71875 30.859375 
Q 16.703125 27.09375 16.703125 20.515625 
Q 16.703125 13.921875 20.71875 10.15625 
Q 24.75 6.390625 31.78125 6.390625 
Q 38.8125 6.390625 42.859375 10.171875 
Q 46.921875 13.96875 46.921875 20.515625 
Q 46.921875 27.09375 42.890625 30.859375 
Q 38.875 34.625 31.78125 34.625 
z
M 21.921875 38.8125 
Q 15.578125 40.375 12.03125 44.71875 
Q 8.5 49.078125 8.5 55.328125 
Q 8.5 64.0625 14.71875 69.140625 
Q 20.953125 74.21875 31.78125 74.21875 
Q 42.671875 74.21875 48.875 69.140625 
Q 55.078125 64.0625 55.078125 55.328125 
Q 55.078125 49.078125 51.53125 44.71875 
Q 48 40.375 41.703125 38.8125 
Q 48.828125 37.15625 52.796875 32.3125 
Q 56.78125 27.484375 56.78125 20.515625 
Q 56.78125 9.90625 50.3125 4.234375 
Q 43.84375 -1.421875 31.78125 -1.421875 
Q 19.734375 -1.421875 13.25 4.234375 
Q 6.78125 9.90625 6.78125 20.515625 
Q 6.78125 27.484375 10.78125 32.3125 
Q 14.796875 37.15625 21.921875 38.8125 
z
M 18.3125 54.390625 
Q 18.3125 48.734375 21.84375 45.5625 
Q 25.390625 42.390625 31.78125 42.390625 
Q 38.140625 42.390625 41.71875 45.5625 
Q 45.3125 48.734375 45.3125 54.390625 
Q 45.3125 60.0625 41.71875 63.234375 
Q 38.140625 66.40625 31.78125 66.40625 
Q 25.390625 66.40625 21.84375 63.234375 
Q 18.3125 60.0625 18.3125 54.390625 
z
" id="DejaVuSans-56"/>
      </defs>
      <g transform="translate(31.2975 168.172186)scale(0.1 -0.1)">
       <use xlink:href="#DejaVuSans-56"/>
      </g>
     </g>
    </g>
    <g id="ytick_9">
     <g id="line2d_15">
      <g>
       <use style="stroke:#000000;stroke-width:0.8;" x="44.66" xlink:href="#m46dd58bb9f" y="152.662288"/>
      </g>
     </g>
     <g id="text_16">
      <!-- 9 -->
      <defs>
       <path d="M 10.984375 1.515625 
L 10.984375 10.5 
Q 14.703125 8.734375 18.5 7.8125 
Q 22.3125 6.890625 25.984375 6.890625 
Q 35.75 6.890625 40.890625 13.453125 
Q 46.046875 20.015625 46.78125 33.40625 
Q 43.953125 29.203125 39.59375 26.953125 
Q 35.25 24.703125 29.984375 24.703125 
Q 19.046875 24.703125 12.671875 31.3125 
Q 6.296875 37.9375 6.296875 49.421875 
Q 6.296875 60.640625 12.9375 67.421875 
Q 19.578125 74.21875 30.609375 74.21875 
Q 43.265625 74.21875 49.921875 64.515625 
Q 56.59375 54.828125 56.59375 36.375 
Q 56.59375 19.140625 48.40625 8.859375 
Q 40.234375 -1.421875 26.421875 -1.421875 
Q 22.703125 -1.421875 18.890625 -0.6875 
Q 15.09375 0.046875 10.984375 1.515625 
z
M 30.609375 32.421875 
Q 37.25 32.421875 41.125 36.953125 
Q 45.015625 41.5 45.015625 49.421875 
Q 45.015625 57.28125 41.125 61.84375 
Q 37.25 66.40625 30.609375 66.40625 
Q 23.96875 66.40625 20.09375 61.84375 
Q 16.21875 57.28125 16.21875 49.421875 
Q 16.21875 41.5 20.09375 36.953125 
Q 23.96875 32.421875 30.609375 32.421875 
z
" id="DejaVuSans-57"/>
      </defs>
      <g transform="translate(31.2975 156.461507)scale(0.1 -0.1)">
       <use xlink:href="#DejaVuSans-57"/>
      </g>
     </g>
    </g>
    <g id="ytick_10">
     <g id="line2d_16">
      <g>
       <use style="stroke:#000000;stroke-width:0.8;" x="44.66" xlink:href="#m46dd58bb9f" y="140.951609"/>
      </g>
     </g>
     <g id="text_17">
      <!-- 10 -->
      <g transform="translate(24.935 144.750828)scale(0.1 -0.1)">
       <use xlink:href="#DejaVuSans-49"/>
       <use x="63.623047" xlink:href="#DejaVuSans-48"/>
      </g>
     </g>
    </g>
    <g id="ytick_11">
     <g id="line2d_17">
      <g>
       <use style="stroke:#000000;stroke-width:0.8;" x="44.66" xlink:href="#m46dd58bb9f" y="129.24093"/>
      </g>
     </g>
     <g id="text_18">
      <!-- 11 -->
      <g transform="translate(24.935 133.040148)scale(0.1 -0.1)">
       <use xlink:href="#DejaVuSans-49"/>
       <use x="63.623047" xlink:href="#DejaVuSans-49"/>
      </g>
     </g>
    </g>
    <g id="ytick_12">
     <g id="line2d_18">
      <g>
       <use style="stroke:#000000;stroke-width:0.8;" x="44.66" xlink:href="#m46dd58bb9f" y="117.53025"/>
      </g>
     </g>
     <g id="text_19">
      <!-- 12 -->
      <g transform="translate(24.935 121.329469)scale(0.1 -0.1)">
       <use xlink:href="#DejaVuSans-49"/>
       <use x="63.623047" xlink:href="#DejaVuSans-50"/>
      </g>
     </g>
    </g>
    <g id="ytick_13">
     <g id="line2d_19">
      <g>
       <use style="stroke:#000000;stroke-width:0.8;" x="44.66" xlink:href="#m46dd58bb9f" y="105.819571"/>
      </g>
     </g>
     <g id="text_20">
      <!-- 13 -->
      <g transform="translate(24.935 109.61879)scale(0.1 -0.1)">
       <use xlink:href="#DejaVuSans-49"/>
       <use x="63.623047" xlink:href="#DejaVuSans-51"/>
      </g>
     </g>
    </g>
    <g id="ytick_14">
     <g id="line2d_20">
      <g>
       <use style="stroke:#000000;stroke-width:0.8;" x="44.66" xlink:href="#m46dd58bb9f" y="94.108891"/>
      </g>
     </g>
     <g id="text_21">
      <!-- 14 -->
      <g transform="translate(24.935 97.90811)scale(0.1 -0.1)">
       <use xlink:href="#DejaVuSans-49"/>
       <use x="63.623047" xlink:href="#DejaVuSans-52"/>
      </g>
     </g>
    </g>
    <g id="ytick_15">
     <g id="line2d_21">
      <g>
       <use style="stroke:#000000;stroke-width:0.8;" x="44.66" xlink:href="#m46dd58bb9f" y="82.398212"/>
      </g>
     </g>
     <g id="text_22">
      <!-- 15 -->
      <g transform="translate(24.935 86.197431)scale(0.1 -0.1)">
       <use xlink:href="#DejaVuSans-49"/>
       <use x="63.623047" xlink:href="#DejaVuSans-53"/>
      </g>
     </g>
    </g>
    <g id="ytick_16">
     <g id="line2d_22">
      <g>
       <use style="stroke:#000000;stroke-width:0.8;" x="44.66" xlink:href="#m46dd58bb9f" y="70.687533"/>
      </g>
     </g>
     <g id="text_23">
      <!-- 16 -->
      <g transform="translate(24.935 74.486751)scale(0.1 -0.1)">
       <use xlink:href="#DejaVuSans-49"/>
       <use x="63.623047" xlink:href="#DejaVuSans-54"/>
      </g>
     </g>
    </g>
    <g id="ytick_17">
     <g id="line2d_23">
      <g>
       <use style="stroke:#000000;stroke-width:0.8;" x="44.66" xlink:href="#m46dd58bb9f" y="58.976853"/>
      </g>
     </g>
     <g id="text_24">
      <!-- 17 -->
      <g transform="translate(24.935 62.776072)scale(0.1 -0.1)">
       <use xlink:href="#DejaVuSans-49"/>
       <use x="63.623047" xlink:href="#DejaVuSans-55"/>
      </g>
     </g>
    </g>
    <g id="ytick_18">
     <g id="line2d_24">
      <g>
       <use style="stroke:#000000;stroke-width:0.8;" x="44.66" xlink:href="#m46dd58bb9f" y="47.266174"/>
      </g>
     </g>
     <g id="text_25">
      <!-- 18 -->
      <g transform="translate(24.935 51.065393)scale(0.1 -0.1)">
       <use xlink:href="#DejaVuSans-49"/>
       <use x="63.623047" xlink:href="#DejaVuSans-56"/>
      </g>
     </g>
    </g>
    <g id="ytick_19">
     <g id="line2d_25">
      <g>
       <use style="stroke:#000000;stroke-width:0.8;" x="44.66" xlink:href="#m46dd58bb9f" y="35.555495"/>
      </g>
     </g>
     <g id="text_26">
      <!-- 19 -->
      <g transform="translate(24.935 39.354713)scale(0.1 -0.1)">
       <use xlink:href="#DejaVuSans-49"/>
       <use x="63.623047" xlink:href="#DejaVuSans-57"/>
      </g>
     </g>
    </g>
    <g id="ytick_20">
     <g id="line2d_26">
      <g>
       <use style="stroke:#000000;stroke-width:0.8;" x="44.66" xlink:href="#m46dd58bb9f" y="23.844815"/>
      </g>
     </g>
     <g id="text_27">
      <!-- 20 -->
      <g transform="translate(24.935 27.644034)scale(0.1 -0.1)">
       <use xlink:href="#DejaVuSans-50"/>
       <use x="63.623047" xlink:href="#DejaVuSans-48"/>
      </g>
     </g>
    </g>
    <g id="text_28">
     <!-- query ID -->
     <defs>
      <path d="M 9.8125 72.90625 
L 19.671875 72.90625 
L 19.671875 0 
L 9.8125 0 
z
" id="DejaVuSans-73"/>
      <path d="M 19.671875 64.796875 
L 19.671875 8.109375 
L 31.59375 8.109375 
Q 46.6875 8.109375 53.6875 14.9375 
Q 60.6875 21.78125 60.6875 36.53125 
Q 60.6875 51.171875 53.6875 57.984375 
Q 46.6875 64.796875 31.59375 64.796875 
z
M 9.8125 72.90625 
L 30.078125 72.90625 
Q 51.265625 72.90625 61.171875 64.09375 
Q 71.09375 55.28125 71.09375 36.53125 
Q 71.09375 17.671875 61.125 8.828125 
Q 51.171875 0 30.078125 0 
L 9.8125 0 
z
" id="DejaVuSans-68"/>
     </defs>
     <g transform="translate(18.855313 154.102571)rotate(-90)scale(0.1 -0.1)">
      <use xlink:href="#DejaVuSans-113"/>
      <use x="63.476562" xlink:href="#DejaVuSans-117"/>
      <use x="126.855469" xlink:href="#DejaVuSans-101"/>
      <use x="188.378906" xlink:href="#DejaVuSans-114"/>
      <use x="229.492188" xlink:href="#DejaVuSans-121"/>
      <use x="288.671875" xlink:href="#DejaVuSans-32"/>
      <use x="320.458984" xlink:href="#DejaVuSans-73"/>
      <use x="349.951172" xlink:href="#DejaVuSans-68"/>
     </g>
    </g>
   </g>
   <g id="patch_23">
    <path d="M 44.66 255.716267 
L 44.66 9.792 
" style="fill:none;stroke:#000000;stroke-linecap:square;stroke-linejoin:miter;stroke-width:0.8;"/>
   </g>
   <g id="patch_24">
    <path d="M 243.818573 255.716267 
L 243.818573 9.792 
" style="fill:none;stroke:#000000;stroke-linecap:square;stroke-linejoin:miter;stroke-width:0.8;"/>
   </g>
   <g id="patch_25">
    <path d="M 44.66 255.716267 
L 243.818573 255.716267 
" style="fill:none;stroke:#000000;stroke-linecap:square;stroke-linejoin:miter;stroke-width:0.8;"/>
   </g>
   <g id="patch_26">
    <path d="M 44.66 9.792 
L 243.818573 9.792 
" style="fill:none;stroke:#000000;stroke-linecap:square;stroke-linejoin:miter;stroke-width:0.8;"/>
   </g>
  </g>
  <g id="axes_2">
   <g id="patch_27">
    <path d="M 288.388573 255.716267 
L 487.547146 255.716267 
L 487.547146 9.792 
L 288.388573 9.792 
z
" style="fill:#ffffff;"/>
   </g>
   <g id="patch_28">
    <path clip-path="url(#p7ab8553ec5)" d="M 288.388573 254.076772 
L 472.664463 254.076772 
L 472.664463 250.797781 
L 288.388573 250.797781 
z
" style="fill:url(#h75a0346e5b);"/>
   </g>
   <g id="patch_29">
    <path clip-path="url(#p7ab8553ec5)" d="M 288.388573 249.978034 
L 478.063405 249.978034 
L 478.063405 246.699044 
L 288.388573 246.699044 
z
" style="fill:url(#h75a0346e5b);"/>
   </g>
   <g id="patch_30">
    <path clip-path="url(#p7ab8553ec5)" d="M 288.388573 245.879296 
L 461.919255 245.879296 
L 461.919255 242.600306 
L 288.388573 242.600306 
z
" style="fill:url(#h75a0346e5b);"/>
   </g>
   <g id="patch_31">
    <path clip-path="url(#p7ab8553ec5)" d="M 288.388573 241.780558 
L 464.747466 241.780558 
L 464.747466 238.501568 
L 288.388573 238.501568 
z
" style="fill:url(#h75a0346e5b);"/>
   </g>
   <g id="patch_32">
    <path clip-path="url(#p7ab8553ec5)" d="M 288.388573 237.68182 
L 450.889751 237.68182 
L 450.889751 234.40283 
L 288.388573 234.40283 
z
" style="fill:url(#h75a0346e5b);"/>
   </g>
   <g id="patch_33">
    <path clip-path="url(#p7ab8553ec5)" d="M 288.388573 233.583083 
L 450.015129 233.583083 
L 450.015129 230.304092 
L 288.388573 230.304092 
z
" style="fill:url(#h75a0346e5b);"/>
   </g>
   <g id="patch_34">
    <path clip-path="url(#p7ab8553ec5)" d="M 288.388573 229.484345 
L 446.383725 229.484345 
L 446.383725 226.205355 
L 288.388573 226.205355 
z
" style="fill:url(#h75a0346e5b);"/>
   </g>
   <g id="patch_35">
    <path clip-path="url(#p7ab8553ec5)" d="M 288.388573 225.385607 
L 440.518793 225.385607 
L 440.518793 222.106617 
L 288.388573 222.106617 
z
" style="fill:url(#h75a0346e5b);"/>
   </g>
   <g id="patch_36">
    <path clip-path="url(#p7ab8553ec5)" d="M 288.388573 221.286869 
L 434.33325 221.286869 
L 434.33325 218.007879 
L 288.388573 218.007879 
z
" style="fill:url(#h75a0346e5b);"/>
   </g>
   <g id="patch_37">
    <path clip-path="url(#p7ab8553ec5)" d="M 288.388573 217.188132 
L 432.528117 217.188132 
L 432.528117 213.909141 
L 288.388573 213.909141 
z
" style="fill:url(#h75a0346e5b);"/>
   </g>
   <g id="patch_38">
    <path clip-path="url(#p7ab8553ec5)" d="M 288.388573 213.089394 
L 425.821736 213.089394 
L 425.821736 209.810404 
L 288.388573 209.810404 
z
" style="fill:url(#h75a0346e5b);"/>
   </g>
   <g id="patch_39">
    <path clip-path="url(#p7ab8553ec5)" d="M 288.388573 208.990656 
L 421.738484 208.990656 
L 421.738484 205.711666 
L 288.388573 205.711666 
z
" style="fill:url(#h75a0346e5b);"/>
   </g>
   <g id="patch_40">
    <path clip-path="url(#p7ab8553ec5)" d="M 288.388573 204.891918 
L 418.152286 204.891918 
L 418.152286 201.612928 
L 288.388573 201.612928 
z
" style="fill:url(#h75a0346e5b);"/>
   </g>
   <g id="patch_41">
    <path clip-path="url(#p7ab8553ec5)" d="M 288.388573 200.79318 
L 414.092118 200.79318 
L 414.092118 197.51419 
L 288.388573 197.51419 
z
" style="fill:url(#h75a0346e5b);"/>
   </g>
   <g id="patch_42">
    <path clip-path="url(#p7ab8553ec5)" d="M 288.388573 196.694443 
L 410.0414 196.694443 
L 410.0414 193.415452 
L 288.388573 193.415452 
z
" style="fill:url(#h75a0346e5b);"/>
   </g>
   <g id="patch_43">
    <path clip-path="url(#p7ab8553ec5)" d="M 288.388573 192.595705 
L 405.544733 192.595705 
L 405.544733 189.316715 
L 288.388573 189.316715 
z
" style="fill:url(#h75a0346e5b);"/>
   </g>
   <g id="patch_44">
    <path clip-path="url(#p7ab8553ec5)" d="M 288.388573 188.496967 
L 402.33626 188.496967 
L 402.33626 185.217977 
L 288.388573 185.217977 
z
" style="fill:url(#h75a0346e5b);"/>
   </g>
   <g id="patch_45">
    <path clip-path="url(#p7ab8553ec5)" d="M 288.388573 184.398229 
L 399.500222 184.398229 
L 399.500222 181.119239 
L 288.388573 181.119239 
z
" style="fill:url(#h75a0346e5b);"/>
   </g>
   <g id="patch_46">
    <path clip-path="url(#p7ab8553ec5)" d="M 288.388573 180.299492 
L 394.650409 180.299492 
L 394.650409 177.020501 
L 288.388573 177.020501 
z
" style="fill:url(#h75a0346e5b);"/>
   </g>
   <g id="patch_47">
    <path clip-path="url(#p7ab8553ec5)" d="M 288.388573 176.200754 
L 395.484931 176.200754 
L 395.484931 172.921764 
L 288.388573 172.921764 
z
" style="fill:url(#h75a0346e5b);"/>
   </g>
   <g id="patch_48">
    <path clip-path="url(#p7ab8553ec5)" d="M 288.388573 172.102016 
L 393.231227 172.102016 
L 393.231227 168.823026 
L 288.388573 168.823026 
z
" style="fill:url(#h75a0346e5b);"/>
   </g>
   <g id="patch_49">
    <path clip-path="url(#p7ab8553ec5)" d="M 288.388573 168.003278 
L 387.989864 168.003278 
L 387.989864 164.724288 
L 288.388573 164.724288 
z
" style="fill:url(#h75a0346e5b);"/>
   </g>
   <g id="patch_50">
    <path clip-path="url(#p7ab8553ec5)" d="M 288.388573 163.90454 
L 386.663226 163.90454 
L 386.663226 160.62555 
L 288.388573 160.62555 
z
" style="fill:url(#h75a0346e5b);"/>
   </g>
   <g id="patch_51">
    <path clip-path="url(#p7ab8553ec5)" d="M 288.388573 159.805803 
L 383.833006 159.805803 
L 383.833006 156.526812 
L 288.388573 156.526812 
z
" style="fill:url(#h75a0346e5b);"/>
   </g>
   <g id="patch_52">
    <path clip-path="url(#p7ab8553ec5)" d="M 288.388573 155.707065 
L 378.338792 155.707065 
L 378.338792 152.428075 
L 288.388573 152.428075 
z
" style="fill:url(#h75a0346e5b);"/>
   </g>
   <g id="patch_53">
    <path clip-path="url(#p7ab8553ec5)" d="M 288.388573 151.608327 
L 374.896821 151.608327 
L 374.896821 148.329337 
L 288.388573 148.329337 
z
" style="fill:url(#h75a0346e5b);"/>
   </g>
   <g id="patch_54">
    <path clip-path="url(#p7ab8553ec5)" d="M 288.388573 147.509589 
L 370.94496 147.509589 
L 370.94496 144.230599 
L 288.388573 144.230599 
z
" style="fill:url(#h75a0346e5b);"/>
   </g>
   <g id="patch_55">
    <path clip-path="url(#p7ab8553ec5)" d="M 288.388573 143.410852 
L 366.704278 143.410852 
L 366.704278 140.131861 
L 288.388573 140.131861 
z
" style="fill:url(#h75a0346e5b);"/>
   </g>
   <g id="patch_56">
    <path clip-path="url(#p7ab8553ec5)" d="M 288.388573 139.312114 
L 363.601541 139.312114 
L 363.601541 136.033124 
L 288.388573 136.033124 
z
" style="fill:url(#h75a0346e5b);"/>
   </g>
   <g id="patch_57">
    <path clip-path="url(#p7ab8553ec5)" d="M 288.388573 135.213376 
L 360.706282 135.213376 
L 360.706282 131.934386 
L 288.388573 131.934386 
z
" style="fill:url(#h75a0346e5b);"/>
   </g>
   <g id="patch_58">
    <path clip-path="url(#p7ab8553ec5)" d="M 288.388573 131.114638 
L 357.141181 131.114638 
L 357.141181 127.835648 
L 288.388573 127.835648 
z
" style="fill:url(#h75a0346e5b);"/>
   </g>
   <g id="patch_59">
    <path clip-path="url(#p7ab8553ec5)" d="M 288.388573 127.0159 
L 354.299153 127.0159 
L 354.299153 123.73691 
L 288.388573 123.73691 
z
" style="fill:url(#h75a0346e5b);"/>
   </g>
   <g id="patch_60">
    <path clip-path="url(#p7ab8553ec5)" d="M 288.388573 122.917163 
L 349.812863 122.917163 
L 349.812863 119.638172 
L 288.388573 119.638172 
z
" style="fill:url(#h75a0346e5b);"/>
   </g>
   <g id="patch_61">
    <path clip-path="url(#p7ab8553ec5)" d="M 288.388573 118.818425 
L 345.13195 118.818425 
L 345.13195 115.539435 
L 288.388573 115.539435 
z
" style="fill:url(#h75a0346e5b);"/>
   </g>
   <g id="patch_62">
    <path clip-path="url(#p7ab8553ec5)" d="M 288.388573 114.719687 
L 342.538237 114.719687 
L 342.538237 111.440697 
L 288.388573 111.440697 
z
" style="fill:url(#h75a0346e5b);"/>
   </g>
   <g id="patch_63">
    <path clip-path="url(#p7ab8553ec5)" d="M 288.388573 110.620949 
L 342.538237 110.620949 
L 342.538237 107.341959 
L 288.388573 107.341959 
z
" style="fill:url(#h75a0346e5b);"/>
   </g>
   <g id="patch_64">
    <path clip-path="url(#p7ab8553ec5)" d="M 288.388573 106.522212 
L 342.971898 106.522212 
L 342.971898 103.243221 
L 288.388573 103.243221 
z
" style="fill:url(#h75a0346e5b);"/>
   </g>
   <g id="patch_65">
    <path clip-path="url(#p7ab8553ec5)" d="M 288.388573 102.423474 
L 336.497389 102.423474 
L 336.497389 99.144484 
L 288.388573 99.144484 
z
" style="fill:url(#h75a0346e5b);"/>
   </g>
   <g id="patch_66">
    <path clip-path="url(#p7ab8553ec5)" d="M 288.388573 98.324736 
L 334.631557 98.324736 
L 334.631557 95.045746 
L 288.388573 95.045746 
z
" style="fill:url(#h75a0346e5b);"/>
   </g>
   <g id="patch_67">
    <path clip-path="url(#p7ab8553ec5)" d="M 288.388573 94.225998 
L 336.840927 94.225998 
L 336.840927 90.947008 
L 288.388573 90.947008 
z
" style="fill:url(#h75a0346e5b);"/>
   </g>
   <g id="patch_68">
    <path clip-path="url(#p7ab8553ec5)" d="M 288.388573 90.12726 
L 334.631557 90.12726 
L 334.631557 86.84827 
L 288.388573 86.84827 
z
" style="fill:url(#h75a0346e5b);"/>
   </g>
   <g id="patch_69">
    <path clip-path="url(#p7ab8553ec5)" d="M 288.388573 86.028523 
L 327.330186 86.028523 
L 327.330186 82.749532 
L 288.388573 82.749532 
z
" style="fill:url(#h75a0346e5b);"/>
   </g>
   <g id="patch_70">
    <path clip-path="url(#p7ab8553ec5)" d="M 288.388573 81.929785 
L 328.008564 81.929785 
L 328.008564 78.650795 
L 288.388573 78.650795 
z
" style="fill:url(#h75a0346e5b);"/>
   </g>
   <g id="patch_71">
    <path clip-path="url(#p7ab8553ec5)" d="M 288.388573 77.831047 
L 323.291368 77.831047 
L 323.291368 74.552057 
L 288.388573 74.552057 
z
" style="fill:url(#h75a0346e5b);"/>
   </g>
   <g id="patch_72">
    <path clip-path="url(#p7ab8553ec5)" d="M 288.388573 73.732309 
L 318.841362 73.732309 
L 318.841362 70.453319 
L 288.388573 70.453319 
z
" style="fill:url(#h75a0346e5b);"/>
   </g>
   <g id="patch_73">
    <path clip-path="url(#p7ab8553ec5)" d="M 288.388573 69.633572 
L 325.859174 69.633572 
L 325.859174 66.354581 
L 288.388573 66.354581 
z
" style="fill:url(#h75a0346e5b);"/>
   </g>
   <g id="patch_74">
    <path clip-path="url(#p7ab8553ec5)" d="M 288.388573 65.534834 
L 325.057384 65.534834 
L 325.057384 62.255844 
L 288.388573 62.255844 
z
" style="fill:url(#h75a0346e5b);"/>
   </g>
   <g id="patch_75">
    <path clip-path="url(#p7ab8553ec5)" d="M 288.388573 61.436096 
L 318.841362 61.436096 
L 318.841362 58.157106 
L 288.388573 58.157106 
z
" style="fill:url(#h75a0346e5b);"/>
   </g>
   <g id="patch_76">
    <path clip-path="url(#p7ab8553ec5)" d="M 288.388573 57.337358 
L 318.841362 57.337358 
L 318.841362 54.058368 
L 288.388573 54.058368 
z
" style="fill:url(#h75a0346e5b);"/>
   </g>
   <g id="patch_77">
    <path clip-path="url(#p7ab8553ec5)" d="M 288.388573 53.23862 
L 312.085449 53.23862 
L 312.085449 49.95963 
L 288.388573 49.95963 
z
" style="fill:url(#h75a0346e5b);"/>
   </g>
   <g id="patch_78">
    <path clip-path="url(#p7ab8553ec5)" d="M 288.388573 49.139883 
L 317.447918 49.139883 
L 317.447918 45.860892 
L 288.388573 45.860892 
z
" style="fill:url(#h75a0346e5b);"/>
   </g>
   <g id="patch_79">
    <path clip-path="url(#p7ab8553ec5)" d="M 288.388573 45.041145 
L 302.918246 45.041145 
L 302.918246 41.762155 
L 288.388573 41.762155 
z
" style="fill:url(#h75a0346e5b);"/>
   </g>
   <g id="patch_80">
    <path clip-path="url(#p7ab8553ec5)" d="M 288.388573 40.942407 
L 297.555776 40.942407 
L 297.555776 37.663417 
L 288.388573 37.663417 
z
" style="fill:url(#h75a0346e5b);"/>
   </g>
   <g id="patch_81">
    <path clip-path="url(#p7ab8553ec5)" d="M 288.388573 36.843669 
L 297.555776 36.843669 
L 297.555776 33.564679 
L 288.388573 33.564679 
z
" style="fill:url(#h75a0346e5b);"/>
   </g>
   <g id="patch_82">
    <path clip-path="url(#p7ab8553ec5)" d="M 288.388573 32.744932 
L 288.388573 32.744932 
L 288.388573 29.465941 
L 288.388573 29.465941 
z
" style="fill:url(#h75a0346e5b);"/>
   </g>
   <g id="patch_83">
    <path clip-path="url(#p7ab8553ec5)" d="M 288.388573 28.646194 
L 297.555776 28.646194 
L 297.555776 25.367204 
L 288.388573 25.367204 
z
" style="fill:url(#h75a0346e5b);"/>
   </g>
   <g id="patch_84">
    <path clip-path="url(#p7ab8553ec5)" d="M 288.388573 24.547456 
L 297.555776 24.547456 
L 297.555776 21.268466 
L 288.388573 21.268466 
z
" style="fill:url(#h75a0346e5b);"/>
   </g>
   <g id="patch_85">
    <path clip-path="url(#p7ab8553ec5)" d="M 288.388573 20.448718 
L 297.555776 20.448718 
L 297.555776 17.169728 
L 288.388573 17.169728 
z
" style="fill:url(#h75a0346e5b);"/>
   </g>
   <g id="patch_86">
    <path clip-path="url(#p7ab8553ec5)" d="M 288.388573 16.34998 
L 288.388573 16.34998 
L 288.388573 13.07099 
L 288.388573 13.07099 
z
" style="fill:url(#h75a0346e5b);"/>
   </g>
   <g id="patch_87">
    <path clip-path="url(#p7ab8553ec5)" d="M 288.388573 12.251243 
L 288.388573 12.251243 
L 288.388573 8.972252 
L 288.388573 8.972252 
z
" style="fill:url(#h75a0346e5b);"/>
   </g>
   <g id="patch_88">
    <path clip-path="url(#p7ab8553ec5)" d="M 288.388573 8.152505 
L 288.388573 8.152505 
L 288.388573 4.873515 
L 288.388573 4.873515 
z
" style="fill:url(#h75a0346e5b);"/>
   </g>
   <g id="patch_89">
    <path clip-path="url(#p7ab8553ec5)" d="M 288.388573 4.053767 
L 288.388573 4.053767 
L 288.388573 0.774777 
L 288.388573 0.774777 
z
" style="fill:url(#h75a0346e5b);"/>
   </g>
   <g id="matplotlib.axis_3">
    <g id="xtick_7">
     <g id="line2d_27">
      <g>
       <use style="stroke:#000000;stroke-width:0.8;" x="288.388573" xlink:href="#m130e39ed4c" y="255.716267"/>
      </g>
     </g>
     <g id="text_29">
      <!-- 0 -->
      <g transform="translate(285.207323 270.314704)scale(0.1 -0.1)">
       <use xlink:href="#DejaVuSans-48"/>
      </g>
     </g>
    </g>
    <g id="xtick_8">
     <g id="line2d_28">
      <g>
       <use style="stroke:#000000;stroke-width:0.8;" x="354.515963" xlink:href="#m130e39ed4c" y="255.716267"/>
      </g>
     </g>
     <g id="text_30">
      <!-- 5 -->
      <g transform="translate(351.334713 270.314704)scale(0.1 -0.1)">
       <use xlink:href="#DejaVuSans-53"/>
      </g>
     </g>
    </g>
    <g id="xtick_9">
     <g id="line2d_29">
      <g>
       <use style="stroke:#000000;stroke-width:0.8;" x="420.643353" xlink:href="#m130e39ed4c" y="255.716267"/>
      </g>
     </g>
     <g id="text_31">
      <!-- 10 -->
      <g transform="translate(414.280853 270.314704)scale(0.1 -0.1)">
       <use xlink:href="#DejaVuSans-49"/>
       <use x="63.623047" xlink:href="#DejaVuSans-48"/>
      </g>
     </g>
    </g>
    <g id="xtick_10">
     <g id="line2d_30">
      <g>
       <use style="stroke:#000000;stroke-width:0.8;" x="486.770743" xlink:href="#m130e39ed4c" y="255.716267"/>
      </g>
     </g>
     <g id="text_32">
      <!-- 15 -->
      <g transform="translate(480.408243 270.314704)scale(0.1 -0.1)">
       <use xlink:href="#DejaVuSans-49"/>
       <use x="63.623047" xlink:href="#DejaVuSans-53"/>
      </g>
     </g>
    </g>
    <g id="text_33">
     <!-- log(freq) -->
     <defs>
      <path d="M 30.609375 48.390625 
Q 23.390625 48.390625 19.1875 42.75 
Q 14.984375 37.109375 14.984375 27.296875 
Q 14.984375 17.484375 19.15625 11.84375 
Q 23.34375 6.203125 30.609375 6.203125 
Q 37.796875 6.203125 41.984375 11.859375 
Q 46.1875 17.53125 46.1875 27.296875 
Q 46.1875 37.015625 41.984375 42.703125 
Q 37.796875 48.390625 30.609375 48.390625 
z
M 30.609375 56 
Q 42.328125 56 49.015625 48.375 
Q 55.71875 40.765625 55.71875 27.296875 
Q 55.71875 13.875 49.015625 6.21875 
Q 42.328125 -1.421875 30.609375 -1.421875 
Q 18.84375 -1.421875 12.171875 6.21875 
Q 5.515625 13.875 5.515625 27.296875 
Q 5.515625 40.765625 12.171875 48.375 
Q 18.84375 56 30.609375 56 
z
" id="DejaVuSans-111"/>
      <path d="M 31 75.875 
Q 24.46875 64.65625 21.28125 53.65625 
Q 18.109375 42.671875 18.109375 31.390625 
Q 18.109375 20.125 21.3125 9.0625 
Q 24.515625 -2 31 -13.1875 
L 23.1875 -13.1875 
Q 15.875 -1.703125 12.234375 9.375 
Q 8.59375 20.453125 8.59375 31.390625 
Q 8.59375 42.28125 12.203125 53.3125 
Q 15.828125 64.359375 23.1875 75.875 
z
" id="DejaVuSans-40"/>
      <path d="M 37.109375 75.984375 
L 37.109375 68.5 
L 28.515625 68.5 
Q 23.6875 68.5 21.796875 66.546875 
Q 19.921875 64.59375 19.921875 59.515625 
L 19.921875 54.6875 
L 34.71875 54.6875 
L 34.71875 47.703125 
L 19.921875 47.703125 
L 19.921875 0 
L 10.890625 0 
L 10.890625 47.703125 
L 2.296875 47.703125 
L 2.296875 54.6875 
L 10.890625 54.6875 
L 10.890625 58.5 
Q 10.890625 67.625 15.140625 71.796875 
Q 19.390625 75.984375 28.609375 75.984375 
z
" id="DejaVuSans-102"/>
      <path d="M 8.015625 75.875 
L 15.828125 75.875 
Q 23.140625 64.359375 26.78125 53.3125 
Q 30.421875 42.28125 30.421875 31.390625 
Q 30.421875 20.453125 26.78125 9.375 
Q 23.140625 -1.703125 15.828125 -13.1875 
L 8.015625 -13.1875 
Q 14.5 -2 17.703125 9.0625 
Q 20.90625 20.125 20.90625 31.390625 
Q 20.90625 42.671875 17.703125 53.65625 
Q 14.5 64.65625 8.015625 75.875 
z
" id="DejaVuSans-41"/>
     </defs>
     <g transform="translate(366.378797 283.992829)scale(0.1 -0.1)">
      <use xlink:href="#DejaVuSans-108"/>
      <use x="27.783203" xlink:href="#DejaVuSans-111"/>
      <use x="88.964844" xlink:href="#DejaVuSans-103"/>
      <use x="152.441406" xlink:href="#DejaVuSans-40"/>
      <use x="191.455078" xlink:href="#DejaVuSans-102"/>
      <use x="226.660156" xlink:href="#DejaVuSans-114"/>
      <use x="267.742188" xlink:href="#DejaVuSans-101"/>
      <use x="329.265625" xlink:href="#DejaVuSans-113"/>
      <use x="392.742188" xlink:href="#DejaVuSans-41"/>
     </g>
    </g>
   </g>
   <g id="matplotlib.axis_4">
    <g id="ytick_21">
     <g id="line2d_31">
      <g>
       <use style="stroke:#000000;stroke-width:0.8;" x="288.388573" xlink:href="#m46dd58bb9f" y="252.437276"/>
      </g>
     </g>
     <g id="text_34">
      <!-- 1 -->
      <g transform="translate(275.026073 256.236495)scale(0.1 -0.1)">
       <use xlink:href="#DejaVuSans-49"/>
      </g>
     </g>
    </g>
    <g id="ytick_22">
     <g id="line2d_32">
      <g>
       <use style="stroke:#000000;stroke-width:0.8;" x="288.388573" xlink:href="#m46dd58bb9f" y="236.042325"/>
      </g>
     </g>
     <g id="text_35">
      <!-- 5 -->
      <g transform="translate(275.026073 239.841544)scale(0.1 -0.1)">
       <use xlink:href="#DejaVuSans-53"/>
      </g>
     </g>
    </g>
    <g id="ytick_23">
     <g id="line2d_33">
      <g>
       <use style="stroke:#000000;stroke-width:0.8;" x="288.388573" xlink:href="#m46dd58bb9f" y="219.647374"/>
      </g>
     </g>
     <g id="text_36">
      <!-- 9 -->
      <g transform="translate(275.026073 223.446593)scale(0.1 -0.1)">
       <use xlink:href="#DejaVuSans-57"/>
      </g>
     </g>
    </g>
    <g id="ytick_24">
     <g id="line2d_34">
      <g>
       <use style="stroke:#000000;stroke-width:0.8;" x="288.388573" xlink:href="#m46dd58bb9f" y="203.252423"/>
      </g>
     </g>
     <g id="text_37">
      <!-- 13 -->
      <g transform="translate(268.663573 207.051642)scale(0.1 -0.1)">
       <use xlink:href="#DejaVuSans-49"/>
       <use x="63.623047" xlink:href="#DejaVuSans-51"/>
      </g>
     </g>
    </g>
    <g id="ytick_25">
     <g id="line2d_35">
      <g>
       <use style="stroke:#000000;stroke-width:0.8;" x="288.388573" xlink:href="#m46dd58bb9f" y="186.857472"/>
      </g>
     </g>
     <g id="text_38">
      <!-- 17 -->
      <g transform="translate(268.663573 190.656691)scale(0.1 -0.1)">
       <use xlink:href="#DejaVuSans-49"/>
       <use x="63.623047" xlink:href="#DejaVuSans-55"/>
      </g>
     </g>
    </g>
    <g id="ytick_26">
     <g id="line2d_36">
      <g>
       <use style="stroke:#000000;stroke-width:0.8;" x="288.388573" xlink:href="#m46dd58bb9f" y="170.462521"/>
      </g>
     </g>
     <g id="text_39">
      <!-- 21 -->
      <g transform="translate(268.663573 174.26174)scale(0.1 -0.1)">
       <use xlink:href="#DejaVuSans-50"/>
       <use x="63.623047" xlink:href="#DejaVuSans-49"/>
      </g>
     </g>
    </g>
    <g id="ytick_27">
     <g id="line2d_37">
      <g>
       <use style="stroke:#000000;stroke-width:0.8;" x="288.388573" xlink:href="#m46dd58bb9f" y="154.06757"/>
      </g>
     </g>
     <g id="text_40">
      <!-- 25 -->
      <g transform="translate(268.663573 157.866789)scale(0.1 -0.1)">
       <use xlink:href="#DejaVuSans-50"/>
       <use x="63.623047" xlink:href="#DejaVuSans-53"/>
      </g>
     </g>
    </g>
    <g id="ytick_28">
     <g id="line2d_38">
      <g>
       <use style="stroke:#000000;stroke-width:0.8;" x="288.388573" xlink:href="#m46dd58bb9f" y="137.672619"/>
      </g>
     </g>
     <g id="text_41">
      <!-- 29 -->
      <g transform="translate(268.663573 141.471837)scale(0.1 -0.1)">
       <use xlink:href="#DejaVuSans-50"/>
       <use x="63.623047" xlink:href="#DejaVuSans-57"/>
      </g>
     </g>
    </g>
    <g id="ytick_29">
     <g id="line2d_39">
      <g>
       <use style="stroke:#000000;stroke-width:0.8;" x="288.388573" xlink:href="#m46dd58bb9f" y="121.277668"/>
      </g>
     </g>
     <g id="text_42">
      <!-- 33 -->
      <g transform="translate(268.663573 125.076886)scale(0.1 -0.1)">
       <use xlink:href="#DejaVuSans-51"/>
       <use x="63.623047" xlink:href="#DejaVuSans-51"/>
      </g>
     </g>
    </g>
    <g id="ytick_30">
     <g id="line2d_40">
      <g>
       <use style="stroke:#000000;stroke-width:0.8;" x="288.388573" xlink:href="#m46dd58bb9f" y="104.882716"/>
      </g>
     </g>
     <g id="text_43">
      <!-- 37 -->
      <g transform="translate(268.663573 108.681935)scale(0.1 -0.1)">
       <use xlink:href="#DejaVuSans-51"/>
       <use x="63.623047" xlink:href="#DejaVuSans-55"/>
      </g>
     </g>
    </g>
    <g id="ytick_31">
     <g id="line2d_41">
      <g>
       <use style="stroke:#000000;stroke-width:0.8;" x="288.388573" xlink:href="#m46dd58bb9f" y="88.487765"/>
      </g>
     </g>
     <g id="text_44">
      <!-- 41 -->
      <g transform="translate(268.663573 92.286984)scale(0.1 -0.1)">
       <use xlink:href="#DejaVuSans-52"/>
       <use x="63.623047" xlink:href="#DejaVuSans-49"/>
      </g>
     </g>
    </g>
    <g id="ytick_32">
     <g id="line2d_42">
      <g>
       <use style="stroke:#000000;stroke-width:0.8;" x="288.388573" xlink:href="#m46dd58bb9f" y="72.092814"/>
      </g>
     </g>
     <g id="text_45">
      <!-- 45 -->
      <g transform="translate(268.663573 75.892033)scale(0.1 -0.1)">
       <use xlink:href="#DejaVuSans-52"/>
       <use x="63.623047" xlink:href="#DejaVuSans-53"/>
      </g>
     </g>
    </g>
    <g id="ytick_33">
     <g id="line2d_43">
      <g>
       <use style="stroke:#000000;stroke-width:0.8;" x="288.388573" xlink:href="#m46dd58bb9f" y="55.697863"/>
      </g>
     </g>
     <g id="text_46">
      <!-- 49 -->
      <g transform="translate(268.663573 59.497082)scale(0.1 -0.1)">
       <use xlink:href="#DejaVuSans-52"/>
       <use x="63.623047" xlink:href="#DejaVuSans-57"/>
      </g>
     </g>
    </g>
    <g id="ytick_34">
     <g id="line2d_44">
      <g>
       <use style="stroke:#000000;stroke-width:0.8;" x="288.388573" xlink:href="#m46dd58bb9f" y="39.302912"/>
      </g>
     </g>
     <g id="text_47">
      <!-- 55 -->
      <g transform="translate(268.663573 43.102131)scale(0.1 -0.1)">
       <use xlink:href="#DejaVuSans-53"/>
       <use x="63.623047" xlink:href="#DejaVuSans-53"/>
      </g>
     </g>
    </g>
    <g id="ytick_35">
     <g id="line2d_45">
      <g>
       <use style="stroke:#000000;stroke-width:0.8;" x="288.388573" xlink:href="#m46dd58bb9f" y="22.907961"/>
      </g>
     </g>
     <g id="text_48">
      <!-- 64 -->
      <g transform="translate(268.663573 26.70718)scale(0.1 -0.1)">
       <use xlink:href="#DejaVuSans-54"/>
       <use x="63.623047" xlink:href="#DejaVuSans-52"/>
      </g>
     </g>
    </g>
    <g id="text_49">
     <!-- number of hit paths -->
     <defs>
      <path d="M 52 44.1875 
Q 55.375 50.25 60.0625 53.125 
Q 64.75 56 71.09375 56 
Q 79.640625 56 84.28125 50.015625 
Q 88.921875 44.046875 88.921875 33.015625 
L 88.921875 0 
L 79.890625 0 
L 79.890625 32.71875 
Q 79.890625 40.578125 77.09375 44.375 
Q 74.3125 48.1875 68.609375 48.1875 
Q 61.625 48.1875 57.5625 43.546875 
Q 53.515625 38.921875 53.515625 30.90625 
L 53.515625 0 
L 44.484375 0 
L 44.484375 32.71875 
Q 44.484375 40.625 41.703125 44.40625 
Q 38.921875 48.1875 33.109375 48.1875 
Q 26.21875 48.1875 22.15625 43.53125 
Q 18.109375 38.875 18.109375 30.90625 
L 18.109375 0 
L 9.078125 0 
L 9.078125 54.6875 
L 18.109375 54.6875 
L 18.109375 46.1875 
Q 21.1875 51.21875 25.484375 53.609375 
Q 29.78125 56 35.6875 56 
Q 41.65625 56 45.828125 52.96875 
Q 50 49.953125 52 44.1875 
z
" id="DejaVuSans-109"/>
      <path d="M 48.6875 27.296875 
Q 48.6875 37.203125 44.609375 42.84375 
Q 40.53125 48.484375 33.40625 48.484375 
Q 26.265625 48.484375 22.1875 42.84375 
Q 18.109375 37.203125 18.109375 27.296875 
Q 18.109375 17.390625 22.1875 11.75 
Q 26.265625 6.109375 33.40625 6.109375 
Q 40.53125 6.109375 44.609375 11.75 
Q 48.6875 17.390625 48.6875 27.296875 
z
M 18.109375 46.390625 
Q 20.953125 51.265625 25.265625 53.625 
Q 29.59375 56 35.59375 56 
Q 45.5625 56 51.78125 48.09375 
Q 58.015625 40.1875 58.015625 27.296875 
Q 58.015625 14.40625 51.78125 6.484375 
Q 45.5625 -1.421875 35.59375 -1.421875 
Q 29.59375 -1.421875 25.265625 0.953125 
Q 20.953125 3.328125 18.109375 8.203125 
L 18.109375 0 
L 9.078125 0 
L 9.078125 75.984375 
L 18.109375 75.984375 
z
" id="DejaVuSans-98"/>
      <path d="M 9.421875 54.6875 
L 18.40625 54.6875 
L 18.40625 0 
L 9.421875 0 
z
M 9.421875 75.984375 
L 18.40625 75.984375 
L 18.40625 64.59375 
L 9.421875 64.59375 
z
" id="DejaVuSans-105"/>
      <path d="M 18.109375 8.203125 
L 18.109375 -20.796875 
L 9.078125 -20.796875 
L 9.078125 54.6875 
L 18.109375 54.6875 
L 18.109375 46.390625 
Q 20.953125 51.265625 25.265625 53.625 
Q 29.59375 56 35.59375 56 
Q 45.5625 56 51.78125 48.09375 
Q 58.015625 40.1875 58.015625 27.296875 
Q 58.015625 14.40625 51.78125 6.484375 
Q 45.5625 -1.421875 35.59375 -1.421875 
Q 29.59375 -1.421875 25.265625 0.953125 
Q 20.953125 3.328125 18.109375 8.203125 
z
M 48.6875 27.296875 
Q 48.6875 37.203125 44.609375 42.84375 
Q 40.53125 48.484375 33.40625 48.484375 
Q 26.265625 48.484375 22.1875 42.84375 
Q 18.109375 37.203125 18.109375 27.296875 
Q 18.109375 17.390625 22.1875 11.75 
Q 26.265625 6.109375 33.40625 6.109375 
Q 40.53125 6.109375 44.609375 11.75 
Q 48.6875 17.390625 48.6875 27.296875 
z
" id="DejaVuSans-112"/>
      <path d="M 34.28125 27.484375 
Q 23.390625 27.484375 19.1875 25 
Q 14.984375 22.515625 14.984375 16.5 
Q 14.984375 11.71875 18.140625 8.90625 
Q 21.296875 6.109375 26.703125 6.109375 
Q 34.1875 6.109375 38.703125 11.40625 
Q 43.21875 16.703125 43.21875 25.484375 
L 43.21875 27.484375 
z
M 52.203125 31.203125 
L 52.203125 0 
L 43.21875 0 
L 43.21875 8.296875 
Q 40.140625 3.328125 35.546875 0.953125 
Q 30.953125 -1.421875 24.3125 -1.421875 
Q 15.921875 -1.421875 10.953125 3.296875 
Q 6 8.015625 6 15.921875 
Q 6 25.140625 12.171875 29.828125 
Q 18.359375 34.515625 30.609375 34.515625 
L 43.21875 34.515625 
L 43.21875 35.40625 
Q 43.21875 41.609375 39.140625 45 
Q 35.0625 48.390625 27.6875 48.390625 
Q 23 48.390625 18.546875 47.265625 
Q 14.109375 46.140625 10.015625 43.890625 
L 10.015625 52.203125 
Q 14.9375 54.109375 19.578125 55.046875 
Q 24.21875 56 28.609375 56 
Q 40.484375 56 46.34375 49.84375 
Q 52.203125 43.703125 52.203125 31.203125 
z
" id="DejaVuSans-97"/>
      <path d="M 44.28125 53.078125 
L 44.28125 44.578125 
Q 40.484375 46.53125 36.375 47.5 
Q 32.28125 48.484375 27.875 48.484375 
Q 21.1875 48.484375 17.84375 46.4375 
Q 14.5 44.390625 14.5 40.28125 
Q 14.5 37.15625 16.890625 35.375 
Q 19.28125 33.59375 26.515625 31.984375 
L 29.59375 31.296875 
Q 39.15625 29.25 43.1875 25.515625 
Q 47.21875 21.78125 47.21875 15.09375 
Q 47.21875 7.46875 41.1875 3.015625 
Q 35.15625 -1.421875 24.609375 -1.421875 
Q 20.21875 -1.421875 15.453125 -0.5625 
Q 10.6875 0.296875 5.421875 2 
L 5.421875 11.28125 
Q 10.40625 8.6875 15.234375 7.390625 
Q 20.0625 6.109375 24.8125 6.109375 
Q 31.15625 6.109375 34.5625 8.28125 
Q 37.984375 10.453125 37.984375 14.40625 
Q 37.984375 18.0625 35.515625 20.015625 
Q 33.0625 21.96875 24.703125 23.78125 
L 21.578125 24.515625 
Q 13.234375 26.265625 9.515625 29.90625 
Q 5.8125 33.546875 5.8125 39.890625 
Q 5.8125 47.609375 11.28125 51.796875 
Q 16.75 56 26.8125 56 
Q 31.78125 56 36.171875 55.265625 
Q 40.578125 54.546875 44.28125 53.078125 
z
" id="DejaVuSans-115"/>
     </defs>
     <g transform="translate(262.583886 182.344758)rotate(-90)scale(0.1 -0.1)">
      <use xlink:href="#DejaVuSans-110"/>
      <use x="63.378906" xlink:href="#DejaVuSans-117"/>
      <use x="126.757812" xlink:href="#DejaVuSans-109"/>
      <use x="224.169922" xlink:href="#DejaVuSans-98"/>
      <use x="287.646484" xlink:href="#DejaVuSans-101"/>
      <use x="349.169922" xlink:href="#DejaVuSans-114"/>
      <use x="390.283203" xlink:href="#DejaVuSans-32"/>
      <use x="422.070312" xlink:href="#DejaVuSans-111"/>
      <use x="483.251953" xlink:href="#DejaVuSans-102"/>
      <use x="518.457031" xlink:href="#DejaVuSans-32"/>
      <use x="550.244141" xlink:href="#DejaVuSans-104"/>
      <use x="613.623047" xlink:href="#DejaVuSans-105"/>
      <use x="641.40625" xlink:href="#DejaVuSans-116"/>
      <use x="680.615234" xlink:href="#DejaVuSans-32"/>
      <use x="712.402344" xlink:href="#DejaVuSans-112"/>
      <use x="775.878906" xlink:href="#DejaVuSans-97"/>
      <use x="837.158203" xlink:href="#DejaVuSans-116"/>
      <use x="876.367188" xlink:href="#DejaVuSans-104"/>
      <use x="939.746094" xlink:href="#DejaVuSans-115"/>
     </g>
    </g>
   </g>
   <g id="patch_90">
    <path d="M 288.388573 255.716267 
L 288.388573 9.792 
" style="fill:none;stroke:#000000;stroke-linecap:square;stroke-linejoin:miter;stroke-width:0.8;"/>
   </g>
   <g id="patch_91">
    <path d="M 487.547146 255.716267 
L 487.547146 9.792 
" style="fill:none;stroke:#000000;stroke-linecap:square;stroke-linejoin:miter;stroke-width:0.8;"/>
   </g>
   <g id="patch_92">
    <path d="M 288.388573 255.716267 
L 487.547146 255.716267 
" style="fill:none;stroke:#000000;stroke-linecap:square;stroke-linejoin:miter;stroke-width:0.8;"/>
   </g>
   <g id="patch_93">
    <path d="M 288.388573 9.792 
L 487.547146 9.792 
" style="fill:none;stroke:#000000;stroke-linecap:square;stroke-linejoin:miter;stroke-width:0.8;"/>
   </g>
  </g>
 </g>
 <defs>
  <clipPath id="pbdd5c86121">
   <rect height="245.924267" width="199.158573" x="44.66" y="9.792"/>
  </clipPath>
  <clipPath id="p7ab8553ec5">
   <rect height="245.924267" width="199.158573" x="288.388573" y="9.792"/>
  </clipPath>
 </defs>
 <defs>
  <pattern height="72" id="h75a0346e5b" patternUnits="userSpaceOnUse" width="72" x="0" y="0">
   <rect fill="#808080" height="73" width="73" x="0" y="0"/>
   <path style="fill:#000000;stroke:#000000;stroke-linecap:butt;stroke-linejoin:miter;stroke-width:1.0;"/>
  </pattern>
 </defs>
</svg>
