<?xml version="1.0" encoding="UTF-8" standalone="no"?>
<!DOCTYPE svg PUBLIC "-//W3C//DTD SVG 1.1//EN"
 "http://www.w3.org/Graphics/SVG/1.1/DTD/svg11.dtd">
<!-- Generated by graphviz version 2.40.1 (20161225.0304)
 -->
<!-- Title: expression Pages: 1 -->
<svg width="529pt" height="44pt"
 viewBox="0.00 0.00 529.00 44.00" xmlns="http://www.w3.org/2000/svg" xmlns:xlink="http://www.w3.org/1999/xlink">
<g id="graph0" class="graph" transform="scale(1 1) rotate(0) translate(4 40)">
<title>expression</title>
<polygon fill="#ffffff" stroke="transparent" points="-4,4 -4,-40 525,-40 525,4 -4,4"/>
<!-- n_0 -->
<g id="node1" class="node">
<title>n_0</title>
<ellipse fill="none" stroke="#000000" stroke-width="2" cx="27" cy="-18" rx="27" ry="18"/>
<text text-anchor="middle" x="27" y="-14.3" font-family="Times,serif" font-size="14.00" fill="#000000">a</text>
</g>
<!-- n_1 -->
<g id="node2" class="node">
<title>n_1</title>
<ellipse fill="none" stroke="#000000" stroke-width="2" cx="118" cy="-18" rx="27" ry="18"/>
<text text-anchor="middle" x="118" y="-14.3" font-family="Times,serif" font-size="14.00" fill="#000000">+</text>
</g>
<!-- n_0&#45;&gt;n_1 -->
<g id="edge5" class="edge">
<title>n_0&#45;&gt;n_1</title>
<path fill="none" stroke="#000000" d="M54.303,-18C65.8206,-18 79.2007,-18 90.7163,-18"/>
</g>
<!-- n_2 -->
<g id="node3" class="node">
<title>n_2</title>
<ellipse fill="none" stroke="#000000" stroke-width="2" cx="209" cy="-18" rx="27" ry="18"/>
<text text-anchor="middle" x="209" y="-14.3" font-family="Times,serif" font-size="14.00" fill="#000000">b</text>
</g>
<!-- n_1&#45;&gt;n_2 -->
<g id="edge4" class="edge">
<title>n_1&#45;&gt;n_2</title>
<path fill="none" stroke="#000000" d="M145.303,-18C156.8206,-18 170.2007,-18 181.7163,-18"/>
</g>
<!-- n_3 -->
<g id="node4" class="node">
<title>n_3</title>
<ellipse fill="none" stroke="#000000" stroke-width="2" cx="312" cy="-18" rx="27" ry="18"/>
<text text-anchor="middle" x="312" y="-14.3" font-family="Times,serif" font-size="14.00" fill="#000000">2</text>
</g>
<!-- n_2&#45;&gt;n_3 -->
<g id="edge3" class="edge">
<title>n_2&#45;&gt;n_3</title>
<path fill="none" stroke="#000000" d="M236.062,-18C251.0822,-18 269.7127,-18 284.7611,-18"/>
<text text-anchor="middle" x="260.5" y="-21.8" font-family="Times,serif" font-size="14.00" fill="#000000">↑</text>
</g>
<!-- n_4 -->
<g id="node5" class="node">
<title>n_4</title>
<ellipse fill="none" stroke="#000000" stroke-width="2" cx="403" cy="-18" rx="27" ry="18"/>
<text text-anchor="middle" x="403" y="-14.3" font-family="Times,serif" font-size="14.00" fill="#000000">+</text>
</g>
<!-- n_3&#45;&gt;n_4 -->
<g id="edge2" class="edge">
<title>n_3&#45;&gt;n_4</title>
<path fill="none" stroke="#000000" d="M339.303,-18C350.8206,-18 364.2007,-18 375.7163,-18"/>
</g>
<!-- n_5 -->
<g id="node6" class="node">
<title>n_5</title>
<ellipse fill="none" stroke="#000000" stroke-width="2" cx="494" cy="-18" rx="27" ry="18"/>
<text text-anchor="middle" x="494" y="-14.3" font-family="Times,serif" font-size="14.00" fill="#000000">c</text>
</g>
<!-- n_4&#45;&gt;n_5 -->
<g id="edge1" class="edge">
<title>n_4&#45;&gt;n_5</title>
<path fill="none" stroke="#000000" d="M430.303,-18C441.8206,-18 455.2007,-18 466.7163,-18"/>
</g>
</g>
</svg>
