<?xml version="1.0" encoding="UTF-8" standalone="no"?>
<!DOCTYPE svg PUBLIC "-//W3C//DTD SVG 1.1//EN"
 "http://www.w3.org/Graphics/SVG/1.1/DTD/svg11.dtd">
<!-- Generated by graphviz version 2.40.1 (20161225.0304)
 -->
<!-- Title: expression Pages: 1 -->
<svg width="562pt" height="152pt"
 viewBox="0.00 0.00 561.99 152.00" xmlns="http://www.w3.org/2000/svg" xmlns:xlink="http://www.w3.org/1999/xlink">
<g id="graph0" class="graph" transform="scale(1 1) rotate(0) translate(4 148)">
<title>expression</title>
<polygon fill="#ffffff" stroke="transparent" points="-4,4 -4,-148 557.9931,-148 557.9931,4 -4,4"/>
<!-- n_0 -->
<g id="node1" class="node">
<title>n_0</title>
<ellipse fill="none" stroke="#000000" stroke-width="2" cx="27" cy="-72" rx="27" ry="18"/>
<text text-anchor="middle" x="27" y="-68.3" font-family="Times,serif" font-size="14.00" fill="#000000">a</text>
</g>
<!-- n_1 -->
<g id="node2" class="node">
<title>n_1</title>
<ellipse fill="none" stroke="#000000" stroke-width="2" cx="118" cy="-72" rx="27" ry="18"/>
<text text-anchor="middle" x="118" y="-68.3" font-family="Times,serif" font-size="14.00" fill="#000000">+</text>
</g>
<!-- n_0&#45;&gt;n_1 -->
<g id="edge9" class="edge">
<title>n_0&#45;&gt;n_1</title>
<path fill="none" stroke="#000000" d="M54.303,-72C65.8206,-72 79.2007,-72 90.7163,-72"/>
</g>
<!-- n_2 -->
<g id="node3" class="node">
<title>n_2</title>
<ellipse fill="none" stroke="#000000" stroke-width="2" cx="209" cy="-72" rx="27" ry="18"/>
<text text-anchor="middle" x="209" y="-68.3" font-family="Times,serif" font-size="14.00" fill="#000000">b</text>
</g>
<!-- n_1&#45;&gt;n_2 -->
<g id="edge8" class="edge">
<title>n_1&#45;&gt;n_2</title>
<path fill="none" stroke="#000000" d="M145.303,-72C156.8206,-72 170.2007,-72 181.7163,-72"/>
</g>
<!-- n_3 -->
<g id="node4" class="node">
<title>n_3</title>
<ellipse fill="none" stroke="#000000" stroke-width="2" cx="312" cy="-126" rx="27" ry="18"/>
<text text-anchor="middle" x="312" y="-122.3" font-family="Times,serif" font-size="14.00" fill="#000000">2</text>
</g>
<!-- n_2&#45;&gt;n_3 -->
<g id="edge3" class="edge">
<title>n_2&#45;&gt;n_3</title>
<path fill="none" stroke="#000000" d="M230.3417,-83.1888C248.019,-92.4566 273.0159,-105.5617 290.6857,-114.8255"/>
<text text-anchor="middle" x="260.5" y="-105.8" font-family="Times,serif" font-size="14.00" fill="#000000">↑</text>
</g>
<!-- n_6 -->
<g id="node7" class="node">
<title>n_6</title>
<ellipse fill="none" stroke="#000000" stroke-width="2" cx="312" cy="-72" rx="27" ry="18"/>
<text text-anchor="middle" x="312" y="-68.3" font-family="Times,serif" font-size="14.00" fill="#000000">+</text>
</g>
<!-- n_2&#45;&gt;n_6 -->
<g id="edge7" class="edge">
<title>n_2&#45;&gt;n_6</title>
<path fill="none" stroke="#000000" d="M236.062,-72C251.0822,-72 269.7127,-72 284.7611,-72"/>
</g>
<!-- n_4 -->
<g id="node5" class="node">
<title>n_4</title>
<ellipse fill="none" stroke="#000000" stroke-width="2" cx="414.9965" cy="-126" rx="27" ry="18"/>
<text text-anchor="middle" x="414.9965" y="-122.3" font-family="Times,serif" font-size="14.00" fill="#000000">+</text>
</g>
<!-- n_3&#45;&gt;n_4 -->
<g id="edge2" class="edge">
<title>n_3&#45;&gt;n_4</title>
<path fill="none" stroke="#000000" d="M339.0611,-126C354.0808,-126 372.7107,-126 387.7585,-126"/>
</g>
<!-- n_5 -->
<g id="node6" class="node">
<title>n_5</title>
<ellipse fill="none" stroke="#000000" stroke-width="2" cx="526.9931" cy="-126" rx="27" ry="18"/>
<text text-anchor="middle" x="526.9931" y="-122.3" font-family="Times,serif" font-size="14.00" fill="#000000">c</text>
</g>
<!-- n_4&#45;&gt;n_5 -->
<g id="edge1" class="edge">
<title>n_4&#45;&gt;n_5</title>
<path fill="none" stroke="#000000" d="M442.1078,-126C459.587,-126 482.2369,-126 499.7433,-126"/>
</g>
<!-- n_7 -->
<g id="node8" class="node">
<title>n_7</title>
<ellipse fill="none" stroke="#000000" stroke-width="2" cx="414.9965" cy="-72" rx="38.9931" ry="18"/>
<text text-anchor="middle" x="414.9965" y="-68.3" font-family="Times,serif" font-size="14.00" fill="#000000">divide</text>
</g>
<!-- n_6&#45;&gt;n_7 -->
<g id="edge6" class="edge">
<title>n_6&#45;&gt;n_7</title>
<path fill="none" stroke="#000000" d="M339.0611,-72C350.2663,-72 363.4807,-72 375.7182,-72"/>
</g>
<!-- n_8 -->
<g id="node9" class="node">
<title>n_8</title>
<ellipse fill="none" stroke="#000000" stroke-width="2" cx="526.9931" cy="-72" rx="27" ry="18"/>
<text text-anchor="middle" x="526.9931" y="-68.3" font-family="Times,serif" font-size="14.00" fill="#000000">1</text>
</g>
<!-- n_7&#45;&gt;n_8 -->
<g id="edge4" class="edge">
<title>n_7&#45;&gt;n_8</title>
<path fill="none" stroke="#000000" d="M454.1675,-72C469.3065,-72 486.2544,-72 499.9889,-72"/>
<text text-anchor="middle" x="476.9931" y="-75.8" font-family="Times,serif" font-size="14.00" fill="#000000">o</text>
</g>
<!-- n_9 -->
<g id="node10" class="node">
<title>n_9</title>
<ellipse fill="none" stroke="#000000" stroke-width="2" cx="526.9931" cy="-18" rx="27" ry="18"/>
<text text-anchor="middle" x="526.9931" y="-14.3" font-family="Times,serif" font-size="14.00" fill="#000000">x</text>
</g>
<!-- n_7&#45;&gt;n_9 -->
<g id="edge5" class="edge">
<title>n_7&#45;&gt;n_9</title>
<path fill="none" stroke="#000000" d="M442.1078,-58.9281C461.3996,-49.6264 486.9903,-37.2876 505.0123,-28.5982"/>
<text text-anchor="middle" x="476.9931" y="-46.8" font-family="Times,serif" font-size="14.00" fill="#000000">u</text>
</g>
</g>
</svg>
