<?xml version="1.0" encoding="utf-8" standalone="no"?>
<!DOCTYPE svg PUBLIC "-//W3C//DTD SVG 1.1//EN"
  "http://www.w3.org/Graphics/SVG/1.1/DTD/svg11.dtd">
<!-- Created with matplotlib (https://matplotlib.org/) -->
<svg height="299.52pt" version="1.1" viewBox="0 0 360 299.52" width="360pt" xmlns="http://www.w3.org/2000/svg" xmlns:xlink="http://www.w3.org/1999/xlink">
 <defs>
  <style type="text/css">
*{stroke-linecap:butt;stroke-linejoin:round;}
  </style>
 </defs>
 <g id="figure_1">
  <g id="patch_1">
   <path d="M 0 299.52 
L 360 299.52 
L 360 0 
L 0 0 
z
" style="fill:#ffffff;"/>
  </g>
  <g id="axes_1">
   <g id="patch_2">
    <path d="M 76.3 260.730311 
L 338.175 260.730311 
L 338.175 12.3136 
L 76.3 12.3136 
z
" style="fill:#ffffff;"/>
   </g>
   <g id="patch_3">
    <path clip-path="url(#pb037986b5b)" d="M -272.866667 23.605269 
L 190.128333 23.605269 
L 190.128333 29.829023 
L -272.866667 29.829023 
z
" style="fill:url(#h249a7fc6f0);"/>
   </g>
   <g id="patch_4">
    <path clip-path="url(#pb037986b5b)" d="M -272.866667 41.387424 
L 199.905 41.387424 
L 199.905 47.611178 
L -272.866667 47.611178 
z
" style="fill:url(#h249a7fc6f0);"/>
   </g>
   <g id="patch_5">
    <path clip-path="url(#pb037986b5b)" d="M -272.866667 59.16958 
L 242.066875 59.16958 
L 242.066875 65.393334 
L -272.866667 65.393334 
z
" style="fill:url(#h249a7fc6f0);"/>
   </g>
   <g id="patch_6">
    <path clip-path="url(#pb037986b5b)" d="M -272.866667 76.951735 
L 176.947292 76.951735 
L 176.947292 83.175489 
L -272.866667 83.175489 
z
" style="fill:url(#h249a7fc6f0);"/>
   </g>
   <g id="patch_7">
    <path clip-path="url(#pb037986b5b)" d="M -272.866667 94.73389 
L 242.066875 94.73389 
L 242.066875 100.957645 
L -272.866667 100.957645 
z
" style="fill:url(#h249a7fc6f0);"/>
   </g>
   <g id="patch_8">
    <path clip-path="url(#pb037986b5b)" d="M -272.866667 112.516046 
L 219.632917 112.516046 
L 219.632917 118.7398 
L -272.866667 118.7398 
z
" style="fill:url(#h249a7fc6f0);"/>
   </g>
   <g id="patch_9">
    <path clip-path="url(#pb037986b5b)" d="M -272.866667 130.298201 
L 180.0025 130.298201 
L 180.0025 136.521956 
L -272.866667 136.521956 
z
" style="fill:url(#h249a7fc6f0);"/>
   </g>
   <g id="patch_10">
    <path clip-path="url(#pb037986b5b)" d="M -272.866667 148.080357 
L 246.606042 148.080357 
L 246.606042 154.304111 
L -272.866667 154.304111 
z
" style="fill:url(#h249a7fc6f0);"/>
   </g>
   <g id="patch_11">
    <path clip-path="url(#pb037986b5b)" d="M -272.866667 165.862512 
L 241.106667 165.862512 
L 241.106667 172.086266 
L -272.866667 172.086266 
z
" style="fill:url(#h249a7fc6f0);"/>
   </g>
   <g id="patch_12">
    <path clip-path="url(#pb037986b5b)" d="M -272.866667 183.644667 
L 238.313333 183.644667 
L 238.313333 189.868422 
L -272.866667 189.868422 
z
" style="fill:url(#h249a7fc6f0);"/>
   </g>
   <g id="patch_13">
    <path clip-path="url(#pb037986b5b)" d="M -272.866667 201.426823 
L 246.51875 201.426823 
L 246.51875 207.650577 
L -272.866667 207.650577 
z
" style="fill:url(#h249a7fc6f0);"/>
   </g>
   <g id="patch_14">
    <path clip-path="url(#pb037986b5b)" d="M -272.866667 219.208978 
L 240.321042 219.208978 
L 240.321042 225.432733 
L -272.866667 225.432733 
z
" style="fill:url(#h249a7fc6f0);"/>
   </g>
   <g id="patch_15">
    <path clip-path="url(#pb037986b5b)" d="M -272.866667 236.991134 
L 242.154167 236.991134 
L 242.154167 243.214888 
L -272.866667 243.214888 
z
" style="fill:url(#h249a7fc6f0);"/>
   </g>
   <g id="patch_16">
    <path clip-path="url(#pb037986b5b)" d="M -272.866667 29.829023 
L 289.99 29.829023 
L 289.99 36.052777 
L -272.866667 36.052777 
z
" style="fill:url(#ha080795cc6);"/>
   </g>
   <g id="patch_17">
    <path clip-path="url(#pb037986b5b)" d="M -272.866667 47.611178 
L 294.354583 47.611178 
L 294.354583 53.834933 
L -272.866667 53.834933 
z
" style="fill:url(#ha080795cc6);"/>
   </g>
   <g id="patch_18">
    <path clip-path="url(#pb037986b5b)" d="M -272.866667 65.393334 
L 308.670417 65.393334 
L 308.670417 71.617088 
L -272.866667 71.617088 
z
" style="fill:url(#ha080795cc6);"/>
   </g>
   <g id="patch_19">
    <path clip-path="url(#pb037986b5b)" d="M -272.866667 83.175489 
L 302.03625 83.175489 
L 302.03625 89.399244 
L -272.866667 89.399244 
z
" style="fill:url(#ha080795cc6);"/>
   </g>
   <g id="patch_20">
    <path clip-path="url(#pb037986b5b)" d="M -272.866667 100.957645 
L 308.670417 100.957645 
L 308.670417 107.181399 
L -272.866667 107.181399 
z
" style="fill:url(#ha080795cc6);"/>
   </g>
   <g id="patch_21">
    <path clip-path="url(#pb037986b5b)" d="M -272.866667 118.7398 
L 292.870625 118.7398 
L 292.870625 124.963555 
L -272.866667 124.963555 
z
" style="fill:url(#ha080795cc6);"/>
   </g>
   <g id="patch_22">
    <path clip-path="url(#pb037986b5b)" d="M -272.866667 136.521956 
L 287.807708 136.521956 
L 287.807708 142.74571 
L -272.866667 142.74571 
z
" style="fill:url(#ha080795cc6);"/>
   </g>
   <g id="patch_23">
    <path clip-path="url(#pb037986b5b)" d="M -272.866667 154.304111 
L 311.638333 154.304111 
L 311.638333 160.527865 
L -272.866667 160.527865 
z
" style="fill:url(#ha080795cc6);"/>
   </g>
   <g id="patch_24">
    <path clip-path="url(#pb037986b5b)" d="M -272.866667 172.086266 
L 309.456042 172.086266 
L 309.456042 178.310021 
L -272.866667 178.310021 
z
" style="fill:url(#ha080795cc6);"/>
   </g>
   <g id="patch_25">
    <path clip-path="url(#pb037986b5b)" d="M -272.866667 189.868422 
L 301.774375 189.868422 
L 301.774375 196.092176 
L -272.866667 196.092176 
z
" style="fill:url(#ha080795cc6);"/>
   </g>
   <g id="patch_26">
    <path clip-path="url(#pb037986b5b)" d="M -272.866667 207.650577 
L 314.257083 207.650577 
L 314.257083 213.874332 
L -272.866667 213.874332 
z
" style="fill:url(#ha080795cc6);"/>
   </g>
   <g id="patch_27">
    <path clip-path="url(#pb037986b5b)" d="M -272.866667 225.432733 
L 311.551042 225.432733 
L 311.551042 231.656487 
L -272.866667 231.656487 
z
" style="fill:url(#ha080795cc6);"/>
   </g>
   <g id="patch_28">
    <path clip-path="url(#pb037986b5b)" d="M -272.866667 243.214888 
L 308.059375 243.214888 
L 308.059375 249.438642 
L -272.866667 249.438642 
z
" style="fill:url(#ha080795cc6);"/>
   </g>
   <g id="matplotlib.axis_1">
    <g id="xtick_1">
     <g id="line2d_1">
      <defs>
       <path d="M 0 0 
L 0 3.5 
" id="m8f9e8fd21d" style="stroke:#000000;stroke-width:0.8;"/>
      </defs>
      <g>
       <use style="stroke:#000000;stroke-width:0.8;" x="76.3" xlink:href="#m8f9e8fd21d" y="260.730311"/>
      </g>
     </g>
     <g id="text_1">
      <!-- 0.40 -->
      <defs>
       <path d="M 31.78125 66.40625 
Q 24.171875 66.40625 20.328125 58.90625 
Q 16.5 51.421875 16.5 36.375 
Q 16.5 21.390625 20.328125 13.890625 
Q 24.171875 6.390625 31.78125 6.390625 
Q 39.453125 6.390625 43.28125 13.890625 
Q 47.125 21.390625 47.125 36.375 
Q 47.125 51.421875 43.28125 58.90625 
Q 39.453125 66.40625 31.78125 66.40625 
z
M 31.78125 74.21875 
Q 44.046875 74.21875 50.515625 64.515625 
Q 56.984375 54.828125 56.984375 36.375 
Q 56.984375 17.96875 50.515625 8.265625 
Q 44.046875 -1.421875 31.78125 -1.421875 
Q 19.53125 -1.421875 13.0625 8.265625 
Q 6.59375 17.96875 6.59375 36.375 
Q 6.59375 54.828125 13.0625 64.515625 
Q 19.53125 74.21875 31.78125 74.21875 
z
" id="DejaVuSans-48"/>
       <path d="M 10.6875 12.40625 
L 21 12.40625 
L 21 0 
L 10.6875 0 
z
" id="DejaVuSans-46"/>
       <path d="M 37.796875 64.3125 
L 12.890625 25.390625 
L 37.796875 25.390625 
z
M 35.203125 72.90625 
L 47.609375 72.90625 
L 47.609375 25.390625 
L 58.015625 25.390625 
L 58.015625 17.1875 
L 47.609375 17.1875 
L 47.609375 0 
L 37.796875 0 
L 37.796875 17.1875 
L 4.890625 17.1875 
L 4.890625 26.703125 
z
" id="DejaVuSans-52"/>
      </defs>
      <g transform="translate(65.167188 275.328749)scale(0.1 -0.1)">
       <use xlink:href="#DejaVuSans-48"/>
       <use x="63.623047" xlink:href="#DejaVuSans-46"/>
       <use x="95.410156" xlink:href="#DejaVuSans-52"/>
       <use x="159.033203" xlink:href="#DejaVuSans-48"/>
      </g>
     </g>
    </g>
    <g id="xtick_2">
     <g id="line2d_2">
      <g>
       <use style="stroke:#000000;stroke-width:0.8;" x="119.945833" xlink:href="#m8f9e8fd21d" y="260.730311"/>
      </g>
     </g>
     <g id="text_2">
      <!-- 0.45 -->
      <defs>
       <path d="M 10.796875 72.90625 
L 49.515625 72.90625 
L 49.515625 64.59375 
L 19.828125 64.59375 
L 19.828125 46.734375 
Q 21.96875 47.46875 24.109375 47.828125 
Q 26.265625 48.1875 28.421875 48.1875 
Q 40.625 48.1875 47.75 41.5 
Q 54.890625 34.8125 54.890625 23.390625 
Q 54.890625 11.625 47.5625 5.09375 
Q 40.234375 -1.421875 26.90625 -1.421875 
Q 22.3125 -1.421875 17.546875 -0.640625 
Q 12.796875 0.140625 7.71875 1.703125 
L 7.71875 11.625 
Q 12.109375 9.234375 16.796875 8.0625 
Q 21.484375 6.890625 26.703125 6.890625 
Q 35.15625 6.890625 40.078125 11.328125 
Q 45.015625 15.765625 45.015625 23.390625 
Q 45.015625 31 40.078125 35.4375 
Q 35.15625 39.890625 26.703125 39.890625 
Q 22.75 39.890625 18.8125 39.015625 
Q 14.890625 38.140625 10.796875 36.28125 
z
" id="DejaVuSans-53"/>
      </defs>
      <g transform="translate(108.813021 275.328749)scale(0.1 -0.1)">
       <use xlink:href="#DejaVuSans-48"/>
       <use x="63.623047" xlink:href="#DejaVuSans-46"/>
       <use x="95.410156" xlink:href="#DejaVuSans-52"/>
       <use x="159.033203" xlink:href="#DejaVuSans-53"/>
      </g>
     </g>
    </g>
    <g id="xtick_3">
     <g id="line2d_3">
      <g>
       <use style="stroke:#000000;stroke-width:0.8;" x="163.591667" xlink:href="#m8f9e8fd21d" y="260.730311"/>
      </g>
     </g>
     <g id="text_3">
      <!-- 0.50 -->
      <g transform="translate(152.458854 275.328749)scale(0.1 -0.1)">
       <use xlink:href="#DejaVuSans-48"/>
       <use x="63.623047" xlink:href="#DejaVuSans-46"/>
       <use x="95.410156" xlink:href="#DejaVuSans-53"/>
       <use x="159.033203" xlink:href="#DejaVuSans-48"/>
      </g>
     </g>
    </g>
    <g id="xtick_4">
     <g id="line2d_4">
      <g>
       <use style="stroke:#000000;stroke-width:0.8;" x="207.2375" xlink:href="#m8f9e8fd21d" y="260.730311"/>
      </g>
     </g>
     <g id="text_4">
      <!-- 0.55 -->
      <g transform="translate(196.104688 275.328749)scale(0.1 -0.1)">
       <use xlink:href="#DejaVuSans-48"/>
       <use x="63.623047" xlink:href="#DejaVuSans-46"/>
       <use x="95.410156" xlink:href="#DejaVuSans-53"/>
       <use x="159.033203" xlink:href="#DejaVuSans-53"/>
      </g>
     </g>
    </g>
    <g id="xtick_5">
     <g id="line2d_5">
      <g>
       <use style="stroke:#000000;stroke-width:0.8;" x="250.883333" xlink:href="#m8f9e8fd21d" y="260.730311"/>
      </g>
     </g>
     <g id="text_5">
      <!-- 0.60 -->
      <defs>
       <path d="M 33.015625 40.375 
Q 26.375 40.375 22.484375 35.828125 
Q 18.609375 31.296875 18.609375 23.390625 
Q 18.609375 15.53125 22.484375 10.953125 
Q 26.375 6.390625 33.015625 6.390625 
Q 39.65625 6.390625 43.53125 10.953125 
Q 47.40625 15.53125 47.40625 23.390625 
Q 47.40625 31.296875 43.53125 35.828125 
Q 39.65625 40.375 33.015625 40.375 
z
M 52.59375 71.296875 
L 52.59375 62.3125 
Q 48.875 64.0625 45.09375 64.984375 
Q 41.3125 65.921875 37.59375 65.921875 
Q 27.828125 65.921875 22.671875 59.328125 
Q 17.53125 52.734375 16.796875 39.40625 
Q 19.671875 43.65625 24.015625 45.921875 
Q 28.375 48.1875 33.59375 48.1875 
Q 44.578125 48.1875 50.953125 41.515625 
Q 57.328125 34.859375 57.328125 23.390625 
Q 57.328125 12.15625 50.6875 5.359375 
Q 44.046875 -1.421875 33.015625 -1.421875 
Q 20.359375 -1.421875 13.671875 8.265625 
Q 6.984375 17.96875 6.984375 36.375 
Q 6.984375 53.65625 15.1875 63.9375 
Q 23.390625 74.21875 37.203125 74.21875 
Q 40.921875 74.21875 44.703125 73.484375 
Q 48.484375 72.75 52.59375 71.296875 
z
" id="DejaVuSans-54"/>
      </defs>
      <g transform="translate(239.750521 275.328749)scale(0.1 -0.1)">
       <use xlink:href="#DejaVuSans-48"/>
       <use x="63.623047" xlink:href="#DejaVuSans-46"/>
       <use x="95.410156" xlink:href="#DejaVuSans-54"/>
       <use x="159.033203" xlink:href="#DejaVuSans-48"/>
      </g>
     </g>
    </g>
    <g id="xtick_6">
     <g id="line2d_6">
      <g>
       <use style="stroke:#000000;stroke-width:0.8;" x="294.529167" xlink:href="#m8f9e8fd21d" y="260.730311"/>
      </g>
     </g>
     <g id="text_6">
      <!-- 0.65 -->
      <g transform="translate(283.396354 275.328749)scale(0.1 -0.1)">
       <use xlink:href="#DejaVuSans-48"/>
       <use x="63.623047" xlink:href="#DejaVuSans-46"/>
       <use x="95.410156" xlink:href="#DejaVuSans-54"/>
       <use x="159.033203" xlink:href="#DejaVuSans-53"/>
      </g>
     </g>
    </g>
    <g id="xtick_7">
     <g id="line2d_7">
      <g>
       <use style="stroke:#000000;stroke-width:0.8;" x="338.175" xlink:href="#m8f9e8fd21d" y="260.730311"/>
      </g>
     </g>
     <g id="text_7">
      <!-- 0.70 -->
      <defs>
       <path d="M 8.203125 72.90625 
L 55.078125 72.90625 
L 55.078125 68.703125 
L 28.609375 0 
L 18.3125 0 
L 43.21875 64.59375 
L 8.203125 64.59375 
z
" id="DejaVuSans-55"/>
      </defs>
      <g transform="translate(327.042188 275.328749)scale(0.1 -0.1)">
       <use xlink:href="#DejaVuSans-48"/>
       <use x="63.623047" xlink:href="#DejaVuSans-46"/>
       <use x="95.410156" xlink:href="#DejaVuSans-55"/>
       <use x="159.033203" xlink:href="#DejaVuSans-48"/>
      </g>
     </g>
    </g>
    <g id="text_8">
     <!-- bpref score -->
     <defs>
      <path d="M 48.6875 27.296875 
Q 48.6875 37.203125 44.609375 42.84375 
Q 40.53125 48.484375 33.40625 48.484375 
Q 26.265625 48.484375 22.1875 42.84375 
Q 18.109375 37.203125 18.109375 27.296875 
Q 18.109375 17.390625 22.1875 11.75 
Q 26.265625 6.109375 33.40625 6.109375 
Q 40.53125 6.109375 44.609375 11.75 
Q 48.6875 17.390625 48.6875 27.296875 
z
M 18.109375 46.390625 
Q 20.953125 51.265625 25.265625 53.625 
Q 29.59375 56 35.59375 56 
Q 45.5625 56 51.78125 48.09375 
Q 58.015625 40.1875 58.015625 27.296875 
Q 58.015625 14.40625 51.78125 6.484375 
Q 45.5625 -1.421875 35.59375 -1.421875 
Q 29.59375 -1.421875 25.265625 0.953125 
Q 20.953125 3.328125 18.109375 8.203125 
L 18.109375 0 
L 9.078125 0 
L 9.078125 75.984375 
L 18.109375 75.984375 
z
" id="DejaVuSans-98"/>
      <path d="M 18.109375 8.203125 
L 18.109375 -20.796875 
L 9.078125 -20.796875 
L 9.078125 54.6875 
L 18.109375 54.6875 
L 18.109375 46.390625 
Q 20.953125 51.265625 25.265625 53.625 
Q 29.59375 56 35.59375 56 
Q 45.5625 56 51.78125 48.09375 
Q 58.015625 40.1875 58.015625 27.296875 
Q 58.015625 14.40625 51.78125 6.484375 
Q 45.5625 -1.421875 35.59375 -1.421875 
Q 29.59375 -1.421875 25.265625 0.953125 
Q 20.953125 3.328125 18.109375 8.203125 
z
M 48.6875 27.296875 
Q 48.6875 37.203125 44.609375 42.84375 
Q 40.53125 48.484375 33.40625 48.484375 
Q 26.265625 48.484375 22.1875 42.84375 
Q 18.109375 37.203125 18.109375 27.296875 
Q 18.109375 17.390625 22.1875 11.75 
Q 26.265625 6.109375 33.40625 6.109375 
Q 40.53125 6.109375 44.609375 11.75 
Q 48.6875 17.390625 48.6875 27.296875 
z
" id="DejaVuSans-112"/>
      <path d="M 41.109375 46.296875 
Q 39.59375 47.171875 37.8125 47.578125 
Q 36.03125 48 33.890625 48 
Q 26.265625 48 22.1875 43.046875 
Q 18.109375 38.09375 18.109375 28.8125 
L 18.109375 0 
L 9.078125 0 
L 9.078125 54.6875 
L 18.109375 54.6875 
L 18.109375 46.1875 
Q 20.953125 51.171875 25.484375 53.578125 
Q 30.03125 56 36.53125 56 
Q 37.453125 56 38.578125 55.875 
Q 39.703125 55.765625 41.0625 55.515625 
z
" id="DejaVuSans-114"/>
      <path d="M 56.203125 29.59375 
L 56.203125 25.203125 
L 14.890625 25.203125 
Q 15.484375 15.921875 20.484375 11.0625 
Q 25.484375 6.203125 34.421875 6.203125 
Q 39.59375 6.203125 44.453125 7.46875 
Q 49.3125 8.734375 54.109375 11.28125 
L 54.109375 2.78125 
Q 49.265625 0.734375 44.1875 -0.34375 
Q 39.109375 -1.421875 33.890625 -1.421875 
Q 20.796875 -1.421875 13.15625 6.1875 
Q 5.515625 13.8125 5.515625 26.8125 
Q 5.515625 40.234375 12.765625 48.109375 
Q 20.015625 56 32.328125 56 
Q 43.359375 56 49.78125 48.890625 
Q 56.203125 41.796875 56.203125 29.59375 
z
M 47.21875 32.234375 
Q 47.125 39.59375 43.09375 43.984375 
Q 39.0625 48.390625 32.421875 48.390625 
Q 24.90625 48.390625 20.390625 44.140625 
Q 15.875 39.890625 15.1875 32.171875 
z
" id="DejaVuSans-101"/>
      <path d="M 37.109375 75.984375 
L 37.109375 68.5 
L 28.515625 68.5 
Q 23.6875 68.5 21.796875 66.546875 
Q 19.921875 64.59375 19.921875 59.515625 
L 19.921875 54.6875 
L 34.71875 54.6875 
L 34.71875 47.703125 
L 19.921875 47.703125 
L 19.921875 0 
L 10.890625 0 
L 10.890625 47.703125 
L 2.296875 47.703125 
L 2.296875 54.6875 
L 10.890625 54.6875 
L 10.890625 58.5 
Q 10.890625 67.625 15.140625 71.796875 
Q 19.390625 75.984375 28.609375 75.984375 
z
" id="DejaVuSans-102"/>
      <path id="DejaVuSans-32"/>
      <path d="M 44.28125 53.078125 
L 44.28125 44.578125 
Q 40.484375 46.53125 36.375 47.5 
Q 32.28125 48.484375 27.875 48.484375 
Q 21.1875 48.484375 17.84375 46.4375 
Q 14.5 44.390625 14.5 40.28125 
Q 14.5 37.15625 16.890625 35.375 
Q 19.28125 33.59375 26.515625 31.984375 
L 29.59375 31.296875 
Q 39.15625 29.25 43.1875 25.515625 
Q 47.21875 21.78125 47.21875 15.09375 
Q 47.21875 7.46875 41.1875 3.015625 
Q 35.15625 -1.421875 24.609375 -1.421875 
Q 20.21875 -1.421875 15.453125 -0.5625 
Q 10.6875 0.296875 5.421875 2 
L 5.421875 11.28125 
Q 10.40625 8.6875 15.234375 7.390625 
Q 20.0625 6.109375 24.8125 6.109375 
Q 31.15625 6.109375 34.5625 8.28125 
Q 37.984375 10.453125 37.984375 14.40625 
Q 37.984375 18.0625 35.515625 20.015625 
Q 33.0625 21.96875 24.703125 23.78125 
L 21.578125 24.515625 
Q 13.234375 26.265625 9.515625 29.90625 
Q 5.8125 33.546875 5.8125 39.890625 
Q 5.8125 47.609375 11.28125 51.796875 
Q 16.75 56 26.8125 56 
Q 31.78125 56 36.171875 55.265625 
Q 40.578125 54.546875 44.28125 53.078125 
z
" id="DejaVuSans-115"/>
      <path d="M 48.78125 52.59375 
L 48.78125 44.1875 
Q 44.96875 46.296875 41.140625 47.34375 
Q 37.3125 48.390625 33.40625 48.390625 
Q 24.65625 48.390625 19.8125 42.84375 
Q 14.984375 37.3125 14.984375 27.296875 
Q 14.984375 17.28125 19.8125 11.734375 
Q 24.65625 6.203125 33.40625 6.203125 
Q 37.3125 6.203125 41.140625 7.25 
Q 44.96875 8.296875 48.78125 10.40625 
L 48.78125 2.09375 
Q 45.015625 0.34375 40.984375 -0.53125 
Q 36.96875 -1.421875 32.421875 -1.421875 
Q 20.0625 -1.421875 12.78125 6.34375 
Q 5.515625 14.109375 5.515625 27.296875 
Q 5.515625 40.671875 12.859375 48.328125 
Q 20.21875 56 33.015625 56 
Q 37.15625 56 41.109375 55.140625 
Q 45.0625 54.296875 48.78125 52.59375 
z
" id="DejaVuSans-99"/>
      <path d="M 30.609375 48.390625 
Q 23.390625 48.390625 19.1875 42.75 
Q 14.984375 37.109375 14.984375 27.296875 
Q 14.984375 17.484375 19.15625 11.84375 
Q 23.34375 6.203125 30.609375 6.203125 
Q 37.796875 6.203125 41.984375 11.859375 
Q 46.1875 17.53125 46.1875 27.296875 
Q 46.1875 37.015625 41.984375 42.703125 
Q 37.796875 48.390625 30.609375 48.390625 
z
M 30.609375 56 
Q 42.328125 56 49.015625 48.375 
Q 55.71875 40.765625 55.71875 27.296875 
Q 55.71875 13.875 49.015625 6.21875 
Q 42.328125 -1.421875 30.609375 -1.421875 
Q 18.84375 -1.421875 12.171875 6.21875 
Q 5.515625 13.875 5.515625 27.296875 
Q 5.515625 40.765625 12.171875 48.375 
Q 18.84375 56 30.609375 56 
z
" id="DejaVuSans-111"/>
     </defs>
     <g transform="translate(178.865625 289.006874)scale(0.1 -0.1)">
      <use xlink:href="#DejaVuSans-98"/>
      <use x="63.476562" xlink:href="#DejaVuSans-112"/>
      <use x="126.953125" xlink:href="#DejaVuSans-114"/>
      <use x="168.035156" xlink:href="#DejaVuSans-101"/>
      <use x="229.558594" xlink:href="#DejaVuSans-102"/>
      <use x="264.763672" xlink:href="#DejaVuSans-32"/>
      <use x="296.550781" xlink:href="#DejaVuSans-115"/>
      <use x="348.650391" xlink:href="#DejaVuSans-99"/>
      <use x="403.630859" xlink:href="#DejaVuSans-111"/>
      <use x="464.8125" xlink:href="#DejaVuSans-114"/>
      <use x="505.894531" xlink:href="#DejaVuSans-101"/>
     </g>
    </g>
   </g>
   <g id="matplotlib.axis_2">
    <g id="ytick_1">
     <g id="line2d_8">
      <defs>
       <path d="M 0 0 
L -3.5 0 
" id="m8468a2beee" style="stroke:#000000;stroke-width:0.8;"/>
      </defs>
      <g>
       <use style="stroke:#000000;stroke-width:0.8;" x="76.3" xlink:href="#m8468a2beee" y="32.9409"/>
      </g>
     </g>
     <g id="text_9">
      <!-- opt-only -->
      <defs>
       <path d="M 18.3125 70.21875 
L 18.3125 54.6875 
L 36.8125 54.6875 
L 36.8125 47.703125 
L 18.3125 47.703125 
L 18.3125 18.015625 
Q 18.3125 11.328125 20.140625 9.421875 
Q 21.96875 7.515625 27.59375 7.515625 
L 36.8125 7.515625 
L 36.8125 0 
L 27.59375 0 
Q 17.1875 0 13.234375 3.875 
Q 9.28125 7.765625 9.28125 18.015625 
L 9.28125 47.703125 
L 2.6875 47.703125 
L 2.6875 54.6875 
L 9.28125 54.6875 
L 9.28125 70.21875 
z
" id="DejaVuSans-116"/>
       <path d="M 4.890625 31.390625 
L 31.203125 31.390625 
L 31.203125 23.390625 
L 4.890625 23.390625 
z
" id="DejaVuSans-45"/>
       <path d="M 54.890625 33.015625 
L 54.890625 0 
L 45.90625 0 
L 45.90625 32.71875 
Q 45.90625 40.484375 42.875 44.328125 
Q 39.84375 48.1875 33.796875 48.1875 
Q 26.515625 48.1875 22.3125 43.546875 
Q 18.109375 38.921875 18.109375 30.90625 
L 18.109375 0 
L 9.078125 0 
L 9.078125 54.6875 
L 18.109375 54.6875 
L 18.109375 46.1875 
Q 21.34375 51.125 25.703125 53.5625 
Q 30.078125 56 35.796875 56 
Q 45.21875 56 50.046875 50.171875 
Q 54.890625 44.34375 54.890625 33.015625 
z
" id="DejaVuSans-110"/>
       <path d="M 9.421875 75.984375 
L 18.40625 75.984375 
L 18.40625 0 
L 9.421875 0 
z
" id="DejaVuSans-108"/>
       <path d="M 32.171875 -5.078125 
Q 28.375 -14.84375 24.75 -17.8125 
Q 21.140625 -20.796875 15.09375 -20.796875 
L 7.90625 -20.796875 
L 7.90625 -13.28125 
L 13.1875 -13.28125 
Q 16.890625 -13.28125 18.9375 -11.515625 
Q 21 -9.765625 23.484375 -3.21875 
L 25.09375 0.875 
L 2.984375 54.6875 
L 12.5 54.6875 
L 29.59375 11.921875 
L 46.6875 54.6875 
L 56.203125 54.6875 
z
" id="DejaVuSans-121"/>
      </defs>
      <g transform="translate(28.15 36.740119)scale(0.1 -0.1)">
       <use xlink:href="#DejaVuSans-111"/>
       <use x="61.181641" xlink:href="#DejaVuSans-112"/>
       <use x="124.658203" xlink:href="#DejaVuSans-116"/>
       <use x="163.867188" xlink:href="#DejaVuSans-45"/>
       <use x="199.966797" xlink:href="#DejaVuSans-111"/>
       <use x="261.148438" xlink:href="#DejaVuSans-110"/>
       <use x="324.527344" xlink:href="#DejaVuSans-108"/>
       <use x="352.310547" xlink:href="#DejaVuSans-121"/>
      </g>
     </g>
    </g>
    <g id="ytick_2">
     <g id="line2d_9">
      <g>
       <use style="stroke:#000000;stroke-width:0.8;" x="76.3" xlink:href="#m8468a2beee" y="50.723056"/>
      </g>
     </g>
     <g id="text_10">
      <!-- opd-opt-a6 -->
      <defs>
       <path d="M 45.40625 46.390625 
L 45.40625 75.984375 
L 54.390625 75.984375 
L 54.390625 0 
L 45.40625 0 
L 45.40625 8.203125 
Q 42.578125 3.328125 38.25 0.953125 
Q 33.9375 -1.421875 27.875 -1.421875 
Q 17.96875 -1.421875 11.734375 6.484375 
Q 5.515625 14.40625 5.515625 27.296875 
Q 5.515625 40.1875 11.734375 48.09375 
Q 17.96875 56 27.875 56 
Q 33.9375 56 38.25 53.625 
Q 42.578125 51.265625 45.40625 46.390625 
z
M 14.796875 27.296875 
Q 14.796875 17.390625 18.875 11.75 
Q 22.953125 6.109375 30.078125 6.109375 
Q 37.203125 6.109375 41.296875 11.75 
Q 45.40625 17.390625 45.40625 27.296875 
Q 45.40625 37.203125 41.296875 42.84375 
Q 37.203125 48.484375 30.078125 48.484375 
Q 22.953125 48.484375 18.875 42.84375 
Q 14.796875 37.203125 14.796875 27.296875 
z
" id="DejaVuSans-100"/>
       <path d="M 34.28125 27.484375 
Q 23.390625 27.484375 19.1875 25 
Q 14.984375 22.515625 14.984375 16.5 
Q 14.984375 11.71875 18.140625 8.90625 
Q 21.296875 6.109375 26.703125 6.109375 
Q 34.1875 6.109375 38.703125 11.40625 
Q 43.21875 16.703125 43.21875 25.484375 
L 43.21875 27.484375 
z
M 52.203125 31.203125 
L 52.203125 0 
L 43.21875 0 
L 43.21875 8.296875 
Q 40.140625 3.328125 35.546875 0.953125 
Q 30.953125 -1.421875 24.3125 -1.421875 
Q 15.921875 -1.421875 10.953125 3.296875 
Q 6 8.015625 6 15.921875 
Q 6 25.140625 12.171875 29.828125 
Q 18.359375 34.515625 30.609375 34.515625 
L 43.21875 34.515625 
L 43.21875 35.40625 
Q 43.21875 41.609375 39.140625 45 
Q 35.0625 48.390625 27.6875 48.390625 
Q 23 48.390625 18.546875 47.265625 
Q 14.109375 46.140625 10.015625 43.890625 
L 10.015625 52.203125 
Q 14.9375 54.109375 19.578125 55.046875 
Q 24.21875 56 28.609375 56 
Q 40.484375 56 46.34375 49.84375 
Q 52.203125 43.703125 52.203125 31.203125 
z
" id="DejaVuSans-97"/>
      </defs>
      <g transform="translate(14.389062 54.522274)scale(0.1 -0.1)">
       <use xlink:href="#DejaVuSans-111"/>
       <use x="61.181641" xlink:href="#DejaVuSans-112"/>
       <use x="124.658203" xlink:href="#DejaVuSans-100"/>
       <use x="188.134766" xlink:href="#DejaVuSans-45"/>
       <use x="224.234375" xlink:href="#DejaVuSans-111"/>
       <use x="285.416016" xlink:href="#DejaVuSans-112"/>
       <use x="348.892578" xlink:href="#DejaVuSans-116"/>
       <use x="388.101562" xlink:href="#DejaVuSans-45"/>
       <use x="424.185547" xlink:href="#DejaVuSans-97"/>
       <use x="485.464844" xlink:href="#DejaVuSans-54"/>
      </g>
     </g>
    </g>
    <g id="ytick_3">
     <g id="line2d_10">
      <g>
       <use style="stroke:#000000;stroke-width:0.8;" x="76.3" xlink:href="#m8468a2beee" y="68.505211"/>
      </g>
     </g>
     <g id="text_11">
      <!-- opd-opt-a4 -->
      <g transform="translate(14.389062 72.30443)scale(0.1 -0.1)">
       <use xlink:href="#DejaVuSans-111"/>
       <use x="61.181641" xlink:href="#DejaVuSans-112"/>
       <use x="124.658203" xlink:href="#DejaVuSans-100"/>
       <use x="188.134766" xlink:href="#DejaVuSans-45"/>
       <use x="224.234375" xlink:href="#DejaVuSans-111"/>
       <use x="285.416016" xlink:href="#DejaVuSans-112"/>
       <use x="348.892578" xlink:href="#DejaVuSans-116"/>
       <use x="388.101562" xlink:href="#DejaVuSans-45"/>
       <use x="424.185547" xlink:href="#DejaVuSans-97"/>
       <use x="485.464844" xlink:href="#DejaVuSans-52"/>
      </g>
     </g>
    </g>
    <g id="ytick_4">
     <g id="line2d_11">
      <g>
       <use style="stroke:#000000;stroke-width:0.8;" x="76.3" xlink:href="#m8468a2beee" y="86.287367"/>
      </g>
     </g>
     <g id="text_12">
      <!-- opd-only -->
      <g transform="translate(25.721875 90.086585)scale(0.1 -0.1)">
       <use xlink:href="#DejaVuSans-111"/>
       <use x="61.181641" xlink:href="#DejaVuSans-112"/>
       <use x="124.658203" xlink:href="#DejaVuSans-100"/>
       <use x="188.134766" xlink:href="#DejaVuSans-45"/>
       <use x="224.234375" xlink:href="#DejaVuSans-111"/>
       <use x="285.416016" xlink:href="#DejaVuSans-110"/>
       <use x="348.794922" xlink:href="#DejaVuSans-108"/>
       <use x="376.578125" xlink:href="#DejaVuSans-121"/>
      </g>
     </g>
    </g>
    <g id="ytick_5">
     <g id="line2d_12">
      <g>
       <use style="stroke:#000000;stroke-width:0.8;" x="76.3" xlink:href="#m8468a2beee" y="104.069522"/>
      </g>
     </g>
     <g id="text_13">
      <!-- uni-beta-1 -->
      <defs>
       <path d="M 8.5 21.578125 
L 8.5 54.6875 
L 17.484375 54.6875 
L 17.484375 21.921875 
Q 17.484375 14.15625 20.5 10.265625 
Q 23.53125 6.390625 29.59375 6.390625 
Q 36.859375 6.390625 41.078125 11.03125 
Q 45.3125 15.671875 45.3125 23.6875 
L 45.3125 54.6875 
L 54.296875 54.6875 
L 54.296875 0 
L 45.3125 0 
L 45.3125 8.40625 
Q 42.046875 3.421875 37.71875 1 
Q 33.40625 -1.421875 27.6875 -1.421875 
Q 18.265625 -1.421875 13.375 4.4375 
Q 8.5 10.296875 8.5 21.578125 
z
M 31.109375 56 
z
" id="DejaVuSans-117"/>
       <path d="M 9.421875 54.6875 
L 18.40625 54.6875 
L 18.40625 0 
L 9.421875 0 
z
M 9.421875 75.984375 
L 18.40625 75.984375 
L 18.40625 64.59375 
L 9.421875 64.59375 
z
" id="DejaVuSans-105"/>
       <path d="M 12.40625 8.296875 
L 28.515625 8.296875 
L 28.515625 63.921875 
L 10.984375 60.40625 
L 10.984375 69.390625 
L 28.421875 72.90625 
L 38.28125 72.90625 
L 38.28125 8.296875 
L 54.390625 8.296875 
L 54.390625 0 
L 12.40625 0 
z
" id="DejaVuSans-49"/>
      </defs>
      <g transform="translate(17.71875 107.868741)scale(0.1 -0.1)">
       <use xlink:href="#DejaVuSans-117"/>
       <use x="63.378906" xlink:href="#DejaVuSans-110"/>
       <use x="126.757812" xlink:href="#DejaVuSans-105"/>
       <use x="154.541016" xlink:href="#DejaVuSans-45"/>
       <use x="190.625" xlink:href="#DejaVuSans-98"/>
       <use x="254.101562" xlink:href="#DejaVuSans-101"/>
       <use x="315.625" xlink:href="#DejaVuSans-116"/>
       <use x="354.833984" xlink:href="#DejaVuSans-97"/>
       <use x="416.113281" xlink:href="#DejaVuSans-45"/>
       <use x="452.197266" xlink:href="#DejaVuSans-49"/>
      </g>
     </g>
    </g>
    <g id="ytick_6">
     <g id="line2d_13">
      <g>
       <use style="stroke:#000000;stroke-width:0.8;" x="76.3" xlink:href="#m8468a2beee" y="121.851677"/>
      </g>
     </g>
     <g id="text_14">
      <!-- uni-beta-2 -->
      <defs>
       <path d="M 19.1875 8.296875 
L 53.609375 8.296875 
L 53.609375 0 
L 7.328125 0 
L 7.328125 8.296875 
Q 12.9375 14.109375 22.625 23.890625 
Q 32.328125 33.6875 34.8125 36.53125 
Q 39.546875 41.84375 41.421875 45.53125 
Q 43.3125 49.21875 43.3125 52.78125 
Q 43.3125 58.59375 39.234375 62.25 
Q 35.15625 65.921875 28.609375 65.921875 
Q 23.96875 65.921875 18.8125 64.3125 
Q 13.671875 62.703125 7.8125 59.421875 
L 7.8125 69.390625 
Q 13.765625 71.78125 18.9375 73 
Q 24.125 74.21875 28.421875 74.21875 
Q 39.75 74.21875 46.484375 68.546875 
Q 53.21875 62.890625 53.21875 53.421875 
Q 53.21875 48.921875 51.53125 44.890625 
Q 49.859375 40.875 45.40625 35.40625 
Q 44.1875 33.984375 37.640625 27.21875 
Q 31.109375 20.453125 19.1875 8.296875 
z
" id="DejaVuSans-50"/>
      </defs>
      <g transform="translate(17.71875 125.650896)scale(0.1 -0.1)">
       <use xlink:href="#DejaVuSans-117"/>
       <use x="63.378906" xlink:href="#DejaVuSans-110"/>
       <use x="126.757812" xlink:href="#DejaVuSans-105"/>
       <use x="154.541016" xlink:href="#DejaVuSans-45"/>
       <use x="190.625" xlink:href="#DejaVuSans-98"/>
       <use x="254.101562" xlink:href="#DejaVuSans-101"/>
       <use x="315.625" xlink:href="#DejaVuSans-116"/>
       <use x="354.833984" xlink:href="#DejaVuSans-97"/>
       <use x="416.113281" xlink:href="#DejaVuSans-45"/>
       <use x="452.197266" xlink:href="#DejaVuSans-50"/>
      </g>
     </g>
    </g>
    <g id="ytick_7">
     <g id="line2d_14">
      <g>
       <use style="stroke:#000000;stroke-width:0.8;" x="76.3" xlink:href="#m8468a2beee" y="139.633833"/>
      </g>
     </g>
     <g id="text_15">
      <!-- uni-beta-3 -->
      <defs>
       <path d="M 40.578125 39.3125 
Q 47.65625 37.796875 51.625 33 
Q 55.609375 28.21875 55.609375 21.1875 
Q 55.609375 10.40625 48.1875 4.484375 
Q 40.765625 -1.421875 27.09375 -1.421875 
Q 22.515625 -1.421875 17.65625 -0.515625 
Q 12.796875 0.390625 7.625 2.203125 
L 7.625 11.71875 
Q 11.71875 9.328125 16.59375 8.109375 
Q 21.484375 6.890625 26.8125 6.890625 
Q 36.078125 6.890625 40.9375 10.546875 
Q 45.796875 14.203125 45.796875 21.1875 
Q 45.796875 27.640625 41.28125 31.265625 
Q 36.765625 34.90625 28.71875 34.90625 
L 20.21875 34.90625 
L 20.21875 43.015625 
L 29.109375 43.015625 
Q 36.375 43.015625 40.234375 45.921875 
Q 44.09375 48.828125 44.09375 54.296875 
Q 44.09375 59.90625 40.109375 62.90625 
Q 36.140625 65.921875 28.71875 65.921875 
Q 24.65625 65.921875 20.015625 65.03125 
Q 15.375 64.15625 9.8125 62.3125 
L 9.8125 71.09375 
Q 15.4375 72.65625 20.34375 73.4375 
Q 25.25 74.21875 29.59375 74.21875 
Q 40.828125 74.21875 47.359375 69.109375 
Q 53.90625 64.015625 53.90625 55.328125 
Q 53.90625 49.265625 50.4375 45.09375 
Q 46.96875 40.921875 40.578125 39.3125 
z
" id="DejaVuSans-51"/>
      </defs>
      <g transform="translate(17.71875 143.433052)scale(0.1 -0.1)">
       <use xlink:href="#DejaVuSans-117"/>
       <use x="63.378906" xlink:href="#DejaVuSans-110"/>
       <use x="126.757812" xlink:href="#DejaVuSans-105"/>
       <use x="154.541016" xlink:href="#DejaVuSans-45"/>
       <use x="190.625" xlink:href="#DejaVuSans-98"/>
       <use x="254.101562" xlink:href="#DejaVuSans-101"/>
       <use x="315.625" xlink:href="#DejaVuSans-116"/>
       <use x="354.833984" xlink:href="#DejaVuSans-97"/>
       <use x="416.113281" xlink:href="#DejaVuSans-45"/>
       <use x="452.197266" xlink:href="#DejaVuSans-51"/>
      </g>
     </g>
    </g>
    <g id="ytick_8">
     <g id="line2d_15">
      <g>
       <use style="stroke:#000000;stroke-width:0.8;" x="76.3" xlink:href="#m8468a2beee" y="157.415988"/>
      </g>
     </g>
     <g id="text_16">
      <!-- 2-beta-98 -->
      <defs>
       <path d="M 10.984375 1.515625 
L 10.984375 10.5 
Q 14.703125 8.734375 18.5 7.8125 
Q 22.3125 6.890625 25.984375 6.890625 
Q 35.75 6.890625 40.890625 13.453125 
Q 46.046875 20.015625 46.78125 33.40625 
Q 43.953125 29.203125 39.59375 26.953125 
Q 35.25 24.703125 29.984375 24.703125 
Q 19.046875 24.703125 12.671875 31.3125 
Q 6.296875 37.9375 6.296875 49.421875 
Q 6.296875 60.640625 12.9375 67.421875 
Q 19.578125 74.21875 30.609375 74.21875 
Q 43.265625 74.21875 49.921875 64.515625 
Q 56.59375 54.828125 56.59375 36.375 
Q 56.59375 19.140625 48.40625 8.859375 
Q 40.234375 -1.421875 26.421875 -1.421875 
Q 22.703125 -1.421875 18.890625 -0.6875 
Q 15.09375 0.046875 10.984375 1.515625 
z
M 30.609375 32.421875 
Q 37.25 32.421875 41.125 36.953125 
Q 45.015625 41.5 45.015625 49.421875 
Q 45.015625 57.28125 41.125 61.84375 
Q 37.25 66.40625 30.609375 66.40625 
Q 23.96875 66.40625 20.09375 61.84375 
Q 16.21875 57.28125 16.21875 49.421875 
Q 16.21875 41.5 20.09375 36.953125 
Q 23.96875 32.421875 30.609375 32.421875 
z
" id="DejaVuSans-57"/>
       <path d="M 31.78125 34.625 
Q 24.75 34.625 20.71875 30.859375 
Q 16.703125 27.09375 16.703125 20.515625 
Q 16.703125 13.921875 20.71875 10.15625 
Q 24.75 6.390625 31.78125 6.390625 
Q 38.8125 6.390625 42.859375 10.171875 
Q 46.921875 13.96875 46.921875 20.515625 
Q 46.921875 27.09375 42.890625 30.859375 
Q 38.875 34.625 31.78125 34.625 
z
M 21.921875 38.8125 
Q 15.578125 40.375 12.03125 44.71875 
Q 8.5 49.078125 8.5 55.328125 
Q 8.5 64.0625 14.71875 69.140625 
Q 20.953125 74.21875 31.78125 74.21875 
Q 42.671875 74.21875 48.875 69.140625 
Q 55.078125 64.0625 55.078125 55.328125 
Q 55.078125 49.078125 51.53125 44.71875 
Q 48 40.375 41.703125 38.8125 
Q 48.828125 37.15625 52.796875 32.3125 
Q 56.78125 27.484375 56.78125 20.515625 
Q 56.78125 9.90625 50.3125 4.234375 
Q 43.84375 -1.421875 31.78125 -1.421875 
Q 19.734375 -1.421875 13.25 4.234375 
Q 6.78125 9.90625 6.78125 20.515625 
Q 6.78125 27.484375 10.78125 32.3125 
Q 14.796875 37.15625 21.921875 38.8125 
z
M 18.3125 54.390625 
Q 18.3125 48.734375 21.84375 45.5625 
Q 25.390625 42.390625 31.78125 42.390625 
Q 38.140625 42.390625 41.71875 45.5625 
Q 45.3125 48.734375 45.3125 54.390625 
Q 45.3125 60.0625 41.71875 63.234375 
Q 38.140625 66.40625 31.78125 66.40625 
Q 25.390625 66.40625 21.84375 63.234375 
Q 18.3125 60.0625 18.3125 54.390625 
z
" id="DejaVuSans-56"/>
      </defs>
      <g transform="translate(20.446875 161.215207)scale(0.1 -0.1)">
       <use xlink:href="#DejaVuSans-50"/>
       <use x="63.623047" xlink:href="#DejaVuSans-45"/>
       <use x="99.707031" xlink:href="#DejaVuSans-98"/>
       <use x="163.183594" xlink:href="#DejaVuSans-101"/>
       <use x="224.707031" xlink:href="#DejaVuSans-116"/>
       <use x="263.916016" xlink:href="#DejaVuSans-97"/>
       <use x="325.195312" xlink:href="#DejaVuSans-45"/>
       <use x="361.279297" xlink:href="#DejaVuSans-57"/>
       <use x="424.902344" xlink:href="#DejaVuSans-56"/>
      </g>
     </g>
    </g>
    <g id="ytick_9">
     <g id="line2d_16">
      <g>
       <use style="stroke:#000000;stroke-width:0.8;" x="76.3" xlink:href="#m8468a2beee" y="175.198144"/>
      </g>
     </g>
     <g id="text_17">
      <!-- 2-beta-80 -->
      <g transform="translate(20.446875 178.997362)scale(0.1 -0.1)">
       <use xlink:href="#DejaVuSans-50"/>
       <use x="63.623047" xlink:href="#DejaVuSans-45"/>
       <use x="99.707031" xlink:href="#DejaVuSans-98"/>
       <use x="163.183594" xlink:href="#DejaVuSans-101"/>
       <use x="224.707031" xlink:href="#DejaVuSans-116"/>
       <use x="263.916016" xlink:href="#DejaVuSans-97"/>
       <use x="325.195312" xlink:href="#DejaVuSans-45"/>
       <use x="361.279297" xlink:href="#DejaVuSans-56"/>
       <use x="424.902344" xlink:href="#DejaVuSans-48"/>
      </g>
     </g>
    </g>
    <g id="ytick_10">
     <g id="line2d_17">
      <g>
       <use style="stroke:#000000;stroke-width:0.8;" x="76.3" xlink:href="#m8468a2beee" y="192.980299"/>
      </g>
     </g>
     <g id="text_18">
      <!-- 2-beta-60 -->
      <g transform="translate(20.446875 196.779518)scale(0.1 -0.1)">
       <use xlink:href="#DejaVuSans-50"/>
       <use x="63.623047" xlink:href="#DejaVuSans-45"/>
       <use x="99.707031" xlink:href="#DejaVuSans-98"/>
       <use x="163.183594" xlink:href="#DejaVuSans-101"/>
       <use x="224.707031" xlink:href="#DejaVuSans-116"/>
       <use x="263.916016" xlink:href="#DejaVuSans-97"/>
       <use x="325.195312" xlink:href="#DejaVuSans-45"/>
       <use x="361.279297" xlink:href="#DejaVuSans-54"/>
       <use x="424.902344" xlink:href="#DejaVuSans-48"/>
      </g>
     </g>
    </g>
    <g id="ytick_11">
     <g id="line2d_18">
      <g>
       <use style="stroke:#000000;stroke-width:0.8;" x="76.3" xlink:href="#m8468a2beee" y="210.762454"/>
      </g>
     </g>
     <g id="text_19">
      <!-- 3-beta-90-4 -->
      <g transform="translate(10.476562 214.561673)scale(0.1 -0.1)">
       <use xlink:href="#DejaVuSans-51"/>
       <use x="63.623047" xlink:href="#DejaVuSans-45"/>
       <use x="99.707031" xlink:href="#DejaVuSans-98"/>
       <use x="163.183594" xlink:href="#DejaVuSans-101"/>
       <use x="224.707031" xlink:href="#DejaVuSans-116"/>
       <use x="263.916016" xlink:href="#DejaVuSans-97"/>
       <use x="325.195312" xlink:href="#DejaVuSans-45"/>
       <use x="361.279297" xlink:href="#DejaVuSans-57"/>
       <use x="424.902344" xlink:href="#DejaVuSans-48"/>
       <use x="488.525391" xlink:href="#DejaVuSans-45"/>
       <use x="524.609375" xlink:href="#DejaVuSans-52"/>
      </g>
     </g>
    </g>
    <g id="ytick_12">
     <g id="line2d_19">
      <g>
       <use style="stroke:#000000;stroke-width:0.8;" x="76.3" xlink:href="#m8468a2beee" y="228.54461"/>
      </g>
     </g>
     <g id="text_20">
      <!-- 3-beta-75-2 -->
      <g transform="translate(10.476562 232.343829)scale(0.1 -0.1)">
       <use xlink:href="#DejaVuSans-51"/>
       <use x="63.623047" xlink:href="#DejaVuSans-45"/>
       <use x="99.707031" xlink:href="#DejaVuSans-98"/>
       <use x="163.183594" xlink:href="#DejaVuSans-101"/>
       <use x="224.707031" xlink:href="#DejaVuSans-116"/>
       <use x="263.916016" xlink:href="#DejaVuSans-97"/>
       <use x="325.195312" xlink:href="#DejaVuSans-45"/>
       <use x="361.279297" xlink:href="#DejaVuSans-55"/>
       <use x="424.902344" xlink:href="#DejaVuSans-53"/>
       <use x="488.525391" xlink:href="#DejaVuSans-45"/>
       <use x="524.609375" xlink:href="#DejaVuSans-50"/>
      </g>
     </g>
    </g>
    <g id="ytick_13">
     <g id="line2d_20">
      <g>
       <use style="stroke:#000000;stroke-width:0.8;" x="76.3" xlink:href="#m8468a2beee" y="246.326765"/>
      </g>
     </g>
     <g id="text_21">
      <!-- 3-beta-60-3 -->
      <g transform="translate(10.476562 250.125984)scale(0.1 -0.1)">
       <use xlink:href="#DejaVuSans-51"/>
       <use x="63.623047" xlink:href="#DejaVuSans-45"/>
       <use x="99.707031" xlink:href="#DejaVuSans-98"/>
       <use x="163.183594" xlink:href="#DejaVuSans-101"/>
       <use x="224.707031" xlink:href="#DejaVuSans-116"/>
       <use x="263.916016" xlink:href="#DejaVuSans-97"/>
       <use x="325.195312" xlink:href="#DejaVuSans-45"/>
       <use x="361.279297" xlink:href="#DejaVuSans-54"/>
       <use x="424.902344" xlink:href="#DejaVuSans-48"/>
       <use x="488.525391" xlink:href="#DejaVuSans-45"/>
       <use x="524.609375" xlink:href="#DejaVuSans-51"/>
      </g>
     </g>
    </g>
   </g>
   <g id="patch_29">
    <path d="M 76.3 260.730311 
L 76.3 12.3136 
" style="fill:none;stroke:#000000;stroke-linecap:square;stroke-linejoin:miter;stroke-width:0.8;"/>
   </g>
   <g id="patch_30">
    <path d="M 338.175 260.730311 
L 338.175 12.3136 
" style="fill:none;stroke:#000000;stroke-linecap:square;stroke-linejoin:miter;stroke-width:0.8;"/>
   </g>
   <g id="patch_31">
    <path d="M 76.3 260.730311 
L 338.175 260.730311 
" style="fill:none;stroke:#000000;stroke-linecap:square;stroke-linejoin:miter;stroke-width:0.8;"/>
   </g>
   <g id="patch_32">
    <path d="M 76.3 12.3136 
L 338.175 12.3136 
" style="fill:none;stroke:#000000;stroke-linecap:square;stroke-linejoin:miter;stroke-width:0.8;"/>
   </g>
   <g id="legend_1">
    <g id="patch_33">
     <path d="M 83.3 255.730311 
L 199.898438 255.730311 
Q 201.898438 255.730311 201.898438 253.730311 
L 201.898438 225.374061 
Q 201.898438 223.374061 199.898438 223.374061 
L 83.3 223.374061 
Q 81.3 223.374061 81.3 225.374061 
L 81.3 253.730311 
Q 81.3 255.730311 83.3 255.730311 
z
" style="fill:#ffffff;opacity:0.8;stroke:#cccccc;stroke-linejoin:miter;"/>
    </g>
    <g id="patch_34">
     <path d="M 85.3 234.972499 
L 105.3 234.972499 
L 105.3 227.972499 
L 85.3 227.972499 
z
" style="fill:url(#h249a7fc6f0);"/>
    </g>
    <g id="text_22">
     <!-- partial relevance -->
     <defs>
      <path d="M 2.984375 54.6875 
L 12.5 54.6875 
L 29.59375 8.796875 
L 46.6875 54.6875 
L 56.203125 54.6875 
L 35.6875 0 
L 23.484375 0 
z
" id="DejaVuSans-118"/>
     </defs>
     <g transform="translate(113.3 234.972499)scale(0.1 -0.1)">
      <use xlink:href="#DejaVuSans-112"/>
      <use x="63.476562" xlink:href="#DejaVuSans-97"/>
      <use x="124.755859" xlink:href="#DejaVuSans-114"/>
      <use x="165.869141" xlink:href="#DejaVuSans-116"/>
      <use x="205.078125" xlink:href="#DejaVuSans-105"/>
      <use x="232.861328" xlink:href="#DejaVuSans-97"/>
      <use x="294.140625" xlink:href="#DejaVuSans-108"/>
      <use x="321.923828" xlink:href="#DejaVuSans-32"/>
      <use x="353.710938" xlink:href="#DejaVuSans-114"/>
      <use x="394.792969" xlink:href="#DejaVuSans-101"/>
      <use x="456.316406" xlink:href="#DejaVuSans-108"/>
      <use x="484.099609" xlink:href="#DejaVuSans-101"/>
      <use x="545.623047" xlink:href="#DejaVuSans-118"/>
      <use x="604.802734" xlink:href="#DejaVuSans-97"/>
      <use x="666.082031" xlink:href="#DejaVuSans-110"/>
      <use x="729.460938" xlink:href="#DejaVuSans-99"/>
      <use x="784.441406" xlink:href="#DejaVuSans-101"/>
     </g>
    </g>
    <g id="patch_35">
     <path d="M 85.3 249.650624 
L 105.3 249.650624 
L 105.3 242.650624 
L 85.3 242.650624 
z
" style="fill:url(#ha080795cc6);"/>
    </g>
    <g id="text_23">
     <!-- full relevance -->
     <g transform="translate(113.3 249.650624)scale(0.1 -0.1)">
      <use xlink:href="#DejaVuSans-102"/>
      <use x="35.205078" xlink:href="#DejaVuSans-117"/>
      <use x="98.583984" xlink:href="#DejaVuSans-108"/>
      <use x="126.367188" xlink:href="#DejaVuSans-108"/>
      <use x="154.150391" xlink:href="#DejaVuSans-32"/>
      <use x="185.9375" xlink:href="#DejaVuSans-114"/>
      <use x="227.019531" xlink:href="#DejaVuSans-101"/>
      <use x="288.542969" xlink:href="#DejaVuSans-108"/>
      <use x="316.326172" xlink:href="#DejaVuSans-101"/>
      <use x="377.849609" xlink:href="#DejaVuSans-118"/>
      <use x="437.029297" xlink:href="#DejaVuSans-97"/>
      <use x="498.308594" xlink:href="#DejaVuSans-110"/>
      <use x="561.6875" xlink:href="#DejaVuSans-99"/>
      <use x="616.667969" xlink:href="#DejaVuSans-101"/>
     </g>
    </g>
   </g>
  </g>
 </g>
 <defs>
  <clipPath id="pb037986b5b">
   <rect height="248.416711" width="261.875" x="76.3" y="12.3136"/>
  </clipPath>
 </defs>
 <defs>
  <pattern height="72" id="h249a7fc6f0" patternUnits="userSpaceOnUse" width="72" x="0" y="0">
   <rect fill="#0000ff" height="73" width="73" x="0" y="0"/>
   <path style="fill:#000000;stroke:#000000;stroke-linecap:butt;stroke-linejoin:miter;stroke-width:1.0;"/>
  </pattern>
  <pattern height="72" id="ha080795cc6" patternUnits="userSpaceOnUse" width="72" x="0" y="0">
   <rect fill="#ff0000" height="73" width="73" x="0" y="0"/>
   <path style="fill:#000000;stroke:#000000;stroke-linecap:butt;stroke-linejoin:miter;stroke-width:1.0;"/>
  </pattern>
 </defs>
</svg>
